G04 #@! TF.GenerationSoftware,KiCad,Pcbnew,(5.1.5)-3*
G04 #@! TF.CreationDate,2020-01-15T14:34:41+01:00*
G04 #@! TF.ProjectId,ring_pcb_5mm_leds,72696e67-5f70-4636-925f-356d6d5f6c65,rev?*
G04 #@! TF.SameCoordinates,Original*
G04 #@! TF.FileFunction,Soldermask,Top*
G04 #@! TF.FilePolarity,Negative*
%FSLAX46Y46*%
G04 Gerber Fmt 4.6, Leading zero omitted, Abs format (unit mm)*
G04 Created by KiCad (PCBNEW (5.1.5)-3) date 2020-01-15 14:34:41*
%MOMM*%
%LPD*%
G04 APERTURE LIST*
%ADD10C,0.100000*%
G04 APERTURE END LIST*
D10*
G36*
X146478442Y-122564499D02*
G01*
X146651513Y-122636187D01*
X146651514Y-122636188D01*
X146807274Y-122740263D01*
X146939737Y-122872726D01*
X146969186Y-122916800D01*
X147043813Y-123028487D01*
X147115501Y-123201558D01*
X147152047Y-123385286D01*
X147152047Y-123572620D01*
X147115501Y-123756348D01*
X147043813Y-123929419D01*
X147043812Y-123929420D01*
X146939737Y-124085180D01*
X146807274Y-124217643D01*
X146728865Y-124270034D01*
X146651513Y-124321719D01*
X146478442Y-124393407D01*
X146294714Y-124429953D01*
X146107380Y-124429953D01*
X145923652Y-124393407D01*
X145750581Y-124321719D01*
X145673229Y-124270034D01*
X145594820Y-124217643D01*
X145462357Y-124085180D01*
X145358282Y-123929420D01*
X145358281Y-123929419D01*
X145286593Y-123756348D01*
X145250047Y-123572620D01*
X145250047Y-123385286D01*
X145286593Y-123201558D01*
X145358281Y-123028487D01*
X145432908Y-122916800D01*
X145462357Y-122872726D01*
X145594820Y-122740263D01*
X145750580Y-122636188D01*
X145750581Y-122636187D01*
X145923652Y-122564499D01*
X146107380Y-122527953D01*
X146294714Y-122527953D01*
X146478442Y-122564499D01*
G37*
G36*
X144612047Y-124429953D02*
G01*
X142710047Y-124429953D01*
X142710047Y-122527953D01*
X144612047Y-122527953D01*
X144612047Y-124429953D01*
G37*
G36*
X151640205Y-123201558D02*
G01*
X151708325Y-123756349D01*
X151710856Y-123776967D01*
X150029480Y-123983413D01*
X149823034Y-124008762D01*
X149823033Y-124008762D01*
X149600531Y-122196622D01*
X149591238Y-122120940D01*
X149591238Y-122120939D01*
X151272614Y-121914493D01*
X151479060Y-121889144D01*
X151479061Y-121889144D01*
X151640205Y-123201558D01*
G37*
G36*
X139467170Y-122071843D02*
G01*
X139640241Y-122143531D01*
X139640242Y-122143532D01*
X139796002Y-122247607D01*
X139928465Y-122380070D01*
X139928466Y-122380072D01*
X140032541Y-122535831D01*
X140104229Y-122708902D01*
X140140775Y-122892630D01*
X140140775Y-123079964D01*
X140104229Y-123263692D01*
X140032541Y-123436763D01*
X140032540Y-123436764D01*
X139928465Y-123592524D01*
X139796002Y-123724987D01*
X139749067Y-123756348D01*
X139640241Y-123829063D01*
X139467170Y-123900751D01*
X139283442Y-123937297D01*
X139096108Y-123937297D01*
X138912380Y-123900751D01*
X138739309Y-123829063D01*
X138630483Y-123756348D01*
X138583548Y-123724987D01*
X138451085Y-123592524D01*
X138347010Y-123436764D01*
X138347009Y-123436763D01*
X138275321Y-123263692D01*
X138238775Y-123079964D01*
X138238775Y-122892630D01*
X138275321Y-122708902D01*
X138347009Y-122535831D01*
X138451084Y-122380072D01*
X138451085Y-122380070D01*
X138583548Y-122247607D01*
X138739308Y-122143532D01*
X138739309Y-122143531D01*
X138912380Y-122071843D01*
X139096108Y-122035297D01*
X139283442Y-122035297D01*
X139467170Y-122071843D01*
G37*
G36*
X137769108Y-121798431D02*
G01*
X137471569Y-123677014D01*
X135592986Y-123379475D01*
X135890525Y-121500892D01*
X137769108Y-121798431D01*
G37*
G36*
X153449509Y-121724951D02*
G01*
X153622580Y-121796639D01*
X153699932Y-121848324D01*
X153778341Y-121900715D01*
X153910804Y-122033178D01*
X153950472Y-122092546D01*
X154014880Y-122188939D01*
X154086568Y-122362010D01*
X154123114Y-122545738D01*
X154123114Y-122733072D01*
X154086568Y-122916800D01*
X154014880Y-123089871D01*
X154014879Y-123089872D01*
X153910804Y-123245632D01*
X153778341Y-123378095D01*
X153699932Y-123430486D01*
X153622580Y-123482171D01*
X153449509Y-123553859D01*
X153265781Y-123590405D01*
X153078447Y-123590405D01*
X152894719Y-123553859D01*
X152721648Y-123482171D01*
X152644296Y-123430486D01*
X152565887Y-123378095D01*
X152433424Y-123245632D01*
X152329349Y-123089872D01*
X152329348Y-123089871D01*
X152257660Y-122916800D01*
X152221114Y-122733072D01*
X152221114Y-122545738D01*
X152257660Y-122362010D01*
X152329348Y-122188939D01*
X152393756Y-122092546D01*
X152433424Y-122033178D01*
X152565887Y-121900715D01*
X152644296Y-121848324D01*
X152721648Y-121796639D01*
X152894719Y-121724951D01*
X153078447Y-121688405D01*
X153265781Y-121688405D01*
X153449509Y-121724951D01*
G37*
G36*
X158939850Y-122018526D02*
G01*
X157141474Y-122637756D01*
X156522244Y-120839380D01*
X158320620Y-120220150D01*
X158939850Y-122018526D01*
G37*
G36*
X132414126Y-120439402D02*
G01*
X132587197Y-120511090D01*
X132587198Y-120511091D01*
X132742958Y-120615166D01*
X132875421Y-120747629D01*
X132875422Y-120747631D01*
X132979497Y-120903390D01*
X133051185Y-121076461D01*
X133087731Y-121260189D01*
X133087731Y-121447523D01*
X133051185Y-121631251D01*
X132979497Y-121804322D01*
X132979496Y-121804323D01*
X132875421Y-121960083D01*
X132742958Y-122092546D01*
X132700463Y-122120940D01*
X132587197Y-122196622D01*
X132414126Y-122268310D01*
X132230398Y-122304856D01*
X132043064Y-122304856D01*
X131859336Y-122268310D01*
X131686265Y-122196622D01*
X131572999Y-122120940D01*
X131530504Y-122092546D01*
X131398041Y-121960083D01*
X131293966Y-121804323D01*
X131293965Y-121804322D01*
X131222277Y-121631251D01*
X131185731Y-121447523D01*
X131185731Y-121260189D01*
X131222277Y-121076461D01*
X131293965Y-120903390D01*
X131398040Y-120747631D01*
X131398041Y-120747629D01*
X131530504Y-120615166D01*
X131686264Y-120511091D01*
X131686265Y-120511090D01*
X131859336Y-120439402D01*
X132043064Y-120402856D01*
X132230398Y-120402856D01*
X132414126Y-120439402D01*
G37*
G36*
X130919377Y-119958373D02*
G01*
X130331627Y-121767283D01*
X128522717Y-121179533D01*
X129110467Y-119370623D01*
X130919377Y-119958373D01*
G37*
G36*
X160410059Y-119687556D02*
G01*
X160583130Y-119759244D01*
X160583131Y-119759245D01*
X160738891Y-119863320D01*
X160871354Y-119995783D01*
X160871355Y-119995785D01*
X160975430Y-120151544D01*
X161047118Y-120324615D01*
X161083664Y-120508343D01*
X161083664Y-120695677D01*
X161047118Y-120879405D01*
X160975430Y-121052476D01*
X160923745Y-121129828D01*
X160871354Y-121208237D01*
X160738891Y-121340700D01*
X160660482Y-121393091D01*
X160583130Y-121444776D01*
X160410059Y-121516464D01*
X160226331Y-121553010D01*
X160038997Y-121553010D01*
X159855269Y-121516464D01*
X159682198Y-121444776D01*
X159604846Y-121393091D01*
X159526437Y-121340700D01*
X159393974Y-121208237D01*
X159341583Y-121129828D01*
X159289898Y-121052476D01*
X159218210Y-120879405D01*
X159181664Y-120695677D01*
X159181664Y-120508343D01*
X159218210Y-120324615D01*
X159289898Y-120151544D01*
X159393973Y-119995785D01*
X159393974Y-119995783D01*
X159526437Y-119863320D01*
X159682197Y-119759245D01*
X159682198Y-119759244D01*
X159855269Y-119687556D01*
X160038997Y-119651010D01*
X160226331Y-119651010D01*
X160410059Y-119687556D01*
G37*
G36*
X166215532Y-118512495D02*
G01*
X164657505Y-119603438D01*
X163566562Y-118045411D01*
X165124589Y-116954468D01*
X166215532Y-118512495D01*
G37*
G36*
X125278147Y-117244499D02*
G01*
X125451218Y-117316187D01*
X125451219Y-117316188D01*
X125606979Y-117420263D01*
X125739442Y-117552726D01*
X125739443Y-117552728D01*
X125843518Y-117708487D01*
X125915206Y-117881558D01*
X125951752Y-118065286D01*
X125951752Y-118252620D01*
X125915206Y-118436348D01*
X125843518Y-118609419D01*
X125843517Y-118609420D01*
X125739442Y-118765180D01*
X125606979Y-118897643D01*
X125528570Y-118950034D01*
X125451218Y-119001719D01*
X125278147Y-119073407D01*
X125094419Y-119109953D01*
X124907085Y-119109953D01*
X124723357Y-119073407D01*
X124550286Y-119001719D01*
X124472934Y-118950034D01*
X124394525Y-118897643D01*
X124262062Y-118765180D01*
X124157987Y-118609420D01*
X124157986Y-118609419D01*
X124086298Y-118436348D01*
X124049752Y-118252620D01*
X124049752Y-118065286D01*
X124086298Y-117881558D01*
X124157986Y-117708487D01*
X124262061Y-117552728D01*
X124262062Y-117552726D01*
X124394525Y-117420263D01*
X124550285Y-117316188D01*
X124550286Y-117316187D01*
X124723357Y-117244499D01*
X124907085Y-117207953D01*
X125094419Y-117207953D01*
X125278147Y-117244499D01*
G37*
G36*
X124100138Y-116540863D02*
G01*
X123149137Y-118188044D01*
X121501956Y-117237043D01*
X122452957Y-115589862D01*
X124100138Y-116540863D01*
G37*
G36*
X167249088Y-115907615D02*
G01*
X167422159Y-115979303D01*
X167422160Y-115979304D01*
X167577920Y-116083379D01*
X167710383Y-116215842D01*
X167710384Y-116215844D01*
X167814459Y-116371603D01*
X167886147Y-116544674D01*
X167922693Y-116728402D01*
X167922693Y-116915736D01*
X167886147Y-117099464D01*
X167814459Y-117272535D01*
X167785291Y-117316188D01*
X167710383Y-117428296D01*
X167577920Y-117560759D01*
X167499511Y-117613150D01*
X167422159Y-117664835D01*
X167249088Y-117736523D01*
X167065360Y-117773069D01*
X166878026Y-117773069D01*
X166694298Y-117736523D01*
X166521227Y-117664835D01*
X166443875Y-117613150D01*
X166365466Y-117560759D01*
X166233003Y-117428296D01*
X166158095Y-117316188D01*
X166128927Y-117272535D01*
X166057239Y-117099464D01*
X166020693Y-116915736D01*
X166020693Y-116728402D01*
X166057239Y-116544674D01*
X166128927Y-116371603D01*
X166233002Y-116215844D01*
X166233003Y-116215842D01*
X166365466Y-116083379D01*
X166521226Y-115979304D01*
X166521227Y-115979303D01*
X166694298Y-115907615D01*
X166878026Y-115871069D01*
X167065360Y-115871069D01*
X167249088Y-115907615D01*
G37*
G36*
X173365964Y-113038953D02*
G01*
X172021047Y-114383870D01*
X170676130Y-113038953D01*
X172021047Y-111694036D01*
X173365964Y-113038953D01*
G37*
G36*
X118204195Y-112037180D02*
G01*
X118377266Y-112108868D01*
X118377267Y-112108869D01*
X118533027Y-112212944D01*
X118665490Y-112345407D01*
X118665491Y-112345409D01*
X118769566Y-112501168D01*
X118841254Y-112674239D01*
X118877800Y-112857967D01*
X118877800Y-113045301D01*
X118841254Y-113229029D01*
X118769566Y-113402100D01*
X118769565Y-113402101D01*
X118665490Y-113557861D01*
X118533027Y-113690324D01*
X118454618Y-113742715D01*
X118377266Y-113794400D01*
X118204195Y-113866088D01*
X118020467Y-113902634D01*
X117833133Y-113902634D01*
X117649405Y-113866088D01*
X117476334Y-113794400D01*
X117398982Y-113742715D01*
X117320573Y-113690324D01*
X117188110Y-113557861D01*
X117084035Y-113402101D01*
X117084034Y-113402100D01*
X117012346Y-113229029D01*
X116975800Y-113045301D01*
X116975800Y-112857967D01*
X117012346Y-112674239D01*
X117084034Y-112501168D01*
X117188109Y-112345409D01*
X117188110Y-112345407D01*
X117320573Y-112212944D01*
X117476333Y-112108869D01*
X117476334Y-112108868D01*
X117649405Y-112037180D01*
X117833133Y-112000634D01*
X118020467Y-112000634D01*
X118204195Y-112037180D01*
G37*
G36*
X117320846Y-111201736D02*
G01*
X116098264Y-112658752D01*
X114641248Y-111436170D01*
X115863830Y-109979154D01*
X117320846Y-111201736D01*
G37*
G36*
X174094493Y-110328448D02*
G01*
X174267564Y-110400136D01*
X174267565Y-110400137D01*
X174423325Y-110504212D01*
X174555788Y-110636675D01*
X174555789Y-110636677D01*
X174659864Y-110792436D01*
X174731552Y-110965507D01*
X174768098Y-111149235D01*
X174768098Y-111336569D01*
X174731552Y-111520297D01*
X174659864Y-111693368D01*
X174659417Y-111694037D01*
X174555788Y-111849129D01*
X174423325Y-111981592D01*
X174394826Y-112000634D01*
X174267564Y-112085668D01*
X174094493Y-112157356D01*
X173910765Y-112193902D01*
X173723431Y-112193902D01*
X173539703Y-112157356D01*
X173366632Y-112085668D01*
X173239370Y-112000634D01*
X173210871Y-111981592D01*
X173078408Y-111849129D01*
X172974779Y-111694037D01*
X172974332Y-111693368D01*
X172902644Y-111520297D01*
X172866098Y-111336569D01*
X172866098Y-111149235D01*
X172902644Y-110965507D01*
X172974332Y-110792436D01*
X173078407Y-110636677D01*
X173078408Y-110636675D01*
X173210871Y-110504212D01*
X173366631Y-110400137D01*
X173366632Y-110400136D01*
X173539703Y-110328448D01*
X173723431Y-110291902D01*
X173910765Y-110291902D01*
X174094493Y-110328448D01*
G37*
G36*
X179733153Y-100676830D02*
G01*
X179920658Y-100745076D01*
X180113464Y-100815252D01*
X180399837Y-100919483D01*
X180491926Y-100953001D01*
X180844319Y-101081261D01*
X180844322Y-101081262D01*
X180992045Y-101135029D01*
X181339530Y-101261503D01*
X181456984Y-101304253D01*
X181456989Y-101304256D01*
X181809376Y-101432514D01*
X181809376Y-101432515D01*
X181728671Y-101654250D01*
X181518656Y-102231261D01*
X181512575Y-102254991D01*
X181511239Y-102279458D01*
X181514702Y-102303716D01*
X181522831Y-102326833D01*
X181535314Y-102347919D01*
X181551671Y-102366165D01*
X181571273Y-102380869D01*
X181593365Y-102391466D01*
X182392107Y-102682184D01*
X182392107Y-102682185D01*
X182364569Y-102757844D01*
X182254615Y-103059941D01*
X182227154Y-103135388D01*
X182221097Y-103152030D01*
X182083605Y-103529787D01*
X182083604Y-103529787D01*
X182050087Y-103621876D01*
X181912595Y-103999633D01*
X181879077Y-104091722D01*
X181876675Y-104098321D01*
X181876676Y-104098321D01*
X181869843Y-104117093D01*
X181750817Y-104444115D01*
X181750816Y-104444118D01*
X181741585Y-104469479D01*
X181649343Y-104722912D01*
X181570575Y-104939326D01*
X181527825Y-105056780D01*
X181527822Y-105056785D01*
X181399564Y-105409172D01*
X181399563Y-105409172D01*
X181141139Y-105315113D01*
X180600817Y-105118452D01*
X180577087Y-105112371D01*
X180552620Y-105111035D01*
X180528362Y-105114498D01*
X180505245Y-105122627D01*
X180484159Y-105135110D01*
X180465913Y-105151467D01*
X180451209Y-105171069D01*
X180440612Y-105193161D01*
X180149894Y-105991903D01*
X180149893Y-105991903D01*
X179210202Y-105649883D01*
X178832445Y-105512391D01*
X178740356Y-105478873D01*
X178387963Y-105350613D01*
X178387960Y-105350612D01*
X178024524Y-105218332D01*
X177892752Y-105170371D01*
X177775298Y-105127621D01*
X177775293Y-105127618D01*
X177422906Y-104999360D01*
X177444757Y-104939326D01*
X177582249Y-104561569D01*
X177713626Y-104200613D01*
X177719707Y-104176883D01*
X177721043Y-104152416D01*
X177717580Y-104128158D01*
X177709451Y-104105041D01*
X177696968Y-104083955D01*
X177680611Y-104065709D01*
X177661009Y-104051005D01*
X177638917Y-104040408D01*
X176840175Y-103749690D01*
X176977667Y-103371933D01*
X177003294Y-103301524D01*
X177077446Y-103097794D01*
X177148677Y-102902087D01*
X177185617Y-102800596D01*
X177228715Y-102682185D01*
X177319687Y-102432241D01*
X177319688Y-102432241D01*
X177370558Y-102292476D01*
X177481755Y-101986964D01*
X177704457Y-101375094D01*
X177704461Y-101375087D01*
X177832718Y-101022702D01*
X177832719Y-101022702D01*
X178061633Y-101106020D01*
X178631465Y-101313422D01*
X178655195Y-101319503D01*
X178679662Y-101320839D01*
X178703920Y-101317376D01*
X178727037Y-101309247D01*
X178748123Y-101296764D01*
X178766369Y-101280407D01*
X178781073Y-101260805D01*
X178791671Y-101238711D01*
X178823368Y-101151623D01*
X179082388Y-100439971D01*
X179082389Y-100439971D01*
X179733153Y-100676830D01*
G37*
G36*
X182455039Y-104715821D02*
G01*
X182476021Y-104720713D01*
X182501272Y-104732155D01*
X182941824Y-104986507D01*
X182964356Y-105002652D01*
X182979083Y-105018377D01*
X182990461Y-105036673D01*
X182998047Y-105056829D01*
X183001557Y-105078089D01*
X183000852Y-105099618D01*
X182995960Y-105120600D01*
X182984518Y-105145851D01*
X182755166Y-105543101D01*
X182739021Y-105565633D01*
X182723296Y-105580360D01*
X182705000Y-105591738D01*
X182684844Y-105599324D01*
X182663583Y-105602834D01*
X182642055Y-105602129D01*
X182621073Y-105597237D01*
X182595822Y-105585795D01*
X182155270Y-105331443D01*
X182132738Y-105315298D01*
X182118011Y-105299573D01*
X182106633Y-105281277D01*
X182099047Y-105261121D01*
X182095537Y-105239861D01*
X182096242Y-105218332D01*
X182101134Y-105197350D01*
X182112576Y-105172099D01*
X182341928Y-104774849D01*
X182358073Y-104752317D01*
X182373798Y-104737590D01*
X182392094Y-104726212D01*
X182412250Y-104718626D01*
X182433511Y-104715116D01*
X182455039Y-104715821D01*
G37*
G36*
X182940039Y-103875777D02*
G01*
X182961021Y-103880669D01*
X182986272Y-103892111D01*
X183426824Y-104146463D01*
X183449356Y-104162608D01*
X183464083Y-104178333D01*
X183475461Y-104196629D01*
X183483047Y-104216785D01*
X183486557Y-104238045D01*
X183485852Y-104259574D01*
X183480960Y-104280556D01*
X183469518Y-104305807D01*
X183240166Y-104703057D01*
X183224021Y-104725589D01*
X183208296Y-104740316D01*
X183190000Y-104751694D01*
X183169844Y-104759280D01*
X183148583Y-104762790D01*
X183127055Y-104762085D01*
X183106073Y-104757193D01*
X183080822Y-104745751D01*
X182640270Y-104491399D01*
X182617738Y-104475254D01*
X182603011Y-104459529D01*
X182591633Y-104441233D01*
X182584047Y-104421077D01*
X182580537Y-104399817D01*
X182581242Y-104378288D01*
X182586134Y-104357306D01*
X182597576Y-104332055D01*
X182826928Y-103934805D01*
X182843073Y-103912273D01*
X182858798Y-103897546D01*
X182877094Y-103886168D01*
X182897250Y-103878582D01*
X182918511Y-103875072D01*
X182940039Y-103875777D01*
G37*
G36*
X183591631Y-102535238D02*
G01*
X183617766Y-102544429D01*
X183668847Y-102568249D01*
X183668854Y-102568251D01*
X184027752Y-102735608D01*
X184027761Y-102735613D01*
X184078836Y-102759430D01*
X184102681Y-102773546D01*
X184118718Y-102787922D01*
X184131649Y-102805161D01*
X184140964Y-102824580D01*
X184146313Y-102845453D01*
X184147488Y-102866964D01*
X184144443Y-102888291D01*
X184135252Y-102914426D01*
X183941385Y-103330177D01*
X183927267Y-103354024D01*
X183912889Y-103370062D01*
X183895656Y-103382990D01*
X183876231Y-103392308D01*
X183855360Y-103397656D01*
X183833850Y-103398831D01*
X183812523Y-103395786D01*
X183786388Y-103386595D01*
X183735307Y-103362775D01*
X183735300Y-103362773D01*
X183376402Y-103195416D01*
X183376393Y-103195411D01*
X183325318Y-103171594D01*
X183301473Y-103157478D01*
X183285436Y-103143102D01*
X183272505Y-103125863D01*
X183263190Y-103106444D01*
X183257841Y-103085571D01*
X183256666Y-103064060D01*
X183259711Y-103042733D01*
X183268902Y-103016598D01*
X183462769Y-102600847D01*
X183476887Y-102577000D01*
X183491265Y-102560962D01*
X183508498Y-102548034D01*
X183527923Y-102538716D01*
X183548794Y-102533368D01*
X183570304Y-102532193D01*
X183591631Y-102535238D01*
G37*
G36*
X184001571Y-101656120D02*
G01*
X184027706Y-101665311D01*
X184078787Y-101689131D01*
X184078794Y-101689133D01*
X184437692Y-101856490D01*
X184437701Y-101856495D01*
X184488776Y-101880312D01*
X184512621Y-101894428D01*
X184528658Y-101908804D01*
X184541589Y-101926043D01*
X184550904Y-101945462D01*
X184556253Y-101966335D01*
X184557428Y-101987846D01*
X184554383Y-102009173D01*
X184545192Y-102035308D01*
X184351325Y-102451059D01*
X184337207Y-102474906D01*
X184322829Y-102490944D01*
X184305596Y-102503872D01*
X184286171Y-102513190D01*
X184265300Y-102518538D01*
X184243790Y-102519713D01*
X184222463Y-102516668D01*
X184196328Y-102507477D01*
X184145247Y-102483657D01*
X184145240Y-102483655D01*
X183786342Y-102316298D01*
X183786333Y-102316293D01*
X183735258Y-102292476D01*
X183711413Y-102278360D01*
X183695376Y-102263984D01*
X183682445Y-102246745D01*
X183673130Y-102227326D01*
X183667781Y-102206453D01*
X183666606Y-102184942D01*
X183669651Y-102163615D01*
X183678842Y-102137480D01*
X183872709Y-101721729D01*
X183886827Y-101697882D01*
X183901205Y-101681844D01*
X183918438Y-101668916D01*
X183937863Y-101659598D01*
X183958734Y-101654250D01*
X183980244Y-101653075D01*
X184001571Y-101656120D01*
G37*
G36*
X183057314Y-100442881D02*
G01*
X183084161Y-100449761D01*
X183515220Y-100606654D01*
X183540201Y-100618637D01*
X183557437Y-100631567D01*
X183571815Y-100647605D01*
X183582792Y-100666148D01*
X183589938Y-100686467D01*
X183592983Y-100707795D01*
X183591808Y-100729306D01*
X183584928Y-100756153D01*
X183410934Y-101234197D01*
X183398951Y-101259178D01*
X183386021Y-101276414D01*
X183369983Y-101290792D01*
X183351440Y-101301769D01*
X183331121Y-101308915D01*
X183309793Y-101311960D01*
X183288282Y-101310785D01*
X183261435Y-101303905D01*
X182830376Y-101147012D01*
X182805395Y-101135029D01*
X182788159Y-101122099D01*
X182773781Y-101106061D01*
X182762804Y-101087518D01*
X182755658Y-101067199D01*
X182752613Y-101045871D01*
X182753788Y-101024360D01*
X182760668Y-100997513D01*
X182934662Y-100519469D01*
X182946645Y-100494488D01*
X182959575Y-100477252D01*
X182975613Y-100462874D01*
X182994156Y-100451897D01*
X183014475Y-100444751D01*
X183035803Y-100441706D01*
X183057314Y-100442881D01*
G37*
G36*
X182145812Y-100111121D02*
G01*
X182172659Y-100118001D01*
X182603718Y-100274894D01*
X182628699Y-100286877D01*
X182645935Y-100299807D01*
X182660313Y-100315845D01*
X182671290Y-100334388D01*
X182678436Y-100354707D01*
X182681481Y-100376035D01*
X182680306Y-100397546D01*
X182673426Y-100424393D01*
X182499432Y-100902437D01*
X182487449Y-100927418D01*
X182474519Y-100944654D01*
X182458481Y-100959032D01*
X182439938Y-100970009D01*
X182419619Y-100977155D01*
X182398291Y-100980200D01*
X182376780Y-100979025D01*
X182349933Y-100972145D01*
X181918874Y-100815252D01*
X181893893Y-100803269D01*
X181876657Y-100790339D01*
X181862279Y-100774301D01*
X181851302Y-100755758D01*
X181844156Y-100735439D01*
X181841111Y-100714111D01*
X181842286Y-100692600D01*
X181849166Y-100665753D01*
X182023160Y-100187709D01*
X182035143Y-100162728D01*
X182048073Y-100145492D01*
X182064111Y-100131114D01*
X182082654Y-100120137D01*
X182102973Y-100112991D01*
X182124301Y-100109946D01*
X182145812Y-100111121D01*
G37*
G36*
X180825563Y-99155001D02*
G01*
X180852410Y-99161881D01*
X181283469Y-99318774D01*
X181308450Y-99330757D01*
X181325686Y-99343687D01*
X181340064Y-99359725D01*
X181351041Y-99378268D01*
X181358187Y-99398587D01*
X181361232Y-99419915D01*
X181360057Y-99441426D01*
X181353177Y-99468273D01*
X181179183Y-99946317D01*
X181167200Y-99971298D01*
X181154270Y-99988534D01*
X181138232Y-100002912D01*
X181119689Y-100013889D01*
X181099370Y-100021035D01*
X181078042Y-100024080D01*
X181056531Y-100022905D01*
X181029684Y-100016025D01*
X180598625Y-99859132D01*
X180573644Y-99847149D01*
X180556408Y-99834219D01*
X180542030Y-99818181D01*
X180531053Y-99799638D01*
X180523907Y-99779319D01*
X180520862Y-99757991D01*
X180522037Y-99736480D01*
X180528917Y-99709633D01*
X180702911Y-99231589D01*
X180714894Y-99206608D01*
X180727824Y-99189372D01*
X180743862Y-99174994D01*
X180762405Y-99164017D01*
X180782724Y-99156871D01*
X180804052Y-99153826D01*
X180825563Y-99155001D01*
G37*
G36*
X179914061Y-98823241D02*
G01*
X179940908Y-98830121D01*
X180371967Y-98987014D01*
X180396948Y-98998997D01*
X180414184Y-99011927D01*
X180428562Y-99027965D01*
X180439539Y-99046508D01*
X180446685Y-99066827D01*
X180449730Y-99088155D01*
X180448555Y-99109666D01*
X180441675Y-99136513D01*
X180267681Y-99614557D01*
X180255698Y-99639538D01*
X180242768Y-99656774D01*
X180226730Y-99671152D01*
X180208187Y-99682129D01*
X180187868Y-99689275D01*
X180166540Y-99692320D01*
X180145029Y-99691145D01*
X180118182Y-99684265D01*
X179687123Y-99527372D01*
X179662142Y-99515389D01*
X179644906Y-99502459D01*
X179630528Y-99486421D01*
X179619551Y-99467878D01*
X179612405Y-99447559D01*
X179609360Y-99426231D01*
X179610535Y-99404720D01*
X179617415Y-99377873D01*
X179791409Y-98899829D01*
X179803392Y-98874848D01*
X179816322Y-98857612D01*
X179832360Y-98843234D01*
X179850903Y-98832257D01*
X179871222Y-98825111D01*
X179892550Y-98822066D01*
X179914061Y-98823241D01*
G37*
G36*
X182331314Y-98080881D02*
G01*
X182358161Y-98087761D01*
X182789220Y-98244654D01*
X182814201Y-98256637D01*
X182831437Y-98269567D01*
X182845815Y-98285605D01*
X182856792Y-98304148D01*
X182863938Y-98324467D01*
X182866983Y-98345795D01*
X182865808Y-98367306D01*
X182858928Y-98394153D01*
X182684934Y-98872197D01*
X182672951Y-98897178D01*
X182660021Y-98914414D01*
X182643983Y-98928792D01*
X182625440Y-98939769D01*
X182605121Y-98946915D01*
X182583793Y-98949960D01*
X182562282Y-98948785D01*
X182535435Y-98941905D01*
X182104376Y-98785012D01*
X182079395Y-98773029D01*
X182062159Y-98760099D01*
X182047781Y-98744061D01*
X182036804Y-98725518D01*
X182029658Y-98705199D01*
X182026613Y-98683871D01*
X182027788Y-98662360D01*
X182034668Y-98635513D01*
X182208662Y-98157469D01*
X182220645Y-98132488D01*
X182233575Y-98115252D01*
X182249613Y-98100874D01*
X182268156Y-98089897D01*
X182288475Y-98082751D01*
X182309803Y-98079706D01*
X182331314Y-98080881D01*
G37*
G36*
X181419812Y-97749121D02*
G01*
X181446659Y-97756001D01*
X181877718Y-97912894D01*
X181902699Y-97924877D01*
X181919935Y-97937807D01*
X181934313Y-97953845D01*
X181945290Y-97972388D01*
X181952436Y-97992707D01*
X181955481Y-98014035D01*
X181954306Y-98035546D01*
X181947426Y-98062393D01*
X181773432Y-98540437D01*
X181761449Y-98565418D01*
X181748519Y-98582654D01*
X181732481Y-98597032D01*
X181713938Y-98608009D01*
X181693619Y-98615155D01*
X181672291Y-98618200D01*
X181650780Y-98617025D01*
X181623933Y-98610145D01*
X181192874Y-98453252D01*
X181167893Y-98441269D01*
X181150657Y-98428339D01*
X181136279Y-98412301D01*
X181125302Y-98393758D01*
X181118156Y-98373439D01*
X181115111Y-98352111D01*
X181116286Y-98330600D01*
X181123166Y-98303753D01*
X181297160Y-97825709D01*
X181309143Y-97800728D01*
X181322073Y-97783492D01*
X181338111Y-97769114D01*
X181356654Y-97758137D01*
X181376973Y-97750991D01*
X181398301Y-97747946D01*
X181419812Y-97749121D01*
G37*
G36*
X185444614Y-82090735D02*
G01*
X185555799Y-82112851D01*
X185765268Y-82199616D01*
X185953785Y-82325579D01*
X186114105Y-82485899D01*
X186240068Y-82674416D01*
X186326833Y-82883885D01*
X186371065Y-83106255D01*
X186371065Y-83332983D01*
X186326833Y-83555353D01*
X186240068Y-83764822D01*
X186114105Y-83953339D01*
X185953785Y-84113659D01*
X185765268Y-84239622D01*
X185555799Y-84326387D01*
X185444614Y-84348503D01*
X185333430Y-84370619D01*
X185106700Y-84370619D01*
X184995516Y-84348503D01*
X184884331Y-84326387D01*
X184674862Y-84239622D01*
X184486345Y-84113659D01*
X184326025Y-83953339D01*
X184200062Y-83764822D01*
X184113297Y-83555353D01*
X184069065Y-83332983D01*
X184069065Y-83106255D01*
X184113297Y-82883885D01*
X184200062Y-82674416D01*
X184326025Y-82485899D01*
X184486345Y-82325579D01*
X184674862Y-82199616D01*
X184884331Y-82112851D01*
X184995516Y-82090735D01*
X185106700Y-82068619D01*
X185333430Y-82068619D01*
X185444614Y-82090735D01*
G37*
G36*
X104902935Y-82090735D02*
G01*
X105014120Y-82112851D01*
X105223589Y-82199616D01*
X105412106Y-82325579D01*
X105572426Y-82485899D01*
X105698389Y-82674416D01*
X105785154Y-82883885D01*
X105829386Y-83106255D01*
X105829386Y-83332983D01*
X105785154Y-83555353D01*
X105698389Y-83764822D01*
X105572426Y-83953339D01*
X105412106Y-84113659D01*
X105223589Y-84239622D01*
X105014120Y-84326387D01*
X104902935Y-84348503D01*
X104791751Y-84370619D01*
X104565021Y-84370619D01*
X104453837Y-84348503D01*
X104342652Y-84326387D01*
X104133183Y-84239622D01*
X103944666Y-84113659D01*
X103784346Y-83953339D01*
X103658383Y-83764822D01*
X103571618Y-83555353D01*
X103527386Y-83332983D01*
X103527386Y-83106255D01*
X103571618Y-82883885D01*
X103658383Y-82674416D01*
X103784346Y-82485899D01*
X103944666Y-82325579D01*
X104133183Y-82199616D01*
X104342652Y-82112851D01*
X104453837Y-82090735D01*
X104565021Y-82068619D01*
X104791751Y-82068619D01*
X104902935Y-82090735D01*
G37*
G36*
X180939435Y-63675527D02*
G01*
X181024175Y-63688570D01*
X181045853Y-63694126D01*
X181126423Y-63723451D01*
X181131983Y-63726118D01*
X181131986Y-63726119D01*
X181141044Y-63730464D01*
X181146610Y-63733134D01*
X181219902Y-63777608D01*
X181237817Y-63791047D01*
X181301026Y-63848969D01*
X181315966Y-63865634D01*
X181366664Y-63934778D01*
X181369805Y-63940084D01*
X181369807Y-63940087D01*
X181374925Y-63948732D01*
X181374929Y-63948740D01*
X181378069Y-63954045D01*
X181385848Y-63970726D01*
X181391570Y-63981574D01*
X181400960Y-63997436D01*
X181628215Y-64484787D01*
X181633593Y-64500080D01*
X181635739Y-64515109D01*
X181636361Y-64529368D01*
X181642185Y-64553170D01*
X181652541Y-64575378D01*
X181667030Y-64595140D01*
X181685096Y-64611695D01*
X181686990Y-64612845D01*
X181714136Y-64671060D01*
X181714137Y-64671060D01*
X181995959Y-65275430D01*
X182207354Y-65728768D01*
X182206605Y-65742476D01*
X182210067Y-65766734D01*
X182218195Y-65789851D01*
X182230677Y-65810938D01*
X182247033Y-65829184D01*
X182251219Y-65832658D01*
X182259069Y-65841415D01*
X182267326Y-65855364D01*
X182494584Y-66342719D01*
X182500696Y-66360099D01*
X182505329Y-66371459D01*
X182513110Y-66388145D01*
X182520538Y-66409264D01*
X182540916Y-66492546D01*
X182544080Y-66514703D01*
X182547820Y-66600359D01*
X182546600Y-66622713D01*
X182533558Y-66707446D01*
X182527999Y-66729135D01*
X182498674Y-66809703D01*
X182496007Y-66815263D01*
X182496006Y-66815266D01*
X182491662Y-66824323D01*
X182491659Y-66824329D01*
X182488991Y-66829890D01*
X182444518Y-66903181D01*
X182431079Y-66921096D01*
X182373157Y-66984305D01*
X182356491Y-66999245D01*
X182287351Y-67049941D01*
X182282045Y-67053082D01*
X182282040Y-67053086D01*
X182273395Y-67058204D01*
X182273390Y-67058206D01*
X182268085Y-67061347D01*
X182251365Y-67069143D01*
X182240501Y-67074874D01*
X182238657Y-67075966D01*
X182238648Y-67075974D01*
X182229995Y-67081098D01*
X182229969Y-67081110D01*
X182224678Y-67084243D01*
X181782659Y-67290360D01*
X181776849Y-67292403D01*
X181776841Y-67292407D01*
X181767364Y-67295739D01*
X181767363Y-67295739D01*
X181765282Y-67296471D01*
X181753924Y-67301104D01*
X181737231Y-67308888D01*
X181731411Y-67310935D01*
X181731406Y-67310937D01*
X181724827Y-67313250D01*
X181716106Y-67316317D01*
X181632827Y-67336695D01*
X181610670Y-67339859D01*
X181525013Y-67343599D01*
X181502659Y-67342379D01*
X181417919Y-67329336D01*
X181396241Y-67323780D01*
X181315671Y-67294455D01*
X181310111Y-67291788D01*
X181310108Y-67291787D01*
X181301050Y-67287442D01*
X181301049Y-67287441D01*
X181295484Y-67284772D01*
X181222192Y-67240298D01*
X181204277Y-67226859D01*
X181141068Y-67168937D01*
X181126128Y-67152272D01*
X181075430Y-67083128D01*
X181070544Y-67074874D01*
X181067169Y-67069174D01*
X181067165Y-67069166D01*
X181064025Y-67063861D01*
X181056246Y-67047180D01*
X181050524Y-67036332D01*
X181041134Y-67020470D01*
X180813879Y-66533119D01*
X180808501Y-66517826D01*
X180806355Y-66502797D01*
X180805733Y-66488538D01*
X180799909Y-66464736D01*
X180789553Y-66442528D01*
X180775064Y-66422766D01*
X180756998Y-66406211D01*
X180755104Y-66405061D01*
X180727958Y-66346846D01*
X180727957Y-66346846D01*
X180262232Y-65348095D01*
X180234740Y-65289138D01*
X180235489Y-65275430D01*
X180232027Y-65251172D01*
X180223899Y-65228055D01*
X180211417Y-65206968D01*
X180195061Y-65188722D01*
X180190875Y-65185248D01*
X180183025Y-65176491D01*
X180174768Y-65162542D01*
X179947510Y-64675187D01*
X179941398Y-64657807D01*
X179936765Y-64646447D01*
X179928984Y-64629761D01*
X179921556Y-64608642D01*
X179901178Y-64525360D01*
X179898014Y-64503203D01*
X179894274Y-64417547D01*
X179895494Y-64395193D01*
X179908536Y-64310460D01*
X179914095Y-64288771D01*
X179943420Y-64208203D01*
X179946088Y-64202640D01*
X179950432Y-64193583D01*
X179950435Y-64193577D01*
X179953103Y-64188016D01*
X179997576Y-64114725D01*
X180011015Y-64096810D01*
X180068937Y-64033601D01*
X180085603Y-64018661D01*
X180154743Y-63967965D01*
X180160049Y-63964824D01*
X180160054Y-63964820D01*
X180168699Y-63959702D01*
X180168704Y-63959700D01*
X180174009Y-63956559D01*
X180190729Y-63948763D01*
X180201593Y-63943032D01*
X180203437Y-63941940D01*
X180203446Y-63941932D01*
X180212099Y-63936808D01*
X180212125Y-63936796D01*
X180217416Y-63933663D01*
X180659435Y-63727546D01*
X180665245Y-63725503D01*
X180665253Y-63725499D01*
X180674730Y-63722167D01*
X180674731Y-63722167D01*
X180676812Y-63721435D01*
X180688170Y-63716802D01*
X180704863Y-63709018D01*
X180710683Y-63706971D01*
X180710688Y-63706969D01*
X180717267Y-63704656D01*
X180725988Y-63701589D01*
X180809267Y-63681211D01*
X180831424Y-63678047D01*
X180917081Y-63674307D01*
X180939435Y-63675527D01*
G37*
G36*
X174971860Y-59973391D02*
G01*
X174992479Y-59979646D01*
X175011475Y-59989799D01*
X175032896Y-60007379D01*
X175392621Y-60367104D01*
X175410201Y-60388525D01*
X175420354Y-60407521D01*
X175426609Y-60428140D01*
X175428720Y-60449578D01*
X175426609Y-60471016D01*
X175420354Y-60491635D01*
X175410201Y-60510631D01*
X175392621Y-60532052D01*
X175068252Y-60856421D01*
X175046831Y-60874001D01*
X175027835Y-60884154D01*
X175007216Y-60890409D01*
X174985778Y-60892520D01*
X174964340Y-60890409D01*
X174943721Y-60884154D01*
X174924725Y-60874001D01*
X174903304Y-60856421D01*
X174543579Y-60496696D01*
X174525999Y-60475275D01*
X174515846Y-60456279D01*
X174509591Y-60435660D01*
X174507480Y-60414222D01*
X174509591Y-60392784D01*
X174515846Y-60372165D01*
X174525999Y-60353169D01*
X174543579Y-60331748D01*
X174867948Y-60007379D01*
X174889369Y-59989799D01*
X174908365Y-59979646D01*
X174928984Y-59973391D01*
X174950422Y-59971280D01*
X174971860Y-59973391D01*
G37*
G36*
X175657754Y-59287497D02*
G01*
X175678373Y-59293752D01*
X175697369Y-59303905D01*
X175718790Y-59321485D01*
X176078515Y-59681210D01*
X176096095Y-59702631D01*
X176106248Y-59721627D01*
X176112503Y-59742246D01*
X176114614Y-59763684D01*
X176112503Y-59785122D01*
X176106248Y-59805741D01*
X176096095Y-59824737D01*
X176078515Y-59846158D01*
X175754146Y-60170527D01*
X175732725Y-60188107D01*
X175713729Y-60198260D01*
X175693110Y-60204515D01*
X175671672Y-60206626D01*
X175650234Y-60204515D01*
X175629615Y-60198260D01*
X175610619Y-60188107D01*
X175589198Y-60170527D01*
X175229473Y-59810802D01*
X175211893Y-59789381D01*
X175201740Y-59770385D01*
X175195485Y-59749766D01*
X175193374Y-59728328D01*
X175195485Y-59706890D01*
X175201740Y-59686271D01*
X175211893Y-59667275D01*
X175229473Y-59645854D01*
X175553842Y-59321485D01*
X175575263Y-59303905D01*
X175594259Y-59293752D01*
X175614878Y-59287497D01*
X175636316Y-59285386D01*
X175657754Y-59287497D01*
G37*
G36*
X177001860Y-58133391D02*
G01*
X177022479Y-58139646D01*
X177041475Y-58149799D01*
X177062896Y-58167379D01*
X177422621Y-58527104D01*
X177440201Y-58548525D01*
X177450354Y-58567521D01*
X177456609Y-58588140D01*
X177458720Y-58609578D01*
X177456609Y-58631016D01*
X177450354Y-58651635D01*
X177440201Y-58670631D01*
X177422621Y-58692052D01*
X177098252Y-59016421D01*
X177076831Y-59034001D01*
X177057835Y-59044154D01*
X177037216Y-59050409D01*
X177015778Y-59052520D01*
X176994340Y-59050409D01*
X176973721Y-59044154D01*
X176954725Y-59034001D01*
X176933304Y-59016421D01*
X176573579Y-58656696D01*
X176555999Y-58635275D01*
X176545846Y-58616279D01*
X176539591Y-58595660D01*
X176537480Y-58574222D01*
X176539591Y-58552784D01*
X176545846Y-58532165D01*
X176555999Y-58513169D01*
X176573579Y-58491748D01*
X176897948Y-58167379D01*
X176919369Y-58149799D01*
X176938365Y-58139646D01*
X176958984Y-58133391D01*
X176980422Y-58131280D01*
X177001860Y-58133391D01*
G37*
G36*
X177687754Y-57447497D02*
G01*
X177708373Y-57453752D01*
X177727369Y-57463905D01*
X177748790Y-57481485D01*
X178108515Y-57841210D01*
X178126095Y-57862631D01*
X178136248Y-57881627D01*
X178142503Y-57902246D01*
X178144614Y-57923684D01*
X178142503Y-57945122D01*
X178136248Y-57965741D01*
X178126095Y-57984737D01*
X178108515Y-58006158D01*
X177784146Y-58330527D01*
X177762725Y-58348107D01*
X177743729Y-58358260D01*
X177723110Y-58364515D01*
X177701672Y-58366626D01*
X177680234Y-58364515D01*
X177659615Y-58358260D01*
X177640619Y-58348107D01*
X177619198Y-58330527D01*
X177259473Y-57970802D01*
X177241893Y-57949381D01*
X177231740Y-57930385D01*
X177225485Y-57909766D01*
X177223374Y-57888328D01*
X177225485Y-57866890D01*
X177231740Y-57846271D01*
X177241893Y-57827275D01*
X177259473Y-57805854D01*
X177583842Y-57481485D01*
X177605263Y-57463905D01*
X177624259Y-57453752D01*
X177644878Y-57447497D01*
X177666316Y-57445386D01*
X177687754Y-57447497D01*
G37*
G36*
X170609355Y-54060112D02*
G01*
X170741477Y-54114839D01*
X170741479Y-54114840D01*
X170860387Y-54194292D01*
X170961510Y-54295415D01*
X170961511Y-54295417D01*
X171040963Y-54414325D01*
X171095690Y-54546447D01*
X171123589Y-54686707D01*
X171123589Y-54829719D01*
X171095690Y-54969979D01*
X171040963Y-55102101D01*
X171040962Y-55102103D01*
X170961510Y-55221011D01*
X170860387Y-55322134D01*
X170741479Y-55401586D01*
X170741478Y-55401587D01*
X170741477Y-55401587D01*
X170609355Y-55456314D01*
X170469095Y-55484213D01*
X170326083Y-55484213D01*
X170185823Y-55456314D01*
X170053701Y-55401587D01*
X170053700Y-55401587D01*
X170053699Y-55401586D01*
X169934791Y-55322134D01*
X169833668Y-55221011D01*
X169754216Y-55102103D01*
X169754215Y-55102101D01*
X169699488Y-54969979D01*
X169671589Y-54829719D01*
X169671589Y-54686707D01*
X169699488Y-54546447D01*
X169754215Y-54414325D01*
X169833667Y-54295417D01*
X169833668Y-54295415D01*
X169934791Y-54194292D01*
X170053699Y-54114840D01*
X170053701Y-54114839D01*
X170185823Y-54060112D01*
X170326083Y-54032213D01*
X170469095Y-54032213D01*
X170609355Y-54060112D01*
G37*
G36*
X169012084Y-52856482D02*
G01*
X169144206Y-52911209D01*
X169144208Y-52911210D01*
X169263116Y-52990662D01*
X169364239Y-53091785D01*
X169364240Y-53091787D01*
X169443692Y-53210695D01*
X169498419Y-53342817D01*
X169526318Y-53483077D01*
X169526318Y-53626089D01*
X169498419Y-53766349D01*
X169448467Y-53886942D01*
X169443691Y-53898473D01*
X169364239Y-54017381D01*
X169263116Y-54118504D01*
X169144208Y-54197956D01*
X169144207Y-54197957D01*
X169144206Y-54197957D01*
X169012084Y-54252684D01*
X168871824Y-54280583D01*
X168728812Y-54280583D01*
X168588552Y-54252684D01*
X168456430Y-54197957D01*
X168456429Y-54197957D01*
X168456428Y-54197956D01*
X168337520Y-54118504D01*
X168236397Y-54017381D01*
X168156945Y-53898473D01*
X168152169Y-53886942D01*
X168102217Y-53766349D01*
X168074318Y-53626089D01*
X168074318Y-53483077D01*
X168102217Y-53342817D01*
X168156944Y-53210695D01*
X168236396Y-53091787D01*
X168236397Y-53091785D01*
X168337520Y-52990662D01*
X168456428Y-52911210D01*
X168456430Y-52911209D01*
X168588552Y-52856482D01*
X168728812Y-52828583D01*
X168871824Y-52828583D01*
X169012084Y-52856482D01*
G37*
G36*
X171812985Y-52462841D02*
G01*
X171945107Y-52517568D01*
X171945109Y-52517569D01*
X172064017Y-52597021D01*
X172165140Y-52698144D01*
X172165141Y-52698146D01*
X172244593Y-52817054D01*
X172299320Y-52949176D01*
X172327219Y-53089436D01*
X172327219Y-53232448D01*
X172299320Y-53372708D01*
X172253603Y-53483077D01*
X172244592Y-53504832D01*
X172165140Y-53623740D01*
X172064017Y-53724863D01*
X171945109Y-53804315D01*
X171945108Y-53804316D01*
X171945107Y-53804316D01*
X171812985Y-53859043D01*
X171672725Y-53886942D01*
X171529713Y-53886942D01*
X171389453Y-53859043D01*
X171257331Y-53804316D01*
X171257330Y-53804316D01*
X171257329Y-53804315D01*
X171138421Y-53724863D01*
X171037298Y-53623740D01*
X170957846Y-53504832D01*
X170948835Y-53483077D01*
X170903118Y-53372708D01*
X170875219Y-53232448D01*
X170875219Y-53089436D01*
X170903118Y-52949176D01*
X170957845Y-52817054D01*
X171037297Y-52698146D01*
X171037298Y-52698144D01*
X171138421Y-52597021D01*
X171257329Y-52517569D01*
X171257331Y-52517568D01*
X171389453Y-52462841D01*
X171529713Y-52434942D01*
X171672725Y-52434942D01*
X171812985Y-52462841D01*
G37*
G36*
X168219774Y-52208061D02*
G01*
X167345939Y-53367680D01*
X166186320Y-52493845D01*
X167060155Y-51334226D01*
X168219774Y-52208061D01*
G37*
G36*
X170215714Y-51259211D02*
G01*
X170347836Y-51313938D01*
X170347838Y-51313939D01*
X170466746Y-51393391D01*
X170567869Y-51494514D01*
X170567870Y-51494516D01*
X170647322Y-51613424D01*
X170702049Y-51745546D01*
X170729948Y-51885806D01*
X170729948Y-52028818D01*
X170702049Y-52169078D01*
X170647322Y-52301200D01*
X170647321Y-52301202D01*
X170567869Y-52420110D01*
X170466746Y-52521233D01*
X170347838Y-52600685D01*
X170347837Y-52600686D01*
X170347836Y-52600686D01*
X170215714Y-52655413D01*
X170075454Y-52683312D01*
X169932442Y-52683312D01*
X169792182Y-52655413D01*
X169660060Y-52600686D01*
X169660059Y-52600686D01*
X169660058Y-52600685D01*
X169541150Y-52521233D01*
X169440027Y-52420110D01*
X169360575Y-52301202D01*
X169360574Y-52301200D01*
X169305847Y-52169078D01*
X169277948Y-52028818D01*
X169277948Y-51885806D01*
X169305847Y-51745546D01*
X169360574Y-51613424D01*
X169440026Y-51494516D01*
X169440027Y-51494514D01*
X169541150Y-51393391D01*
X169660058Y-51313939D01*
X169660060Y-51313938D01*
X169792182Y-51259211D01*
X169932442Y-51231312D01*
X170075454Y-51231312D01*
X170215714Y-51259211D01*
G37*
G36*
X168618443Y-50055581D02*
G01*
X168750565Y-50110308D01*
X168750567Y-50110309D01*
X168869475Y-50189761D01*
X168970598Y-50290884D01*
X168970599Y-50290886D01*
X169050051Y-50409794D01*
X169104778Y-50541916D01*
X169132677Y-50682176D01*
X169132677Y-50825188D01*
X169104778Y-50965448D01*
X169050051Y-51097570D01*
X169050050Y-51097572D01*
X168970598Y-51216480D01*
X168869475Y-51317603D01*
X168750567Y-51397055D01*
X168750566Y-51397056D01*
X168750565Y-51397056D01*
X168618443Y-51451783D01*
X168478183Y-51479682D01*
X168335171Y-51479682D01*
X168194911Y-51451783D01*
X168062789Y-51397056D01*
X168062788Y-51397056D01*
X168062787Y-51397055D01*
X167943879Y-51317603D01*
X167842756Y-51216480D01*
X167763304Y-51097572D01*
X167763303Y-51097570D01*
X167708576Y-50965448D01*
X167680677Y-50825188D01*
X167680677Y-50682176D01*
X167708576Y-50541916D01*
X167763303Y-50409794D01*
X167842755Y-50290886D01*
X167842756Y-50290884D01*
X167943879Y-50189761D01*
X168062787Y-50110309D01*
X168062789Y-50110308D01*
X168194911Y-50055581D01*
X168335171Y-50027682D01*
X168478183Y-50027682D01*
X168618443Y-50055581D01*
G37*
G36*
X145152935Y-41840735D02*
G01*
X145264120Y-41862851D01*
X145473589Y-41949616D01*
X145662106Y-42075579D01*
X145822426Y-42235899D01*
X145948389Y-42424416D01*
X146035154Y-42633885D01*
X146079386Y-42856255D01*
X146079386Y-43082983D01*
X146035154Y-43305353D01*
X145948389Y-43514822D01*
X145822426Y-43703339D01*
X145662106Y-43863659D01*
X145473589Y-43989622D01*
X145264120Y-44076387D01*
X145152935Y-44098503D01*
X145041751Y-44120619D01*
X144815021Y-44120619D01*
X144703837Y-44098503D01*
X144592652Y-44076387D01*
X144383183Y-43989622D01*
X144194666Y-43863659D01*
X144034346Y-43703339D01*
X143908383Y-43514822D01*
X143821618Y-43305353D01*
X143777386Y-43082983D01*
X143777386Y-42856255D01*
X143821618Y-42633885D01*
X143908383Y-42424416D01*
X144034346Y-42235899D01*
X144194666Y-42075579D01*
X144383183Y-41949616D01*
X144592652Y-41862851D01*
X144703837Y-41840735D01*
X144815021Y-41818619D01*
X145041751Y-41818619D01*
X145152935Y-41840735D01*
G37*
M02*
