G04 #@! TF.GenerationSoftware,KiCad,Pcbnew,(5.1.5)-3*
G04 #@! TF.CreationDate,2020-01-15T14:34:41+01:00*
G04 #@! TF.ProjectId,ring_pcb_5mm_leds,72696e67-5f70-4636-925f-356d6d5f6c65,rev?*
G04 #@! TF.SameCoordinates,Original*
G04 #@! TF.FileFunction,Copper,L2,Bot*
G04 #@! TF.FilePolarity,Positive*
%FSLAX46Y46*%
G04 Gerber Fmt 4.6, Leading zero omitted, Abs format (unit mm)*
G04 Created by KiCad (PCBNEW (5.1.5)-3) date 2020-01-15 14:34:41*
%MOMM*%
%LPD*%
G04 APERTURE LIST*
%ADD10C,1.350000*%
%ADD11C,0.100000*%
%ADD12C,1.800000*%
%ADD13R,1.800000X1.800000*%
%ADD14C,0.600000*%
%ADD15C,0.250000*%
%ADD16C,0.254000*%
G04 APERTURE END LIST*
D10*
X171601219Y-53160942D02*
X171601219Y-53160942D01*
X170397589Y-54758213D02*
X170397589Y-54758213D01*
X170003948Y-51957312D02*
X170003948Y-51957312D01*
X168800318Y-53554583D02*
X168800318Y-53554583D01*
X168406677Y-50753682D02*
X168406677Y-50753682D01*
G04 #@! TA.AperFunction,ComponentPad*
D11*
G36*
X167335901Y-53296257D02*
G01*
X166257743Y-52483807D01*
X167070193Y-51405649D01*
X168148351Y-52218099D01*
X167335901Y-53296257D01*
G37*
G04 #@! TD.AperFunction*
D12*
X117926800Y-112951634D03*
G04 #@! TA.AperFunction,ComponentPad*
D11*
G36*
X114713098Y-111429884D02*
G01*
X115870116Y-110051004D01*
X117248996Y-111208022D01*
X116091978Y-112586902D01*
X114713098Y-111429884D01*
G37*
G04 #@! TD.AperFunction*
D12*
X173817098Y-111242902D03*
G04 #@! TA.AperFunction,ComponentPad*
D11*
G36*
X172021047Y-114311745D02*
G01*
X170748255Y-113038953D01*
X172021047Y-111766161D01*
X173293839Y-113038953D01*
X172021047Y-114311745D01*
G37*
G04 #@! TD.AperFunction*
D12*
X125000752Y-118158953D03*
G04 #@! TA.AperFunction,ComponentPad*
D11*
G36*
X121571624Y-117218376D02*
G01*
X122471624Y-115659530D01*
X124030470Y-116559530D01*
X123130470Y-118118376D01*
X121571624Y-117218376D01*
G37*
G04 #@! TD.AperFunction*
D12*
X166971693Y-116822069D03*
G04 #@! TA.AperFunction,ComponentPad*
D11*
G36*
X164670029Y-119532409D02*
G01*
X163637591Y-118057935D01*
X165112065Y-117025497D01*
X166144503Y-118499971D01*
X164670029Y-119532409D01*
G37*
G04 #@! TD.AperFunction*
D12*
X132136731Y-121353856D03*
G04 #@! TA.AperFunction,ComponentPad*
D11*
G36*
X128586981Y-121146789D02*
G01*
X129143211Y-119434887D01*
X130855113Y-119991117D01*
X130298883Y-121703019D01*
X128586981Y-121146789D01*
G37*
G04 #@! TD.AperFunction*
D12*
X160132664Y-120602010D03*
G04 #@! TA.AperFunction,ComponentPad*
D11*
G36*
X157173092Y-122572931D02*
G01*
X156587069Y-120870998D01*
X158289002Y-120284975D01*
X158875025Y-121986908D01*
X157173092Y-122572931D01*
G37*
G04 #@! TD.AperFunction*
D12*
X139189775Y-122986297D03*
G04 #@! TA.AperFunction,ComponentPad*
D11*
G36*
X135651336Y-123337081D02*
G01*
X135932919Y-121559242D01*
X137710758Y-121840825D01*
X137429175Y-123618664D01*
X135651336Y-123337081D01*
G37*
G04 #@! TD.AperFunction*
D12*
X153172114Y-122639405D03*
G04 #@! TA.AperFunction,ComponentPad*
D11*
G36*
X149867438Y-123951927D02*
G01*
X149648073Y-122165344D01*
X151434656Y-121945979D01*
X151654021Y-123732562D01*
X149867438Y-123951927D01*
G37*
G04 #@! TD.AperFunction*
D12*
X146201047Y-123478953D03*
D13*
X143661047Y-123478953D03*
D14*
X182535047Y-103468953D03*
X182800047Y-101939953D03*
X180191047Y-104388953D03*
X179721047Y-103198953D03*
X179161047Y-102078953D03*
X178551047Y-103728953D03*
X183581047Y-98918953D03*
X180801047Y-102698953D03*
X177521047Y-109375953D03*
X177573047Y-107161953D03*
X175353047Y-105984953D03*
X176132047Y-102918953D03*
X178237047Y-99736953D03*
X178271047Y-61188953D03*
X176788047Y-101779953D03*
X175991047Y-62298953D03*
D15*
X182734047Y-102821953D02*
X182783047Y-102463953D01*
X182783047Y-102463953D02*
X182800047Y-101939953D01*
X182535047Y-103468953D02*
X182662047Y-103107953D01*
X182662047Y-103107953D02*
X182734047Y-102821953D01*
X139847047Y-126093953D02*
X139265047Y-125510953D01*
X145047047Y-126472953D02*
X142638047Y-126361953D01*
X146066047Y-126384953D02*
X145047047Y-126472953D01*
X150947047Y-125872953D02*
X149679047Y-125974953D01*
X153321047Y-125554953D02*
X150947047Y-125872953D01*
X170743057Y-118098943D02*
X169782047Y-118854953D01*
X158271047Y-124112953D02*
X157444047Y-124470953D01*
X171284047Y-117749953D02*
X170743057Y-118098943D01*
X167468047Y-120375953D02*
X166281047Y-120944953D01*
X171648069Y-117519943D02*
X171284047Y-117749953D01*
X142638047Y-126361953D02*
X140823047Y-126268953D01*
X174072047Y-115321953D02*
X171648069Y-117519943D01*
X177576047Y-110536953D02*
X177464047Y-111081953D01*
X174412047Y-114988953D02*
X174072047Y-115321953D01*
X177464047Y-111081953D02*
X176887047Y-112351953D01*
X163070047Y-122431953D02*
X162029047Y-122804953D01*
X155889047Y-125012953D02*
X154252047Y-125319953D01*
X139265047Y-125510953D02*
X139165542Y-123117049D01*
X175609047Y-113953953D02*
X174412047Y-114988953D01*
X149679047Y-125974953D02*
X146066047Y-126384953D01*
X157444047Y-124470953D02*
X155889047Y-125012953D01*
X140823047Y-126268953D02*
X139847047Y-126093953D01*
X176887047Y-112351953D02*
X175960047Y-113581953D01*
X177521047Y-109375953D02*
X177576047Y-110536953D01*
X175960047Y-113581953D02*
X175609047Y-113953953D01*
X169782047Y-118854953D02*
X167468047Y-120375953D01*
X154252047Y-125319953D02*
X153321047Y-125554953D01*
X166281047Y-120944953D02*
X165429047Y-121356953D01*
X164221047Y-121974953D02*
X163070047Y-122431953D01*
X164626047Y-121785953D02*
X164221047Y-121974953D01*
X162029047Y-122804953D02*
X160661047Y-123291953D01*
X165429047Y-121356953D02*
X164626047Y-121785953D01*
X160661047Y-123291953D02*
X158271047Y-124112953D01*
X131676047Y-123209953D02*
X132136731Y-121353856D01*
X131618047Y-123471953D02*
X131676047Y-123209953D01*
X131866047Y-124039953D02*
X131618047Y-123471953D01*
X132317047Y-124636953D02*
X131866047Y-124039953D01*
X134866047Y-125685953D02*
X132317047Y-124636953D01*
X138492047Y-126488953D02*
X136438047Y-126163953D01*
X139501047Y-126581953D02*
X138492047Y-126488953D01*
X143302047Y-126950953D02*
X140226047Y-126680953D01*
X144268047Y-126936953D02*
X143302047Y-126950953D01*
X145469047Y-126979953D02*
X144268047Y-126936953D01*
X150315047Y-126568953D02*
X146290047Y-126926953D01*
X153904047Y-126045953D02*
X151510047Y-126434953D01*
X151510047Y-126434953D02*
X150315047Y-126568953D01*
X156687047Y-125340953D02*
X155613047Y-125616953D01*
X158621047Y-124613953D02*
X157792047Y-124951953D01*
X171793047Y-117869953D02*
X171358047Y-118191953D01*
X177757047Y-112231953D02*
X177101047Y-112964953D01*
X140226047Y-126680953D02*
X139501047Y-126581953D01*
X174717047Y-115351953D02*
X174285047Y-115790953D01*
X176808047Y-113260953D02*
X174717047Y-115351953D01*
X178226047Y-111430953D02*
X177757047Y-112231953D01*
X177101047Y-112964953D02*
X176808047Y-113260953D01*
X163937047Y-122613953D02*
X163169047Y-122950953D01*
X177877047Y-107816953D02*
X178183047Y-108783953D01*
X136438047Y-126163953D02*
X134866047Y-125685953D01*
X178318047Y-110980953D02*
X178226047Y-111430953D01*
X177573047Y-107161953D02*
X177877047Y-107816953D01*
X178183047Y-108783953D02*
X178318047Y-110980953D01*
X155613047Y-125616953D02*
X154631047Y-125851953D01*
X162222047Y-123285953D02*
X160477047Y-123930953D01*
X174285047Y-115790953D02*
X171793047Y-117869953D01*
X171358047Y-118191953D02*
X171002047Y-118448953D01*
X164931047Y-122208953D02*
X163937047Y-122613953D01*
X171002047Y-118448953D02*
X170165047Y-119105953D01*
X157792047Y-124951953D02*
X156687047Y-125340953D01*
X170165047Y-119105953D02*
X169012047Y-119921953D01*
X166437047Y-121349953D02*
X164931047Y-122208953D01*
X154631047Y-125851953D02*
X153904047Y-126045953D01*
X169012047Y-119921953D02*
X168500047Y-120254953D01*
X167574047Y-120788953D02*
X166437047Y-121349953D01*
X160477047Y-123930953D02*
X158621047Y-124613953D01*
X168500047Y-120254953D02*
X167574047Y-120788953D01*
X146290047Y-126926953D02*
X145469047Y-126979953D01*
X163169047Y-122950953D02*
X162222047Y-123285953D01*
X131872047Y-118074953D02*
X127798047Y-117360953D01*
X133345047Y-118514953D02*
X131872047Y-118074953D01*
X135811047Y-119271953D02*
X133345047Y-118514953D01*
X163463047Y-115598953D02*
X161611047Y-116518953D01*
X164957047Y-114789953D02*
X163463047Y-115598953D01*
X166696047Y-113633953D02*
X164957047Y-114789953D01*
X167903047Y-112815953D02*
X166696047Y-113633953D01*
X127798047Y-117360953D02*
X125000752Y-118158953D01*
X174724047Y-106394953D02*
X174065047Y-106940953D01*
X170883047Y-110105953D02*
X167903047Y-112815953D01*
X145908047Y-120368953D02*
X141746047Y-120282953D01*
X174065047Y-106940953D02*
X173146047Y-107757953D01*
X173146047Y-107757953D02*
X172496047Y-108489953D01*
X175353047Y-105984953D02*
X174724047Y-106394953D01*
X171263047Y-109671953D02*
X170883047Y-110105953D01*
X141746047Y-120282953D02*
X140313047Y-120101953D01*
X137499047Y-119629953D02*
X135811047Y-119271953D01*
X161611047Y-116518953D02*
X159572047Y-117395953D01*
X159572047Y-117395953D02*
X157866047Y-118205953D01*
X157866047Y-118205953D02*
X156417047Y-118757953D01*
X156417047Y-118757953D02*
X154772047Y-119236953D01*
X154772047Y-119236953D02*
X152095047Y-119838953D01*
X152095047Y-119838953D02*
X150720047Y-120059953D01*
X150720047Y-120059953D02*
X148189035Y-120369953D01*
X148189035Y-120369953D02*
X145908047Y-120368953D01*
X172496047Y-108489953D02*
X171263047Y-109671953D01*
X140313047Y-120101953D02*
X137499047Y-119629953D01*
X120804047Y-112654953D02*
X117926800Y-112951634D01*
X121746047Y-112736953D02*
X120804047Y-112654953D01*
X123192047Y-113380953D02*
X121746047Y-112736953D01*
X123805047Y-113763953D02*
X123192047Y-113380953D01*
X124754047Y-114272953D02*
X123805047Y-113763953D01*
X126540047Y-115171953D02*
X124754047Y-114272953D01*
X128697047Y-116349953D02*
X126540047Y-115171953D01*
X130910047Y-117112953D02*
X128697047Y-116349953D01*
X131923047Y-117521953D02*
X130910047Y-117112953D01*
X132824047Y-117808953D02*
X131923047Y-117521953D01*
X133857047Y-118237953D02*
X132824047Y-117808953D01*
X135979047Y-118812953D02*
X133857047Y-118237953D01*
X136801047Y-119045953D02*
X135979047Y-118812953D01*
X162912047Y-115221953D02*
X162523047Y-115456953D01*
X169836047Y-110148953D02*
X169806047Y-110148953D01*
X165130047Y-114017953D02*
X164651047Y-114312953D01*
X166174047Y-113269953D02*
X165623047Y-113696953D01*
X166763047Y-112863953D02*
X166174047Y-113269953D01*
X158317047Y-117425953D02*
X157949047Y-117572953D01*
X167291047Y-112507953D02*
X166763047Y-112863953D01*
X164651047Y-114312953D02*
X163997047Y-114648953D01*
X167684047Y-112213953D02*
X167291047Y-112507953D01*
X168036047Y-111920953D02*
X167684047Y-112213953D01*
X163373047Y-114955953D02*
X162912047Y-115221953D01*
X174345047Y-105334953D02*
X172432047Y-107529953D01*
X163997047Y-114648953D02*
X163373047Y-114955953D01*
X174630047Y-104992953D02*
X174345047Y-105334953D01*
X175378047Y-103988953D02*
X174630047Y-104992953D01*
X170504047Y-109482953D02*
X170502047Y-109482953D01*
X168109047Y-111845953D02*
X168036047Y-111920953D01*
X156955047Y-118001953D02*
X156574047Y-118137953D01*
X176132047Y-102918953D02*
X175839047Y-103362953D01*
X165623047Y-113696953D02*
X165130047Y-114017953D01*
X172432047Y-107529953D02*
X171967047Y-108019953D01*
X171967047Y-108019953D02*
X170504047Y-109482953D01*
X175839047Y-103362953D02*
X175378047Y-103988953D01*
X170502047Y-109482953D02*
X169836047Y-110148953D01*
X169806047Y-110148953D02*
X168109047Y-111845953D01*
X162523047Y-115456953D02*
X161746047Y-115804953D01*
X161746047Y-115804953D02*
X161053047Y-116184953D01*
X157740047Y-117683953D02*
X157345047Y-117861953D01*
X161053047Y-116184953D02*
X160309047Y-116523953D01*
X151371047Y-119420953D02*
X150622047Y-119531953D01*
X160309047Y-116523953D02*
X159890047Y-116743953D01*
X159890047Y-116743953D02*
X159381047Y-116928953D01*
X159381047Y-116928953D02*
X158317047Y-117425953D01*
X157345047Y-117861953D02*
X156955047Y-118001953D01*
X157949047Y-117572953D02*
X157740047Y-117683953D01*
X156574047Y-118137953D02*
X155862047Y-118370953D01*
X155862047Y-118370953D02*
X154904047Y-118702953D01*
X154904047Y-118702953D02*
X154217047Y-118849953D01*
X154217047Y-118849953D02*
X153013047Y-119095953D01*
X150622047Y-119531953D02*
X148854047Y-119752953D01*
X153013047Y-119095953D02*
X152194047Y-119248953D01*
X152194047Y-119248953D02*
X151371047Y-119420953D01*
X148854047Y-119752953D02*
X147172047Y-119924953D01*
X147172047Y-119924953D02*
X143698047Y-119913953D01*
X143698047Y-119913953D02*
X141982047Y-119819953D01*
X141982047Y-119819953D02*
X138459047Y-119389953D01*
X138459047Y-119389953D02*
X136801047Y-119045953D01*
X180721047Y-72458953D02*
X181239047Y-74224953D01*
X179221047Y-67678953D02*
X179811047Y-69308953D01*
X180101047Y-70218953D02*
X180381047Y-71348953D01*
X179811047Y-69308953D02*
X180101047Y-70218953D01*
X178653047Y-98980953D02*
X178237047Y-99736953D01*
X179101047Y-67008953D02*
X179221047Y-67678953D01*
X178601047Y-63218953D02*
X178711047Y-64208953D01*
X182036047Y-86040953D02*
X181702047Y-89096953D01*
X180381047Y-71348953D02*
X180721047Y-72458953D01*
X178331047Y-61718953D02*
X178491047Y-62428953D01*
X179219047Y-97666953D02*
X178653047Y-98980953D01*
X178271047Y-61188953D02*
X178331047Y-61718953D01*
X178491047Y-62428953D02*
X178601047Y-63218953D01*
X178711047Y-64208953D02*
X179101047Y-67008953D01*
X181797047Y-78162953D02*
X181889047Y-79602953D01*
X181551047Y-76282953D02*
X181730047Y-77682953D01*
X181239047Y-74224953D02*
X181551047Y-76282953D01*
X181730047Y-77682953D02*
X181797047Y-78162953D01*
X181889047Y-79602953D02*
X181996047Y-81824953D01*
X181996047Y-81824953D02*
X182049047Y-83350953D01*
X182049047Y-83350953D02*
X182036047Y-86040953D01*
X181702047Y-89096953D02*
X180454047Y-94163953D01*
X180454047Y-94163953D02*
X179563047Y-96784953D01*
X179563047Y-96784953D02*
X179219047Y-97666953D01*
X176211047Y-62688953D02*
X175991047Y-62298953D01*
X176421047Y-63138953D02*
X176211047Y-62688953D01*
X176621047Y-63588953D02*
X176421047Y-63138953D01*
X176941047Y-64268953D02*
X176621047Y-63588953D01*
X177171047Y-64698953D02*
X176941047Y-64268953D01*
X177321047Y-65038953D02*
X177171047Y-64698953D01*
X177501047Y-65568953D02*
X177321047Y-65038953D01*
X177681047Y-66088953D02*
X177501047Y-65568953D01*
X177841047Y-66508953D02*
X177681047Y-66088953D01*
X178131047Y-67378953D02*
X177841047Y-66508953D01*
X178377047Y-68234953D02*
X178131047Y-67378953D01*
X179018444Y-69969350D02*
X178377047Y-68234953D01*
X180741194Y-90645099D02*
X180804041Y-90342660D01*
X180746292Y-90650198D02*
X180741194Y-90645099D01*
X181063047Y-77322953D02*
X180971047Y-76715953D01*
X180405047Y-92226953D02*
X180746292Y-90650198D01*
X180248047Y-92816953D02*
X180405047Y-92226953D01*
X181376047Y-86993953D02*
X181491047Y-85036953D01*
X179582567Y-94916712D02*
X179885047Y-94125953D01*
X178869536Y-96850421D02*
X179146047Y-96179953D01*
X176976047Y-100957953D02*
X177153047Y-100559953D01*
X179419280Y-95391923D02*
X179582567Y-94916712D01*
X178867706Y-96851221D02*
X178869536Y-96850421D01*
X180971047Y-76715953D02*
X180790047Y-75865953D01*
X178724445Y-97206281D02*
X178867706Y-96851221D01*
X178722608Y-97207061D02*
X178724445Y-97206281D01*
X177153047Y-100559953D02*
X177284027Y-100335933D01*
X179885047Y-94125953D02*
X180248047Y-92816953D01*
X179146047Y-96179953D02*
X179419280Y-95391923D01*
X176855047Y-101175953D02*
X176976047Y-100957953D01*
X178051047Y-98901953D02*
X178347047Y-98210953D01*
X181491047Y-85036953D02*
X181513047Y-84584953D01*
X176788047Y-101779953D02*
X176788047Y-101355689D01*
X177445047Y-100055953D02*
X177755047Y-99493953D01*
X178585047Y-97537934D02*
X178722608Y-97207061D01*
X176788047Y-101355689D02*
X176855047Y-101175953D01*
X180314184Y-73965124D02*
X180119047Y-73141953D01*
X177284027Y-100335933D02*
X177445047Y-100055953D01*
X181187456Y-88073866D02*
X181376047Y-86993953D01*
X177755047Y-99493953D02*
X178051047Y-98901953D01*
X178347047Y-98210953D02*
X178585047Y-97537934D01*
X180804041Y-90342660D02*
X180802946Y-90340991D01*
X180802946Y-90340991D02*
X181025047Y-89264953D01*
X181025047Y-89264953D02*
X181187456Y-88073866D01*
X181513047Y-84584953D02*
X181504098Y-82627004D01*
X181504098Y-82627004D02*
X181498000Y-82620906D01*
X181498000Y-82620906D02*
X181494047Y-81612953D01*
X181494047Y-81612953D02*
X181472047Y-80999953D01*
X181472047Y-80999953D02*
X181381047Y-79615953D01*
X181381047Y-79615953D02*
X181187595Y-78427501D01*
X181187595Y-78427501D02*
X181133047Y-77905953D01*
X181133047Y-77905953D02*
X181063047Y-77322953D01*
X179203084Y-70452990D02*
X179096047Y-70165953D01*
X180790047Y-75865953D02*
X180622047Y-75038953D01*
X180622047Y-75038953D02*
X180314184Y-73965124D01*
X180119047Y-73141953D02*
X179940892Y-72642826D01*
X179096047Y-70165953D02*
X179018444Y-69969350D01*
X179940892Y-72642826D02*
X179538047Y-71320953D01*
X179538047Y-71320953D02*
X179203084Y-70452990D01*
D16*
G36*
X148866445Y-39883180D02*
G01*
X151475849Y-40200019D01*
X154061362Y-40673832D01*
X156613550Y-41302890D01*
X159123100Y-42084898D01*
X161580856Y-43017001D01*
X163977848Y-44095800D01*
X166305330Y-45317357D01*
X168554811Y-46677215D01*
X170718081Y-48170413D01*
X172787248Y-49791501D01*
X174754760Y-51534565D01*
X176613440Y-53393245D01*
X178356504Y-55360757D01*
X179977592Y-57429924D01*
X181470790Y-59593194D01*
X182830648Y-61842675D01*
X184052205Y-64170157D01*
X185131004Y-66567149D01*
X186063107Y-69024905D01*
X186845115Y-71534455D01*
X187474173Y-74086643D01*
X187947986Y-76672156D01*
X188264825Y-79281560D01*
X188423534Y-81905334D01*
X188423534Y-84533904D01*
X188264825Y-87157678D01*
X187947986Y-89767082D01*
X187474173Y-92352595D01*
X186845115Y-94904783D01*
X186063107Y-97414333D01*
X185131004Y-99872089D01*
X184052205Y-102269081D01*
X183470047Y-103378290D01*
X183470047Y-103376864D01*
X183434115Y-103196224D01*
X183427536Y-103180341D01*
X183453941Y-103075457D01*
X183455927Y-103071132D01*
X183472195Y-103002948D01*
X183480165Y-102971289D01*
X183480865Y-102966608D01*
X183481964Y-102962002D01*
X183486391Y-102929656D01*
X183496759Y-102860330D01*
X183496531Y-102855574D01*
X183526158Y-102639113D01*
X183526825Y-102637147D01*
X183536283Y-102565138D01*
X183541089Y-102530027D01*
X183541168Y-102527953D01*
X183541436Y-102525909D01*
X183541865Y-102512700D01*
X183628633Y-102382842D01*
X183699115Y-102212682D01*
X183735047Y-102032042D01*
X183735047Y-101847864D01*
X183699115Y-101667224D01*
X183628633Y-101497064D01*
X183526309Y-101343925D01*
X183396075Y-101213691D01*
X183242936Y-101111367D01*
X183072776Y-101040885D01*
X182892136Y-101004953D01*
X182707958Y-101004953D01*
X182527318Y-101040885D01*
X182357158Y-101111367D01*
X182204019Y-101213691D01*
X182073785Y-101343925D01*
X181971461Y-101497064D01*
X181900979Y-101667224D01*
X181865047Y-101847864D01*
X181865047Y-102032042D01*
X181900979Y-102212682D01*
X181971461Y-102382842D01*
X182017610Y-102451910D01*
X181986772Y-102677214D01*
X181976612Y-102717572D01*
X181939019Y-102742691D01*
X181808785Y-102872925D01*
X181706461Y-103026064D01*
X181635979Y-103196224D01*
X181600047Y-103376864D01*
X181600047Y-103561042D01*
X181635979Y-103741682D01*
X181706461Y-103911842D01*
X181808785Y-104064981D01*
X181939019Y-104195215D01*
X182092158Y-104297539D01*
X182262318Y-104368021D01*
X182442958Y-104403953D01*
X182627136Y-104403953D01*
X182807776Y-104368021D01*
X182977936Y-104297539D01*
X182992801Y-104287607D01*
X182830648Y-104596563D01*
X181470790Y-106846044D01*
X179977592Y-109009314D01*
X179032456Y-110215691D01*
X178942767Y-108756084D01*
X178942097Y-108700024D01*
X178930450Y-108644916D01*
X178921502Y-108589310D01*
X178901971Y-108536768D01*
X178620761Y-107648109D01*
X178619163Y-107636771D01*
X178598208Y-107576839D01*
X178590370Y-107552070D01*
X178585891Y-107541612D01*
X178582133Y-107530864D01*
X178571189Y-107507283D01*
X178546200Y-107448937D01*
X178539727Y-107439495D01*
X178491729Y-107336078D01*
X178508047Y-107254042D01*
X178508047Y-107069864D01*
X178472115Y-106889224D01*
X178401633Y-106719064D01*
X178299309Y-106565925D01*
X178169075Y-106435691D01*
X178015936Y-106333367D01*
X177845776Y-106262885D01*
X177665136Y-106226953D01*
X177480958Y-106226953D01*
X177300318Y-106262885D01*
X177130158Y-106333367D01*
X176977019Y-106435691D01*
X176846785Y-106565925D01*
X176744461Y-106719064D01*
X176673979Y-106889224D01*
X176638047Y-107069864D01*
X176638047Y-107254042D01*
X176673979Y-107434682D01*
X176744461Y-107604842D01*
X176846785Y-107757981D01*
X176977019Y-107888215D01*
X177115067Y-107980455D01*
X177167161Y-108092697D01*
X177286341Y-108469322D01*
X177248318Y-108476885D01*
X177078158Y-108547367D01*
X176925019Y-108649691D01*
X176794785Y-108779925D01*
X176692461Y-108933064D01*
X176621979Y-109103224D01*
X176586047Y-109283864D01*
X176586047Y-109468042D01*
X176621979Y-109648682D01*
X176692461Y-109818842D01*
X176787946Y-109961745D01*
X176812379Y-110477521D01*
X176736793Y-110845327D01*
X176229739Y-111961373D01*
X175378417Y-113090961D01*
X175082759Y-113404307D01*
X173925341Y-114405083D01*
X173906937Y-114419869D01*
X173897113Y-114429490D01*
X173886719Y-114438478D01*
X173870470Y-114455585D01*
X173550728Y-114768744D01*
X171186385Y-116912661D01*
X170906622Y-117089431D01*
X170903432Y-117091071D01*
X170875014Y-117109403D01*
X170846524Y-117127405D01*
X170843704Y-117129602D01*
X170332617Y-117459302D01*
X170302496Y-117478540D01*
X170301135Y-117479610D01*
X170299699Y-117480537D01*
X170272024Y-117502512D01*
X169337575Y-118237627D01*
X167093375Y-119712749D01*
X165985025Y-120244048D01*
X165983798Y-120244499D01*
X165951191Y-120260267D01*
X165918864Y-120275763D01*
X165917757Y-120276434D01*
X165118008Y-120663167D01*
X165103851Y-120669028D01*
X165084409Y-120679415D01*
X165064579Y-120689004D01*
X165051515Y-120696989D01*
X164286048Y-121105938D01*
X163919876Y-121276818D01*
X162801574Y-121720836D01*
X161773378Y-122089248D01*
X160410168Y-122574543D01*
X158031493Y-123391653D01*
X158003386Y-123400667D01*
X157996216Y-123403771D01*
X157988830Y-123406308D01*
X157961998Y-123418584D01*
X157167664Y-123762444D01*
X155692833Y-124276501D01*
X154125515Y-124570434D01*
X154102241Y-124573929D01*
X154088842Y-124577311D01*
X154075267Y-124579857D01*
X154052683Y-124586438D01*
X153177126Y-124807444D01*
X150866074Y-125117012D01*
X149642898Y-125215406D01*
X149630447Y-125215591D01*
X149605716Y-125218397D01*
X149580896Y-125220394D01*
X149568635Y-125222605D01*
X145990491Y-125628650D01*
X145031780Y-125711443D01*
X142674979Y-125602849D01*
X140909907Y-125512407D01*
X140216212Y-125388026D01*
X140012094Y-125183558D01*
X139978651Y-124378953D01*
X142122975Y-124378953D01*
X142135235Y-124503435D01*
X142171545Y-124623133D01*
X142230510Y-124733447D01*
X142309862Y-124830138D01*
X142406553Y-124909490D01*
X142516867Y-124968455D01*
X142636565Y-125004765D01*
X142761047Y-125017025D01*
X143375297Y-125013953D01*
X143534047Y-124855203D01*
X143534047Y-123605953D01*
X142284797Y-123605953D01*
X142126047Y-123764703D01*
X142122975Y-124378953D01*
X139978651Y-124378953D01*
X139975672Y-124307306D01*
X140168280Y-124178609D01*
X140382087Y-123964802D01*
X140550074Y-123713392D01*
X140665786Y-123434040D01*
X140724775Y-123137481D01*
X140724775Y-122835113D01*
X140673822Y-122578953D01*
X142122975Y-122578953D01*
X142126047Y-123193203D01*
X142284797Y-123351953D01*
X143534047Y-123351953D01*
X143534047Y-122102703D01*
X143788047Y-122102703D01*
X143788047Y-123351953D01*
X143808047Y-123351953D01*
X143808047Y-123605953D01*
X143788047Y-123605953D01*
X143788047Y-124855203D01*
X143946797Y-125013953D01*
X144561047Y-125017025D01*
X144685529Y-125004765D01*
X144805227Y-124968455D01*
X144915541Y-124909490D01*
X145012232Y-124830138D01*
X145091584Y-124733447D01*
X145150549Y-124623133D01*
X145156103Y-124604826D01*
X145222542Y-124671265D01*
X145473952Y-124839252D01*
X145753304Y-124954964D01*
X146049863Y-125013953D01*
X146352231Y-125013953D01*
X146648790Y-124954964D01*
X146928142Y-124839252D01*
X147179552Y-124671265D01*
X147393359Y-124457458D01*
X147561346Y-124206048D01*
X147677058Y-123926696D01*
X147736047Y-123630137D01*
X147736047Y-123419643D01*
X149162313Y-123419643D01*
X149234122Y-124029688D01*
X149261461Y-124151748D01*
X149312088Y-124266129D01*
X149384057Y-124368435D01*
X149474602Y-124454735D01*
X149580242Y-124521711D01*
X149696920Y-124566793D01*
X149820151Y-124588245D01*
X149945199Y-124585243D01*
X150554496Y-124507336D01*
X150692716Y-124330422D01*
X150540471Y-123090484D01*
X149300533Y-123242729D01*
X149162313Y-123419643D01*
X147736047Y-123419643D01*
X147736047Y-123327769D01*
X147677058Y-123031210D01*
X147561346Y-122751858D01*
X147393359Y-122500448D01*
X147179552Y-122286641D01*
X146928142Y-122118654D01*
X146926701Y-122118057D01*
X149011755Y-122118057D01*
X149014757Y-122243105D01*
X149092664Y-122852402D01*
X149269578Y-122990622D01*
X150509516Y-122838377D01*
X150357271Y-121598439D01*
X150317651Y-121567484D01*
X150609378Y-121567484D01*
X150761623Y-122807422D01*
X150781474Y-122804985D01*
X150812429Y-123057092D01*
X150792578Y-123059529D01*
X150944823Y-124299467D01*
X151121737Y-124437687D01*
X151731782Y-124365878D01*
X151853842Y-124338539D01*
X151968223Y-124287912D01*
X152070529Y-124215943D01*
X152156829Y-124125398D01*
X152223805Y-124019758D01*
X152268887Y-123903080D01*
X152272172Y-123884211D01*
X152445019Y-123999704D01*
X152724371Y-124115416D01*
X153020930Y-124174405D01*
X153323298Y-124174405D01*
X153619857Y-124115416D01*
X153899209Y-123999704D01*
X154150619Y-123831717D01*
X154364426Y-123617910D01*
X154532413Y-123366500D01*
X154648125Y-123087148D01*
X154707114Y-122790589D01*
X154707114Y-122488221D01*
X154649562Y-122198882D01*
X156372707Y-122198882D01*
X156569783Y-122780667D01*
X156621902Y-122894376D01*
X156695204Y-122995731D01*
X156786871Y-123080838D01*
X156893379Y-123146426D01*
X157010637Y-123189976D01*
X157134138Y-123209813D01*
X157259136Y-123205175D01*
X157380828Y-123176240D01*
X157960612Y-122973355D01*
X158059029Y-122771570D01*
X157652313Y-121590381D01*
X156471124Y-121997097D01*
X156372707Y-122198882D01*
X154649562Y-122198882D01*
X154648125Y-122191662D01*
X154532413Y-121912310D01*
X154364426Y-121660900D01*
X154150619Y-121447093D01*
X153899209Y-121279106D01*
X153619857Y-121163394D01*
X153323298Y-121104405D01*
X153020930Y-121104405D01*
X152724371Y-121163394D01*
X152445019Y-121279106D01*
X152193609Y-121447093D01*
X151995811Y-121644891D01*
X151990006Y-121631777D01*
X151918037Y-121529471D01*
X151827492Y-121443171D01*
X151721852Y-121376195D01*
X151605174Y-121331113D01*
X151481943Y-121309661D01*
X151356895Y-121312663D01*
X150747598Y-121390570D01*
X150609378Y-121567484D01*
X150317651Y-121567484D01*
X150180357Y-121460219D01*
X149570312Y-121532028D01*
X149448252Y-121559367D01*
X149333871Y-121609994D01*
X149231565Y-121681963D01*
X149145265Y-121772508D01*
X149078289Y-121878148D01*
X149033207Y-121994826D01*
X149011755Y-122118057D01*
X146926701Y-122118057D01*
X146648790Y-122002942D01*
X146352231Y-121943953D01*
X146049863Y-121943953D01*
X145753304Y-122002942D01*
X145473952Y-122118654D01*
X145222542Y-122286641D01*
X145156103Y-122353080D01*
X145150549Y-122334773D01*
X145091584Y-122224459D01*
X145012232Y-122127768D01*
X144915541Y-122048416D01*
X144805227Y-121989451D01*
X144685529Y-121953141D01*
X144561047Y-121940881D01*
X143946797Y-121943953D01*
X143788047Y-122102703D01*
X143534047Y-122102703D01*
X143375297Y-121943953D01*
X142761047Y-121940881D01*
X142636565Y-121953141D01*
X142516867Y-121989451D01*
X142406553Y-122048416D01*
X142309862Y-122127768D01*
X142230510Y-122224459D01*
X142171545Y-122334773D01*
X142135235Y-122454471D01*
X142122975Y-122578953D01*
X140673822Y-122578953D01*
X140665786Y-122538554D01*
X140550074Y-122259202D01*
X140382087Y-122007792D01*
X140168280Y-121793985D01*
X139916870Y-121625998D01*
X139637518Y-121510286D01*
X139340959Y-121451297D01*
X139038591Y-121451297D01*
X138742032Y-121510286D01*
X138462680Y-121625998D01*
X138333983Y-121711991D01*
X138331200Y-121691869D01*
X138290218Y-121573689D01*
X138226969Y-121465775D01*
X138143881Y-121372274D01*
X138044150Y-121296778D01*
X137931606Y-121242191D01*
X137810574Y-121210608D01*
X137203406Y-121117553D01*
X137021776Y-121249514D01*
X136826351Y-122483384D01*
X136846105Y-122486513D01*
X136806370Y-122737386D01*
X136786616Y-122734257D01*
X136591190Y-123968126D01*
X136723152Y-124149756D01*
X137329359Y-124248880D01*
X137454226Y-124256244D01*
X137578131Y-124239106D01*
X137696311Y-124198124D01*
X137804225Y-124134875D01*
X137897726Y-124051787D01*
X137973222Y-123952056D01*
X137979836Y-123938421D01*
X137997463Y-123964802D01*
X138211270Y-124178609D01*
X138455803Y-124342001D01*
X138503482Y-125489057D01*
X138501371Y-125510298D01*
X138506584Y-125563695D01*
X138507254Y-125579816D01*
X138510209Y-125600831D01*
X138515917Y-125659296D01*
X138520617Y-125674838D01*
X138522878Y-125690916D01*
X138535250Y-125726335D01*
X136608803Y-125421517D01*
X135121792Y-124969360D01*
X132798297Y-124013163D01*
X132526607Y-123653522D01*
X132413566Y-123394620D01*
X132415994Y-123383651D01*
X132421335Y-123362132D01*
X135013756Y-123362132D01*
X135030894Y-123486037D01*
X135071876Y-123604217D01*
X135135125Y-123712131D01*
X135218213Y-123805632D01*
X135317944Y-123881128D01*
X135430488Y-123935715D01*
X135551520Y-123967298D01*
X136158688Y-124060353D01*
X136340318Y-123928392D01*
X136535743Y-122694522D01*
X135301874Y-122499096D01*
X135120244Y-122631058D01*
X135021120Y-123237265D01*
X135013756Y-123362132D01*
X132421335Y-123362132D01*
X132551832Y-122836360D01*
X132584474Y-122829867D01*
X132863826Y-122714155D01*
X133115236Y-122546168D01*
X133329043Y-122332361D01*
X133497030Y-122080951D01*
X133502976Y-122066594D01*
X135209647Y-122066594D01*
X135341608Y-122248224D01*
X136575478Y-122443649D01*
X136770904Y-121209780D01*
X136638942Y-121028150D01*
X136032735Y-120929026D01*
X135907868Y-120921662D01*
X135783963Y-120938800D01*
X135665783Y-120979782D01*
X135557869Y-121043031D01*
X135464368Y-121126119D01*
X135388872Y-121225850D01*
X135334285Y-121338394D01*
X135302702Y-121459426D01*
X135209647Y-122066594D01*
X133502976Y-122066594D01*
X133612742Y-121801599D01*
X133671731Y-121505040D01*
X133671731Y-121202672D01*
X133612742Y-120906113D01*
X133497030Y-120626761D01*
X133329043Y-120375351D01*
X133115236Y-120161544D01*
X132863826Y-119993557D01*
X132584474Y-119877845D01*
X132287915Y-119818856D01*
X131985547Y-119818856D01*
X131688988Y-119877845D01*
X131490849Y-119959917D01*
X131491219Y-119941055D01*
X131469229Y-119817919D01*
X131423639Y-119701439D01*
X131356202Y-119596091D01*
X131269508Y-119505923D01*
X131166889Y-119434402D01*
X131052288Y-119384275D01*
X130467152Y-119197383D01*
X130267116Y-119299307D01*
X129881076Y-120487414D01*
X129900097Y-120493594D01*
X129821608Y-120735163D01*
X129802586Y-120728982D01*
X129416547Y-121917090D01*
X129518470Y-122117126D01*
X130101707Y-122309862D01*
X130223885Y-122336669D01*
X130348945Y-122339125D01*
X130472081Y-122317135D01*
X130588561Y-122271545D01*
X130693909Y-122204108D01*
X130784077Y-122117414D01*
X130792613Y-122105167D01*
X130944419Y-122332361D01*
X131077721Y-122465663D01*
X130945092Y-123000028D01*
X130942081Y-123009236D01*
X130936094Y-123036281D01*
X130929435Y-123063110D01*
X130928037Y-123072676D01*
X130880749Y-123286289D01*
X130866353Y-123337204D01*
X130861647Y-123396488D01*
X130854547Y-123455527D01*
X130855734Y-123470982D01*
X130854507Y-123486440D01*
X130861457Y-123545491D01*
X130866012Y-123604794D01*
X130870195Y-123619732D01*
X130872006Y-123635121D01*
X130890341Y-123691680D01*
X130906379Y-123748955D01*
X130930311Y-123796143D01*
X131160536Y-124323429D01*
X131178605Y-124372556D01*
X131209935Y-124423794D01*
X131239237Y-124476199D01*
X131273202Y-124516021D01*
X131279569Y-124524448D01*
X130733672Y-124354340D01*
X128275916Y-123422237D01*
X125878924Y-122343438D01*
X123694286Y-121196851D01*
X127950875Y-121196851D01*
X127972865Y-121319987D01*
X128018455Y-121436467D01*
X128085892Y-121541815D01*
X128172586Y-121631983D01*
X128275205Y-121703504D01*
X128389806Y-121753631D01*
X128974942Y-121940523D01*
X129174978Y-121838599D01*
X129561018Y-120650492D01*
X128372910Y-120264453D01*
X128172874Y-120366376D01*
X127980138Y-120949613D01*
X127953331Y-121071791D01*
X127950875Y-121196851D01*
X123694286Y-121196851D01*
X123551442Y-121121881D01*
X121402578Y-119822848D01*
X128349477Y-119822848D01*
X128451401Y-120022884D01*
X129639508Y-120408924D01*
X130025547Y-119220816D01*
X129923624Y-119020780D01*
X129340387Y-118828044D01*
X129218209Y-118801237D01*
X129093149Y-118798781D01*
X128970013Y-118820771D01*
X128853533Y-118866361D01*
X128748185Y-118933798D01*
X128658017Y-119020492D01*
X128586496Y-119123111D01*
X128536369Y-119237712D01*
X128349477Y-119822848D01*
X121402578Y-119822848D01*
X121301961Y-119762023D01*
X119138691Y-118268825D01*
X117851159Y-117260108D01*
X120934919Y-117260108D01*
X120955294Y-117383521D01*
X120999355Y-117500587D01*
X121065407Y-117606810D01*
X121150914Y-117698104D01*
X121252588Y-117770962D01*
X121786080Y-118075427D01*
X122002937Y-118017320D01*
X122627562Y-116935438D01*
X121545680Y-116310813D01*
X121328823Y-116368920D01*
X121019038Y-116899340D01*
X120967414Y-117013274D01*
X120939010Y-117135091D01*
X120934919Y-117260108D01*
X117851159Y-117260108D01*
X117069524Y-116647737D01*
X116196140Y-115873986D01*
X121614573Y-115873986D01*
X121672680Y-116090843D01*
X122754562Y-116715468D01*
X123379187Y-115633586D01*
X123321080Y-115416729D01*
X122790660Y-115106944D01*
X122676726Y-115055320D01*
X122554909Y-115026916D01*
X122429892Y-115022825D01*
X122306479Y-115043200D01*
X122189413Y-115087261D01*
X122083190Y-115153313D01*
X121991896Y-115238820D01*
X121919038Y-115340494D01*
X121614573Y-115873986D01*
X116196140Y-115873986D01*
X115102012Y-114904673D01*
X113243332Y-113045993D01*
X111860852Y-111485496D01*
X114077454Y-111485496D01*
X114100517Y-111608435D01*
X114147121Y-111724513D01*
X114215475Y-111829268D01*
X114302953Y-111918676D01*
X114775471Y-112311155D01*
X114999123Y-112291588D01*
X115802125Y-111334607D01*
X114845144Y-110531604D01*
X114621492Y-110551171D01*
X114224307Y-111019739D01*
X114153683Y-111122979D01*
X114104558Y-111238012D01*
X114078819Y-111360420D01*
X114077454Y-111485496D01*
X111860852Y-111485496D01*
X111500268Y-111078481D01*
X110744158Y-110113377D01*
X114988845Y-110113377D01*
X115008412Y-110337029D01*
X115965393Y-111140031D01*
X116768396Y-110183050D01*
X116748829Y-109959398D01*
X116280261Y-109562213D01*
X116177021Y-109491589D01*
X116061988Y-109442464D01*
X115939580Y-109416725D01*
X115814504Y-109415360D01*
X115691565Y-109438423D01*
X115575487Y-109485027D01*
X115470732Y-109553381D01*
X115381324Y-109640859D01*
X114988845Y-110113377D01*
X110744158Y-110113377D01*
X109879180Y-109009314D01*
X108385982Y-106846044D01*
X107026124Y-104596563D01*
X105804567Y-102269081D01*
X104725768Y-99872089D01*
X103793665Y-97414333D01*
X103011657Y-94904783D01*
X102382599Y-92352595D01*
X101908786Y-89767082D01*
X101591947Y-87157678D01*
X101433238Y-84533904D01*
X101433238Y-83048736D01*
X102943386Y-83048736D01*
X102943386Y-83390502D01*
X103010061Y-83725700D01*
X103140849Y-84041450D01*
X103330723Y-84325617D01*
X103572388Y-84567282D01*
X103856555Y-84757156D01*
X104172305Y-84887944D01*
X104507503Y-84954619D01*
X104849269Y-84954619D01*
X105184467Y-84887944D01*
X105500217Y-84757156D01*
X105784384Y-84567282D01*
X106026049Y-84325617D01*
X106215923Y-84041450D01*
X106346711Y-83725700D01*
X106413386Y-83390502D01*
X106413386Y-83219619D01*
X107923386Y-83219619D01*
X108004293Y-85665301D01*
X108246659Y-88100289D01*
X108649425Y-90513935D01*
X109210830Y-92895684D01*
X109928419Y-95235123D01*
X110799054Y-97522021D01*
X111818927Y-99746378D01*
X112983580Y-101898468D01*
X114287919Y-103968880D01*
X115726241Y-105948560D01*
X117292257Y-107828853D01*
X118979119Y-109601536D01*
X120779450Y-111258858D01*
X121658168Y-111966430D01*
X120909712Y-111901277D01*
X120875422Y-111894620D01*
X120835339Y-111894803D01*
X120832762Y-111894579D01*
X120797918Y-111894974D01*
X120763230Y-111895133D01*
X120760669Y-111895397D01*
X120720577Y-111895852D01*
X120686391Y-111903056D01*
X119176331Y-112058762D01*
X119119112Y-111973129D01*
X118905305Y-111759322D01*
X118653895Y-111591335D01*
X118374543Y-111475623D01*
X118077984Y-111416634D01*
X117850387Y-111416634D01*
X117857536Y-111399894D01*
X117883275Y-111277486D01*
X117884640Y-111152410D01*
X117861577Y-111029471D01*
X117814973Y-110913393D01*
X117746619Y-110808638D01*
X117659141Y-110719230D01*
X117186623Y-110326751D01*
X116962971Y-110346318D01*
X116159969Y-111303299D01*
X116175290Y-111316155D01*
X116012021Y-111510730D01*
X115996701Y-111497875D01*
X115193698Y-112454856D01*
X115213265Y-112678508D01*
X115681833Y-113075693D01*
X115785073Y-113146317D01*
X115900106Y-113195442D01*
X116022514Y-113221181D01*
X116147590Y-113222546D01*
X116270529Y-113199483D01*
X116386607Y-113152879D01*
X116400017Y-113144129D01*
X116450789Y-113399377D01*
X116566501Y-113678729D01*
X116734488Y-113930139D01*
X116948295Y-114143946D01*
X117199705Y-114311933D01*
X117479057Y-114427645D01*
X117775616Y-114486634D01*
X118077984Y-114486634D01*
X118374543Y-114427645D01*
X118653895Y-114311933D01*
X118905305Y-114143946D01*
X119119112Y-113930139D01*
X119287099Y-113678729D01*
X119331810Y-113570788D01*
X120810122Y-113418356D01*
X121553224Y-113483042D01*
X122834365Y-114053619D01*
X123392044Y-114402056D01*
X123412927Y-114416053D01*
X123423660Y-114421810D01*
X123434003Y-114428272D01*
X123456556Y-114439454D01*
X124370640Y-114929726D01*
X124378995Y-114935017D01*
X124403531Y-114947367D01*
X124427725Y-114960344D01*
X124436852Y-114964140D01*
X126186978Y-115845083D01*
X127610611Y-116622571D01*
X127575133Y-116634225D01*
X126074838Y-117062222D01*
X125979257Y-116966641D01*
X125727847Y-116798654D01*
X125448495Y-116682942D01*
X125151936Y-116623953D01*
X124849568Y-116623953D01*
X124658626Y-116661934D01*
X124663084Y-116642815D01*
X124667175Y-116517798D01*
X124646800Y-116394385D01*
X124602739Y-116277319D01*
X124536687Y-116171096D01*
X124451180Y-116079802D01*
X124349506Y-116006944D01*
X123816014Y-115702479D01*
X123599157Y-115760586D01*
X122974532Y-116842468D01*
X122991853Y-116852468D01*
X122864853Y-117072438D01*
X122847532Y-117062438D01*
X122222907Y-118144320D01*
X122281014Y-118361177D01*
X122811434Y-118670962D01*
X122925368Y-118722586D01*
X123047185Y-118750990D01*
X123172202Y-118755081D01*
X123295615Y-118734706D01*
X123412681Y-118690645D01*
X123518904Y-118624593D01*
X123528451Y-118615652D01*
X123640453Y-118886048D01*
X123808440Y-119137458D01*
X124022247Y-119351265D01*
X124273657Y-119519252D01*
X124553009Y-119634964D01*
X124849568Y-119693953D01*
X125151936Y-119693953D01*
X125448495Y-119634964D01*
X125727847Y-119519252D01*
X125979257Y-119351265D01*
X126193064Y-119137458D01*
X126361051Y-118886048D01*
X126476763Y-118606696D01*
X126493315Y-118523481D01*
X127838735Y-118139667D01*
X131697099Y-118815876D01*
X133124859Y-119242363D01*
X135584747Y-119997487D01*
X135616849Y-120007670D01*
X135620308Y-120008404D01*
X135623707Y-120009447D01*
X135656891Y-120016162D01*
X137320785Y-120369050D01*
X137336508Y-120373306D01*
X137357285Y-120376791D01*
X137377890Y-120381161D01*
X137394075Y-120382962D01*
X140165745Y-120847863D01*
X140180771Y-120851283D01*
X140202499Y-120854027D01*
X140224144Y-120857658D01*
X140239550Y-120858707D01*
X141579139Y-121027909D01*
X141581620Y-121028718D01*
X141653307Y-121037277D01*
X141687848Y-121041640D01*
X141690445Y-121041711D01*
X141693022Y-121042019D01*
X141727810Y-121042738D01*
X141799999Y-121044721D01*
X141802570Y-121044283D01*
X145862727Y-121128179D01*
X145870381Y-121128936D01*
X145900003Y-121128949D01*
X145929670Y-121129562D01*
X145937352Y-121128965D01*
X148123106Y-121129924D01*
X148132213Y-121131512D01*
X148197845Y-121129957D01*
X148226034Y-121129969D01*
X148235185Y-121129072D01*
X148244373Y-121128854D01*
X148272334Y-121125429D01*
X148337692Y-121119021D01*
X148346544Y-121116340D01*
X150667700Y-120832044D01*
X155950187Y-120832044D01*
X155954825Y-120957042D01*
X155983760Y-121078734D01*
X156186645Y-121658518D01*
X156388430Y-121756935D01*
X157569619Y-121350219D01*
X157162903Y-120169030D01*
X156993355Y-120086336D01*
X157403065Y-120086336D01*
X157809781Y-121267525D01*
X157828691Y-121261014D01*
X157911386Y-121501176D01*
X157892475Y-121507687D01*
X158299191Y-122688876D01*
X158500976Y-122787293D01*
X159082761Y-122590217D01*
X159196470Y-122538098D01*
X159297825Y-122464796D01*
X159382932Y-122373129D01*
X159448520Y-122266621D01*
X159492070Y-122149363D01*
X159511907Y-122025862D01*
X159511172Y-122006051D01*
X159684921Y-122078021D01*
X159981480Y-122137010D01*
X160283848Y-122137010D01*
X160580407Y-122078021D01*
X160859759Y-121962309D01*
X161111169Y-121794322D01*
X161324976Y-121580515D01*
X161492963Y-121329105D01*
X161608675Y-121049753D01*
X161667664Y-120753194D01*
X161667664Y-120450826D01*
X161608675Y-120154267D01*
X161492963Y-119874915D01*
X161324976Y-119623505D01*
X161111169Y-119409698D01*
X161086877Y-119393466D01*
X163797548Y-119393466D01*
X164147351Y-119898392D01*
X164228794Y-119993329D01*
X164327193Y-120070554D01*
X164438768Y-120127097D01*
X164559229Y-120160787D01*
X164683948Y-120170329D01*
X164808133Y-120155356D01*
X164927010Y-120116444D01*
X165036012Y-120055087D01*
X165537414Y-119700251D01*
X165576399Y-119479155D01*
X164859859Y-118455830D01*
X163836533Y-119172370D01*
X163797548Y-119393466D01*
X161086877Y-119393466D01*
X160859759Y-119241711D01*
X160580407Y-119125999D01*
X160283848Y-119067010D01*
X159981480Y-119067010D01*
X159684921Y-119125999D01*
X159405569Y-119241711D01*
X159154159Y-119409698D01*
X158940352Y-119623505D01*
X158774160Y-119872228D01*
X158766890Y-119862175D01*
X158675223Y-119777068D01*
X158568715Y-119711480D01*
X158451457Y-119667930D01*
X158327956Y-119648093D01*
X158202958Y-119652731D01*
X158081266Y-119681666D01*
X157501482Y-119884551D01*
X157403065Y-120086336D01*
X156993355Y-120086336D01*
X156961118Y-120070613D01*
X156379333Y-120267689D01*
X156265624Y-120319808D01*
X156164269Y-120393110D01*
X156079162Y-120484777D01*
X156013574Y-120591285D01*
X155970024Y-120708543D01*
X155950187Y-120832044D01*
X150667700Y-120832044D01*
X150789565Y-120817118D01*
X150803791Y-120816246D01*
X150826559Y-120812587D01*
X150849498Y-120809777D01*
X150863434Y-120806660D01*
X152202030Y-120591512D01*
X152225367Y-120588626D01*
X152238854Y-120585593D01*
X152252511Y-120583398D01*
X152275260Y-120577406D01*
X154925439Y-119981437D01*
X154948679Y-119977084D01*
X154961843Y-119973251D01*
X154975214Y-119970244D01*
X154997657Y-119962822D01*
X156623146Y-119489504D01*
X156652716Y-119481454D01*
X156658957Y-119479077D01*
X156665367Y-119477210D01*
X156693805Y-119465801D01*
X158129932Y-118918704D01*
X158158290Y-118908510D01*
X158164774Y-118905432D01*
X158171490Y-118902873D01*
X158198490Y-118889423D01*
X159885311Y-118088531D01*
X159924084Y-118071854D01*
X162999671Y-118071854D01*
X163014644Y-118196039D01*
X163053556Y-118314916D01*
X163114913Y-118423918D01*
X163469749Y-118925320D01*
X163690845Y-118964305D01*
X164714170Y-118247765D01*
X163997630Y-117224439D01*
X163776534Y-117185454D01*
X163271608Y-117535257D01*
X163176671Y-117616700D01*
X163099446Y-117715099D01*
X163042903Y-117826674D01*
X163009213Y-117947135D01*
X162999671Y-118071854D01*
X159924084Y-118071854D01*
X161896239Y-117223606D01*
X161915729Y-117216206D01*
X161930473Y-117208882D01*
X161945629Y-117202363D01*
X161963918Y-117192267D01*
X162192431Y-117078751D01*
X164205695Y-117078751D01*
X164922235Y-118102076D01*
X164938618Y-118090604D01*
X165084307Y-118298670D01*
X165067924Y-118310141D01*
X165784464Y-119333467D01*
X166005560Y-119372452D01*
X166510486Y-119022649D01*
X166605423Y-118941206D01*
X166682648Y-118842807D01*
X166739191Y-118731232D01*
X166772881Y-118610771D01*
X166782423Y-118486052D01*
X166767450Y-118361867D01*
X166762075Y-118345446D01*
X166820509Y-118357069D01*
X167122877Y-118357069D01*
X167419436Y-118298080D01*
X167698788Y-118182368D01*
X167950198Y-118014381D01*
X168164005Y-117800574D01*
X168331992Y-117549164D01*
X168447704Y-117269812D01*
X168506693Y-116973253D01*
X168506693Y-116670885D01*
X168447704Y-116374326D01*
X168331992Y-116094974D01*
X168164005Y-115843564D01*
X167950198Y-115629757D01*
X167698788Y-115461770D01*
X167419436Y-115346058D01*
X167122877Y-115287069D01*
X166820509Y-115287069D01*
X166523950Y-115346058D01*
X166244598Y-115461770D01*
X165993188Y-115629757D01*
X165779381Y-115843564D01*
X165611394Y-116094974D01*
X165495682Y-116374326D01*
X165470729Y-116499774D01*
X165454901Y-116487352D01*
X165343326Y-116430809D01*
X165222865Y-116397119D01*
X165098146Y-116387577D01*
X164973961Y-116402550D01*
X164855084Y-116441462D01*
X164746082Y-116502819D01*
X164244680Y-116857655D01*
X164205695Y-117078751D01*
X162192431Y-117078751D01*
X163779764Y-116290229D01*
X163792106Y-116285038D01*
X163813121Y-116273658D01*
X163834599Y-116262989D01*
X163845986Y-116255862D01*
X165316546Y-115459557D01*
X165346688Y-115443537D01*
X165349141Y-115441906D01*
X165351764Y-115440486D01*
X165380373Y-115421145D01*
X167088537Y-114285645D01*
X167091513Y-114284029D01*
X167119470Y-114265082D01*
X167147869Y-114246204D01*
X167150517Y-114244041D01*
X167360237Y-114101911D01*
X171137694Y-114101911D01*
X171137694Y-114326418D01*
X171569862Y-114762930D01*
X171666553Y-114842283D01*
X171776867Y-114901247D01*
X171896566Y-114937557D01*
X172021047Y-114949817D01*
X172145528Y-114937557D01*
X172265227Y-114901247D01*
X172375541Y-114842283D01*
X172472232Y-114762930D01*
X172904400Y-114326418D01*
X172904400Y-114101911D01*
X172021047Y-113218558D01*
X171137694Y-114101911D01*
X167360237Y-114101911D01*
X168281469Y-113477581D01*
X168296749Y-113470323D01*
X168343302Y-113435677D01*
X168360323Y-113424141D01*
X168373268Y-113413375D01*
X168386752Y-113403339D01*
X168401939Y-113389528D01*
X168446580Y-113352399D01*
X168457231Y-113339246D01*
X168787442Y-113038953D01*
X170110183Y-113038953D01*
X170122443Y-113163434D01*
X170158753Y-113283133D01*
X170217717Y-113393447D01*
X170297070Y-113490138D01*
X170733582Y-113922306D01*
X170958089Y-113922306D01*
X171841442Y-113038953D01*
X170958089Y-112155600D01*
X170733582Y-112155600D01*
X170297070Y-112587768D01*
X170217717Y-112684459D01*
X170158753Y-112794773D01*
X170122443Y-112914472D01*
X170110183Y-113038953D01*
X168787442Y-113038953D01*
X170203178Y-111751488D01*
X171137694Y-111751488D01*
X171137694Y-111975995D01*
X172021047Y-112859348D01*
X172035190Y-112845206D01*
X172214795Y-113024811D01*
X172200652Y-113038953D01*
X173084005Y-113922306D01*
X173308512Y-113922306D01*
X173745024Y-113490138D01*
X173824377Y-113393447D01*
X173883341Y-113283133D01*
X173919651Y-113163434D01*
X173931911Y-113038953D01*
X173919651Y-112914472D01*
X173883341Y-112794773D01*
X173874323Y-112777902D01*
X173968282Y-112777902D01*
X174264841Y-112718913D01*
X174544193Y-112603201D01*
X174795603Y-112435214D01*
X175009410Y-112221407D01*
X175177397Y-111969997D01*
X175293109Y-111690645D01*
X175352098Y-111394086D01*
X175352098Y-111091718D01*
X175293109Y-110795159D01*
X175177397Y-110515807D01*
X175009410Y-110264397D01*
X174795603Y-110050590D01*
X174544193Y-109882603D01*
X174264841Y-109766891D01*
X173968282Y-109707902D01*
X173665914Y-109707902D01*
X173369355Y-109766891D01*
X173090003Y-109882603D01*
X172838593Y-110050590D01*
X172624786Y-110264397D01*
X172456799Y-110515807D01*
X172341087Y-110795159D01*
X172282098Y-111091718D01*
X172282098Y-111185677D01*
X172265227Y-111176659D01*
X172145528Y-111140349D01*
X172021047Y-111128089D01*
X171896566Y-111140349D01*
X171776867Y-111176659D01*
X171666553Y-111235623D01*
X171569862Y-111314976D01*
X171137694Y-111751488D01*
X170203178Y-111751488D01*
X171343390Y-110714585D01*
X171348423Y-110711450D01*
X171398649Y-110664333D01*
X171421992Y-110643105D01*
X171425958Y-110638715D01*
X171430248Y-110634690D01*
X171450930Y-110611069D01*
X171497197Y-110559849D01*
X171500241Y-110554750D01*
X171812963Y-110197591D01*
X173017172Y-109043192D01*
X173039546Y-109022495D01*
X173044031Y-109017445D01*
X173048932Y-109012746D01*
X173068853Y-108989491D01*
X173684542Y-108296131D01*
X174560119Y-107517736D01*
X175175465Y-107007904D01*
X175310395Y-106919953D01*
X175445136Y-106919953D01*
X175625776Y-106884021D01*
X175795936Y-106813539D01*
X175949075Y-106711215D01*
X176079309Y-106580981D01*
X176181633Y-106427842D01*
X176252115Y-106257682D01*
X176288047Y-106077042D01*
X176288047Y-105892864D01*
X176252115Y-105712224D01*
X176181633Y-105542064D01*
X176079309Y-105388925D01*
X175949075Y-105258691D01*
X175795936Y-105156367D01*
X175625776Y-105085885D01*
X175523675Y-105065576D01*
X175966462Y-104471246D01*
X175967874Y-104469678D01*
X175988721Y-104441369D01*
X176009804Y-104413071D01*
X176010897Y-104411257D01*
X176440498Y-103827895D01*
X176452813Y-103812713D01*
X176462595Y-103797890D01*
X176466641Y-103792396D01*
X176574936Y-103747539D01*
X176728075Y-103645215D01*
X176858309Y-103514981D01*
X176960633Y-103361842D01*
X177031115Y-103191682D01*
X177067047Y-103011042D01*
X177067047Y-102826864D01*
X177038519Y-102683448D01*
X177060776Y-102679021D01*
X177230936Y-102608539D01*
X177384075Y-102506215D01*
X177514309Y-102375981D01*
X177616633Y-102222842D01*
X177687115Y-102052682D01*
X177723047Y-101872042D01*
X177723047Y-101687864D01*
X177687115Y-101507224D01*
X177624415Y-101355852D01*
X177638760Y-101330007D01*
X177655301Y-101300891D01*
X177656833Y-101297445D01*
X177658668Y-101294140D01*
X177672002Y-101263337D01*
X177830374Y-100907224D01*
X177922647Y-100749408D01*
X177924231Y-100747189D01*
X177941482Y-100717193D01*
X177958957Y-100687305D01*
X177960096Y-100684827D01*
X177985717Y-100640278D01*
X178144958Y-100671953D01*
X178329136Y-100671953D01*
X178509776Y-100636021D01*
X178679936Y-100565539D01*
X178833075Y-100463215D01*
X178963309Y-100332981D01*
X179065633Y-100179842D01*
X179136115Y-100009682D01*
X179172047Y-99829042D01*
X179172047Y-99644864D01*
X179167569Y-99622354D01*
X179318765Y-99347585D01*
X179336277Y-99315900D01*
X179336554Y-99315257D01*
X179336894Y-99314639D01*
X179351278Y-99281075D01*
X179907529Y-97989708D01*
X179913533Y-97977890D01*
X179922281Y-97955462D01*
X179931815Y-97933327D01*
X179935845Y-97920683D01*
X180263645Y-97080220D01*
X180270590Y-97064911D01*
X180277201Y-97045463D01*
X180284664Y-97026329D01*
X180289208Y-97010144D01*
X181172133Y-94412895D01*
X181183065Y-94381958D01*
X181184157Y-94377525D01*
X181185621Y-94373218D01*
X181193063Y-94341367D01*
X182425249Y-89338570D01*
X182430429Y-89326433D01*
X182443123Y-89266002D01*
X182448921Y-89242460D01*
X182450794Y-89229480D01*
X182453492Y-89216636D01*
X182456128Y-89192516D01*
X182464945Y-89131417D01*
X182464246Y-89118242D01*
X182783660Y-86195699D01*
X182784321Y-86193556D01*
X182791776Y-86121436D01*
X182795604Y-86086412D01*
X182795628Y-86084174D01*
X182795857Y-86081958D01*
X182796027Y-86046876D01*
X182796803Y-85974226D01*
X182796388Y-85972018D01*
X182808930Y-83376899D01*
X182809884Y-83361883D01*
X182809110Y-83339603D01*
X182809218Y-83317294D01*
X182807815Y-83302304D01*
X182799009Y-83048736D01*
X183485065Y-83048736D01*
X183485065Y-83390502D01*
X183551740Y-83725700D01*
X183682528Y-84041450D01*
X183872402Y-84325617D01*
X184114067Y-84567282D01*
X184398234Y-84757156D01*
X184713984Y-84887944D01*
X185049182Y-84954619D01*
X185390948Y-84954619D01*
X185726146Y-84887944D01*
X186041896Y-84757156D01*
X186326063Y-84567282D01*
X186567728Y-84325617D01*
X186757602Y-84041450D01*
X186888390Y-83725700D01*
X186955065Y-83390502D01*
X186955065Y-83048736D01*
X186888390Y-82713538D01*
X186757602Y-82397788D01*
X186567728Y-82113621D01*
X186326063Y-81871956D01*
X186041896Y-81682082D01*
X185726146Y-81551294D01*
X185390948Y-81484619D01*
X185049182Y-81484619D01*
X184713984Y-81551294D01*
X184398234Y-81682082D01*
X184114067Y-81871956D01*
X183872402Y-82113621D01*
X183682528Y-82397788D01*
X183551740Y-82713538D01*
X183485065Y-83048736D01*
X182799009Y-83048736D01*
X182756708Y-81830785D01*
X182756963Y-81825687D01*
X182755412Y-81793469D01*
X182754293Y-81761263D01*
X182753617Y-81756208D01*
X182649675Y-79597718D01*
X182649880Y-79591753D01*
X182647881Y-79560461D01*
X182646371Y-79529108D01*
X182645500Y-79523198D01*
X182556063Y-78123301D01*
X182554910Y-78094862D01*
X182553685Y-78086088D01*
X182553120Y-78077240D01*
X182548527Y-78049136D01*
X182483354Y-77582222D01*
X182308519Y-76214796D01*
X182308056Y-76205947D01*
X182303789Y-76177802D01*
X182300175Y-76149535D01*
X182298193Y-76140889D01*
X181999574Y-74171146D01*
X181999703Y-74157101D01*
X181988373Y-74097266D01*
X181984865Y-74074125D01*
X181981429Y-74060591D01*
X181978830Y-74046866D01*
X181972240Y-74024398D01*
X181957256Y-73965382D01*
X181951211Y-73952706D01*
X181459553Y-72276515D01*
X181458655Y-72272064D01*
X181449040Y-72240675D01*
X181439814Y-72209220D01*
X181438117Y-72205015D01*
X181113771Y-71146119D01*
X180841712Y-70048168D01*
X180836501Y-70023760D01*
X180832737Y-70011950D01*
X180829758Y-69999926D01*
X180821413Y-69976415D01*
X180542017Y-69099691D01*
X180538379Y-69085389D01*
X180530691Y-69064149D01*
X180523830Y-69042620D01*
X180517991Y-69029063D01*
X179957722Y-67481202D01*
X179851743Y-66889485D01*
X179465234Y-64114542D01*
X179359357Y-63161655D01*
X179358933Y-63151117D01*
X179355234Y-63124550D01*
X179352275Y-63097921D01*
X179350091Y-63087614D01*
X179244560Y-62329709D01*
X179240661Y-62298295D01*
X179239417Y-62292774D01*
X179238636Y-62287166D01*
X179231215Y-62256379D01*
X179092785Y-61642092D01*
X179099633Y-61631842D01*
X179170115Y-61461682D01*
X179206047Y-61281042D01*
X179206047Y-61096864D01*
X179170115Y-60916224D01*
X179099633Y-60746064D01*
X178997309Y-60592925D01*
X178867075Y-60462691D01*
X178713936Y-60360367D01*
X178543776Y-60289885D01*
X178363136Y-60253953D01*
X178178958Y-60253953D01*
X177998318Y-60289885D01*
X177828158Y-60360367D01*
X177675019Y-60462691D01*
X177544785Y-60592925D01*
X177442461Y-60746064D01*
X177371979Y-60916224D01*
X177336047Y-61096864D01*
X177336047Y-61281042D01*
X177371979Y-61461682D01*
X177442461Y-61631842D01*
X177544785Y-61784981D01*
X177577355Y-61817551D01*
X177580071Y-61841540D01*
X177580928Y-61845545D01*
X177581433Y-61849611D01*
X177588754Y-61882098D01*
X177603558Y-61951247D01*
X177605189Y-61955028D01*
X177742678Y-62565137D01*
X177846858Y-63313337D01*
X177952739Y-64266269D01*
X177953164Y-64276821D01*
X177956861Y-64303365D01*
X177959819Y-64329985D01*
X177962007Y-64340311D01*
X178016663Y-64732709D01*
X178014873Y-64728761D01*
X177869833Y-64400003D01*
X177858811Y-64373416D01*
X177854769Y-64365860D01*
X177851315Y-64358030D01*
X177837188Y-64332991D01*
X177620401Y-63927693D01*
X177312223Y-63272816D01*
X177127860Y-62858000D01*
X177125533Y-62851390D01*
X177112701Y-62823892D01*
X177100381Y-62796173D01*
X177096922Y-62790082D01*
X176921462Y-62414095D01*
X176926047Y-62391042D01*
X176926047Y-62206864D01*
X176890115Y-62026224D01*
X176819633Y-61856064D01*
X176717309Y-61702925D01*
X176587075Y-61572691D01*
X176433936Y-61470367D01*
X176263776Y-61399885D01*
X176083136Y-61363953D01*
X175898958Y-61363953D01*
X175718318Y-61399885D01*
X175548158Y-61470367D01*
X175395019Y-61572691D01*
X175264785Y-61702925D01*
X175162461Y-61856064D01*
X175149544Y-61887248D01*
X174866060Y-61468626D01*
X173363069Y-59537583D01*
X171735741Y-57710096D01*
X170015174Y-56017746D01*
X170015476Y-56017871D01*
X170268565Y-56068213D01*
X170526613Y-56068213D01*
X170779702Y-56017871D01*
X171018107Y-55919120D01*
X171232666Y-55775757D01*
X171415133Y-55593290D01*
X171558496Y-55378731D01*
X171657247Y-55140326D01*
X171707589Y-54887237D01*
X171707589Y-54629189D01*
X171676112Y-54470942D01*
X171730243Y-54470942D01*
X171983332Y-54420600D01*
X172221737Y-54321849D01*
X172436296Y-54178486D01*
X172618763Y-53996019D01*
X172762126Y-53781460D01*
X172860877Y-53543055D01*
X172911219Y-53289966D01*
X172911219Y-53031918D01*
X172860877Y-52778829D01*
X172762126Y-52540424D01*
X172618763Y-52325865D01*
X172436296Y-52143398D01*
X172221737Y-52000035D01*
X171983332Y-51901284D01*
X171730243Y-51850942D01*
X171472195Y-51850942D01*
X171313948Y-51882419D01*
X171313948Y-51828288D01*
X171263606Y-51575199D01*
X171164855Y-51336794D01*
X171021492Y-51122235D01*
X170839025Y-50939768D01*
X170624466Y-50796405D01*
X170386061Y-50697654D01*
X170132972Y-50647312D01*
X169874924Y-50647312D01*
X169709507Y-50680215D01*
X169691227Y-50496692D01*
X169616409Y-50251027D01*
X169495100Y-50024678D01*
X169432795Y-49939322D01*
X169196715Y-49916295D01*
X168584534Y-50728686D01*
X168600507Y-50740722D01*
X168447646Y-50943576D01*
X168431673Y-50931539D01*
X167997314Y-51507954D01*
X167997313Y-51507954D01*
X167380904Y-52325957D01*
X167396877Y-52337993D01*
X167244016Y-52540847D01*
X167228043Y-52528810D01*
X167216007Y-52544783D01*
X167013153Y-52391922D01*
X167025190Y-52375949D01*
X166207187Y-51759540D01*
X165984866Y-51790785D01*
X165748156Y-52099806D01*
X165683032Y-52206600D01*
X165639994Y-52324046D01*
X165620697Y-52447633D01*
X165625491Y-52563203D01*
X164132855Y-51588015D01*
X163682119Y-51334365D01*
X166328803Y-51334365D01*
X166360048Y-51556687D01*
X167178051Y-52173096D01*
X167616639Y-51591069D01*
X167618941Y-51588015D01*
X167794460Y-51355093D01*
X168228820Y-50778678D01*
X167415741Y-50165979D01*
X167195837Y-50253703D01*
X167121562Y-50499534D01*
X167096673Y-50755131D01*
X167098049Y-50768948D01*
X166981391Y-50773787D01*
X166859827Y-50803252D01*
X166746347Y-50855867D01*
X166645313Y-50929610D01*
X166560606Y-51021648D01*
X166328803Y-51334365D01*
X163682119Y-51334365D01*
X162000316Y-50387939D01*
X161112827Y-49963126D01*
X167568602Y-49963126D01*
X168381681Y-50575825D01*
X168993861Y-49763434D01*
X168906654Y-49542846D01*
X168807430Y-49506482D01*
X168556413Y-49452263D01*
X168299642Y-49448057D01*
X168046983Y-49494026D01*
X167808148Y-49588403D01*
X167592314Y-49727560D01*
X167568602Y-49963126D01*
X161112827Y-49963126D01*
X159793125Y-49331427D01*
X157520935Y-48423100D01*
X155193681Y-47666929D01*
X152821539Y-47066221D01*
X150414882Y-46623603D01*
X147984235Y-46341010D01*
X145540225Y-46219677D01*
X143093539Y-46260136D01*
X140654877Y-46462210D01*
X138234902Y-46825014D01*
X135844196Y-47346962D01*
X133493212Y-48025773D01*
X131192232Y-48858477D01*
X128951316Y-49841434D01*
X126780264Y-50970345D01*
X124688569Y-52240273D01*
X122685378Y-53645667D01*
X120779450Y-55180380D01*
X118979119Y-56837702D01*
X117292257Y-58610385D01*
X115726241Y-60490678D01*
X114287919Y-62470358D01*
X112983580Y-64540770D01*
X111818927Y-66692860D01*
X110799054Y-68917217D01*
X109928419Y-71204115D01*
X109210830Y-73543554D01*
X108649425Y-75925303D01*
X108246659Y-78338949D01*
X108004293Y-80773937D01*
X107923386Y-83219619D01*
X106413386Y-83219619D01*
X106413386Y-83048736D01*
X106346711Y-82713538D01*
X106215923Y-82397788D01*
X106026049Y-82113621D01*
X105784384Y-81871956D01*
X105500217Y-81682082D01*
X105184467Y-81551294D01*
X104849269Y-81484619D01*
X104507503Y-81484619D01*
X104172305Y-81551294D01*
X103856555Y-81682082D01*
X103572388Y-81871956D01*
X103330723Y-82113621D01*
X103140849Y-82397788D01*
X103010061Y-82713538D01*
X102943386Y-83048736D01*
X101433238Y-83048736D01*
X101433238Y-81905334D01*
X101591947Y-79281560D01*
X101908786Y-76672156D01*
X102382599Y-74086643D01*
X103011657Y-71534455D01*
X103793665Y-69024905D01*
X104725768Y-66567149D01*
X105804567Y-64170157D01*
X107026124Y-61842675D01*
X108385982Y-59593194D01*
X109879180Y-57429924D01*
X111500268Y-55360757D01*
X113243332Y-53393245D01*
X115102012Y-51534565D01*
X117069524Y-49791501D01*
X119138691Y-48170413D01*
X121301961Y-46677215D01*
X123551442Y-45317357D01*
X125878924Y-44095800D01*
X128275916Y-43017001D01*
X128851434Y-42798736D01*
X143193386Y-42798736D01*
X143193386Y-43140502D01*
X143260061Y-43475700D01*
X143390849Y-43791450D01*
X143580723Y-44075617D01*
X143822388Y-44317282D01*
X144106555Y-44507156D01*
X144422305Y-44637944D01*
X144757503Y-44704619D01*
X145099269Y-44704619D01*
X145434467Y-44637944D01*
X145750217Y-44507156D01*
X146034384Y-44317282D01*
X146276049Y-44075617D01*
X146465923Y-43791450D01*
X146596711Y-43475700D01*
X146663386Y-43140502D01*
X146663386Y-42798736D01*
X146596711Y-42463538D01*
X146465923Y-42147788D01*
X146276049Y-41863621D01*
X146034384Y-41621956D01*
X145750217Y-41432082D01*
X145434467Y-41301294D01*
X145099269Y-41234619D01*
X144757503Y-41234619D01*
X144422305Y-41301294D01*
X144106555Y-41432082D01*
X143822388Y-41621956D01*
X143580723Y-41863621D01*
X143390849Y-42147788D01*
X143260061Y-42463538D01*
X143193386Y-42798736D01*
X128851434Y-42798736D01*
X130733672Y-42084898D01*
X133243222Y-41302890D01*
X135795410Y-40673832D01*
X138380923Y-40200019D01*
X140990327Y-39883180D01*
X143614101Y-39724471D01*
X146242671Y-39724471D01*
X148866445Y-39883180D01*
G37*
X148866445Y-39883180D02*
X151475849Y-40200019D01*
X154061362Y-40673832D01*
X156613550Y-41302890D01*
X159123100Y-42084898D01*
X161580856Y-43017001D01*
X163977848Y-44095800D01*
X166305330Y-45317357D01*
X168554811Y-46677215D01*
X170718081Y-48170413D01*
X172787248Y-49791501D01*
X174754760Y-51534565D01*
X176613440Y-53393245D01*
X178356504Y-55360757D01*
X179977592Y-57429924D01*
X181470790Y-59593194D01*
X182830648Y-61842675D01*
X184052205Y-64170157D01*
X185131004Y-66567149D01*
X186063107Y-69024905D01*
X186845115Y-71534455D01*
X187474173Y-74086643D01*
X187947986Y-76672156D01*
X188264825Y-79281560D01*
X188423534Y-81905334D01*
X188423534Y-84533904D01*
X188264825Y-87157678D01*
X187947986Y-89767082D01*
X187474173Y-92352595D01*
X186845115Y-94904783D01*
X186063107Y-97414333D01*
X185131004Y-99872089D01*
X184052205Y-102269081D01*
X183470047Y-103378290D01*
X183470047Y-103376864D01*
X183434115Y-103196224D01*
X183427536Y-103180341D01*
X183453941Y-103075457D01*
X183455927Y-103071132D01*
X183472195Y-103002948D01*
X183480165Y-102971289D01*
X183480865Y-102966608D01*
X183481964Y-102962002D01*
X183486391Y-102929656D01*
X183496759Y-102860330D01*
X183496531Y-102855574D01*
X183526158Y-102639113D01*
X183526825Y-102637147D01*
X183536283Y-102565138D01*
X183541089Y-102530027D01*
X183541168Y-102527953D01*
X183541436Y-102525909D01*
X183541865Y-102512700D01*
X183628633Y-102382842D01*
X183699115Y-102212682D01*
X183735047Y-102032042D01*
X183735047Y-101847864D01*
X183699115Y-101667224D01*
X183628633Y-101497064D01*
X183526309Y-101343925D01*
X183396075Y-101213691D01*
X183242936Y-101111367D01*
X183072776Y-101040885D01*
X182892136Y-101004953D01*
X182707958Y-101004953D01*
X182527318Y-101040885D01*
X182357158Y-101111367D01*
X182204019Y-101213691D01*
X182073785Y-101343925D01*
X181971461Y-101497064D01*
X181900979Y-101667224D01*
X181865047Y-101847864D01*
X181865047Y-102032042D01*
X181900979Y-102212682D01*
X181971461Y-102382842D01*
X182017610Y-102451910D01*
X181986772Y-102677214D01*
X181976612Y-102717572D01*
X181939019Y-102742691D01*
X181808785Y-102872925D01*
X181706461Y-103026064D01*
X181635979Y-103196224D01*
X181600047Y-103376864D01*
X181600047Y-103561042D01*
X181635979Y-103741682D01*
X181706461Y-103911842D01*
X181808785Y-104064981D01*
X181939019Y-104195215D01*
X182092158Y-104297539D01*
X182262318Y-104368021D01*
X182442958Y-104403953D01*
X182627136Y-104403953D01*
X182807776Y-104368021D01*
X182977936Y-104297539D01*
X182992801Y-104287607D01*
X182830648Y-104596563D01*
X181470790Y-106846044D01*
X179977592Y-109009314D01*
X179032456Y-110215691D01*
X178942767Y-108756084D01*
X178942097Y-108700024D01*
X178930450Y-108644916D01*
X178921502Y-108589310D01*
X178901971Y-108536768D01*
X178620761Y-107648109D01*
X178619163Y-107636771D01*
X178598208Y-107576839D01*
X178590370Y-107552070D01*
X178585891Y-107541612D01*
X178582133Y-107530864D01*
X178571189Y-107507283D01*
X178546200Y-107448937D01*
X178539727Y-107439495D01*
X178491729Y-107336078D01*
X178508047Y-107254042D01*
X178508047Y-107069864D01*
X178472115Y-106889224D01*
X178401633Y-106719064D01*
X178299309Y-106565925D01*
X178169075Y-106435691D01*
X178015936Y-106333367D01*
X177845776Y-106262885D01*
X177665136Y-106226953D01*
X177480958Y-106226953D01*
X177300318Y-106262885D01*
X177130158Y-106333367D01*
X176977019Y-106435691D01*
X176846785Y-106565925D01*
X176744461Y-106719064D01*
X176673979Y-106889224D01*
X176638047Y-107069864D01*
X176638047Y-107254042D01*
X176673979Y-107434682D01*
X176744461Y-107604842D01*
X176846785Y-107757981D01*
X176977019Y-107888215D01*
X177115067Y-107980455D01*
X177167161Y-108092697D01*
X177286341Y-108469322D01*
X177248318Y-108476885D01*
X177078158Y-108547367D01*
X176925019Y-108649691D01*
X176794785Y-108779925D01*
X176692461Y-108933064D01*
X176621979Y-109103224D01*
X176586047Y-109283864D01*
X176586047Y-109468042D01*
X176621979Y-109648682D01*
X176692461Y-109818842D01*
X176787946Y-109961745D01*
X176812379Y-110477521D01*
X176736793Y-110845327D01*
X176229739Y-111961373D01*
X175378417Y-113090961D01*
X175082759Y-113404307D01*
X173925341Y-114405083D01*
X173906937Y-114419869D01*
X173897113Y-114429490D01*
X173886719Y-114438478D01*
X173870470Y-114455585D01*
X173550728Y-114768744D01*
X171186385Y-116912661D01*
X170906622Y-117089431D01*
X170903432Y-117091071D01*
X170875014Y-117109403D01*
X170846524Y-117127405D01*
X170843704Y-117129602D01*
X170332617Y-117459302D01*
X170302496Y-117478540D01*
X170301135Y-117479610D01*
X170299699Y-117480537D01*
X170272024Y-117502512D01*
X169337575Y-118237627D01*
X167093375Y-119712749D01*
X165985025Y-120244048D01*
X165983798Y-120244499D01*
X165951191Y-120260267D01*
X165918864Y-120275763D01*
X165917757Y-120276434D01*
X165118008Y-120663167D01*
X165103851Y-120669028D01*
X165084409Y-120679415D01*
X165064579Y-120689004D01*
X165051515Y-120696989D01*
X164286048Y-121105938D01*
X163919876Y-121276818D01*
X162801574Y-121720836D01*
X161773378Y-122089248D01*
X160410168Y-122574543D01*
X158031493Y-123391653D01*
X158003386Y-123400667D01*
X157996216Y-123403771D01*
X157988830Y-123406308D01*
X157961998Y-123418584D01*
X157167664Y-123762444D01*
X155692833Y-124276501D01*
X154125515Y-124570434D01*
X154102241Y-124573929D01*
X154088842Y-124577311D01*
X154075267Y-124579857D01*
X154052683Y-124586438D01*
X153177126Y-124807444D01*
X150866074Y-125117012D01*
X149642898Y-125215406D01*
X149630447Y-125215591D01*
X149605716Y-125218397D01*
X149580896Y-125220394D01*
X149568635Y-125222605D01*
X145990491Y-125628650D01*
X145031780Y-125711443D01*
X142674979Y-125602849D01*
X140909907Y-125512407D01*
X140216212Y-125388026D01*
X140012094Y-125183558D01*
X139978651Y-124378953D01*
X142122975Y-124378953D01*
X142135235Y-124503435D01*
X142171545Y-124623133D01*
X142230510Y-124733447D01*
X142309862Y-124830138D01*
X142406553Y-124909490D01*
X142516867Y-124968455D01*
X142636565Y-125004765D01*
X142761047Y-125017025D01*
X143375297Y-125013953D01*
X143534047Y-124855203D01*
X143534047Y-123605953D01*
X142284797Y-123605953D01*
X142126047Y-123764703D01*
X142122975Y-124378953D01*
X139978651Y-124378953D01*
X139975672Y-124307306D01*
X140168280Y-124178609D01*
X140382087Y-123964802D01*
X140550074Y-123713392D01*
X140665786Y-123434040D01*
X140724775Y-123137481D01*
X140724775Y-122835113D01*
X140673822Y-122578953D01*
X142122975Y-122578953D01*
X142126047Y-123193203D01*
X142284797Y-123351953D01*
X143534047Y-123351953D01*
X143534047Y-122102703D01*
X143788047Y-122102703D01*
X143788047Y-123351953D01*
X143808047Y-123351953D01*
X143808047Y-123605953D01*
X143788047Y-123605953D01*
X143788047Y-124855203D01*
X143946797Y-125013953D01*
X144561047Y-125017025D01*
X144685529Y-125004765D01*
X144805227Y-124968455D01*
X144915541Y-124909490D01*
X145012232Y-124830138D01*
X145091584Y-124733447D01*
X145150549Y-124623133D01*
X145156103Y-124604826D01*
X145222542Y-124671265D01*
X145473952Y-124839252D01*
X145753304Y-124954964D01*
X146049863Y-125013953D01*
X146352231Y-125013953D01*
X146648790Y-124954964D01*
X146928142Y-124839252D01*
X147179552Y-124671265D01*
X147393359Y-124457458D01*
X147561346Y-124206048D01*
X147677058Y-123926696D01*
X147736047Y-123630137D01*
X147736047Y-123419643D01*
X149162313Y-123419643D01*
X149234122Y-124029688D01*
X149261461Y-124151748D01*
X149312088Y-124266129D01*
X149384057Y-124368435D01*
X149474602Y-124454735D01*
X149580242Y-124521711D01*
X149696920Y-124566793D01*
X149820151Y-124588245D01*
X149945199Y-124585243D01*
X150554496Y-124507336D01*
X150692716Y-124330422D01*
X150540471Y-123090484D01*
X149300533Y-123242729D01*
X149162313Y-123419643D01*
X147736047Y-123419643D01*
X147736047Y-123327769D01*
X147677058Y-123031210D01*
X147561346Y-122751858D01*
X147393359Y-122500448D01*
X147179552Y-122286641D01*
X146928142Y-122118654D01*
X146926701Y-122118057D01*
X149011755Y-122118057D01*
X149014757Y-122243105D01*
X149092664Y-122852402D01*
X149269578Y-122990622D01*
X150509516Y-122838377D01*
X150357271Y-121598439D01*
X150317651Y-121567484D01*
X150609378Y-121567484D01*
X150761623Y-122807422D01*
X150781474Y-122804985D01*
X150812429Y-123057092D01*
X150792578Y-123059529D01*
X150944823Y-124299467D01*
X151121737Y-124437687D01*
X151731782Y-124365878D01*
X151853842Y-124338539D01*
X151968223Y-124287912D01*
X152070529Y-124215943D01*
X152156829Y-124125398D01*
X152223805Y-124019758D01*
X152268887Y-123903080D01*
X152272172Y-123884211D01*
X152445019Y-123999704D01*
X152724371Y-124115416D01*
X153020930Y-124174405D01*
X153323298Y-124174405D01*
X153619857Y-124115416D01*
X153899209Y-123999704D01*
X154150619Y-123831717D01*
X154364426Y-123617910D01*
X154532413Y-123366500D01*
X154648125Y-123087148D01*
X154707114Y-122790589D01*
X154707114Y-122488221D01*
X154649562Y-122198882D01*
X156372707Y-122198882D01*
X156569783Y-122780667D01*
X156621902Y-122894376D01*
X156695204Y-122995731D01*
X156786871Y-123080838D01*
X156893379Y-123146426D01*
X157010637Y-123189976D01*
X157134138Y-123209813D01*
X157259136Y-123205175D01*
X157380828Y-123176240D01*
X157960612Y-122973355D01*
X158059029Y-122771570D01*
X157652313Y-121590381D01*
X156471124Y-121997097D01*
X156372707Y-122198882D01*
X154649562Y-122198882D01*
X154648125Y-122191662D01*
X154532413Y-121912310D01*
X154364426Y-121660900D01*
X154150619Y-121447093D01*
X153899209Y-121279106D01*
X153619857Y-121163394D01*
X153323298Y-121104405D01*
X153020930Y-121104405D01*
X152724371Y-121163394D01*
X152445019Y-121279106D01*
X152193609Y-121447093D01*
X151995811Y-121644891D01*
X151990006Y-121631777D01*
X151918037Y-121529471D01*
X151827492Y-121443171D01*
X151721852Y-121376195D01*
X151605174Y-121331113D01*
X151481943Y-121309661D01*
X151356895Y-121312663D01*
X150747598Y-121390570D01*
X150609378Y-121567484D01*
X150317651Y-121567484D01*
X150180357Y-121460219D01*
X149570312Y-121532028D01*
X149448252Y-121559367D01*
X149333871Y-121609994D01*
X149231565Y-121681963D01*
X149145265Y-121772508D01*
X149078289Y-121878148D01*
X149033207Y-121994826D01*
X149011755Y-122118057D01*
X146926701Y-122118057D01*
X146648790Y-122002942D01*
X146352231Y-121943953D01*
X146049863Y-121943953D01*
X145753304Y-122002942D01*
X145473952Y-122118654D01*
X145222542Y-122286641D01*
X145156103Y-122353080D01*
X145150549Y-122334773D01*
X145091584Y-122224459D01*
X145012232Y-122127768D01*
X144915541Y-122048416D01*
X144805227Y-121989451D01*
X144685529Y-121953141D01*
X144561047Y-121940881D01*
X143946797Y-121943953D01*
X143788047Y-122102703D01*
X143534047Y-122102703D01*
X143375297Y-121943953D01*
X142761047Y-121940881D01*
X142636565Y-121953141D01*
X142516867Y-121989451D01*
X142406553Y-122048416D01*
X142309862Y-122127768D01*
X142230510Y-122224459D01*
X142171545Y-122334773D01*
X142135235Y-122454471D01*
X142122975Y-122578953D01*
X140673822Y-122578953D01*
X140665786Y-122538554D01*
X140550074Y-122259202D01*
X140382087Y-122007792D01*
X140168280Y-121793985D01*
X139916870Y-121625998D01*
X139637518Y-121510286D01*
X139340959Y-121451297D01*
X139038591Y-121451297D01*
X138742032Y-121510286D01*
X138462680Y-121625998D01*
X138333983Y-121711991D01*
X138331200Y-121691869D01*
X138290218Y-121573689D01*
X138226969Y-121465775D01*
X138143881Y-121372274D01*
X138044150Y-121296778D01*
X137931606Y-121242191D01*
X137810574Y-121210608D01*
X137203406Y-121117553D01*
X137021776Y-121249514D01*
X136826351Y-122483384D01*
X136846105Y-122486513D01*
X136806370Y-122737386D01*
X136786616Y-122734257D01*
X136591190Y-123968126D01*
X136723152Y-124149756D01*
X137329359Y-124248880D01*
X137454226Y-124256244D01*
X137578131Y-124239106D01*
X137696311Y-124198124D01*
X137804225Y-124134875D01*
X137897726Y-124051787D01*
X137973222Y-123952056D01*
X137979836Y-123938421D01*
X137997463Y-123964802D01*
X138211270Y-124178609D01*
X138455803Y-124342001D01*
X138503482Y-125489057D01*
X138501371Y-125510298D01*
X138506584Y-125563695D01*
X138507254Y-125579816D01*
X138510209Y-125600831D01*
X138515917Y-125659296D01*
X138520617Y-125674838D01*
X138522878Y-125690916D01*
X138535250Y-125726335D01*
X136608803Y-125421517D01*
X135121792Y-124969360D01*
X132798297Y-124013163D01*
X132526607Y-123653522D01*
X132413566Y-123394620D01*
X132415994Y-123383651D01*
X132421335Y-123362132D01*
X135013756Y-123362132D01*
X135030894Y-123486037D01*
X135071876Y-123604217D01*
X135135125Y-123712131D01*
X135218213Y-123805632D01*
X135317944Y-123881128D01*
X135430488Y-123935715D01*
X135551520Y-123967298D01*
X136158688Y-124060353D01*
X136340318Y-123928392D01*
X136535743Y-122694522D01*
X135301874Y-122499096D01*
X135120244Y-122631058D01*
X135021120Y-123237265D01*
X135013756Y-123362132D01*
X132421335Y-123362132D01*
X132551832Y-122836360D01*
X132584474Y-122829867D01*
X132863826Y-122714155D01*
X133115236Y-122546168D01*
X133329043Y-122332361D01*
X133497030Y-122080951D01*
X133502976Y-122066594D01*
X135209647Y-122066594D01*
X135341608Y-122248224D01*
X136575478Y-122443649D01*
X136770904Y-121209780D01*
X136638942Y-121028150D01*
X136032735Y-120929026D01*
X135907868Y-120921662D01*
X135783963Y-120938800D01*
X135665783Y-120979782D01*
X135557869Y-121043031D01*
X135464368Y-121126119D01*
X135388872Y-121225850D01*
X135334285Y-121338394D01*
X135302702Y-121459426D01*
X135209647Y-122066594D01*
X133502976Y-122066594D01*
X133612742Y-121801599D01*
X133671731Y-121505040D01*
X133671731Y-121202672D01*
X133612742Y-120906113D01*
X133497030Y-120626761D01*
X133329043Y-120375351D01*
X133115236Y-120161544D01*
X132863826Y-119993557D01*
X132584474Y-119877845D01*
X132287915Y-119818856D01*
X131985547Y-119818856D01*
X131688988Y-119877845D01*
X131490849Y-119959917D01*
X131491219Y-119941055D01*
X131469229Y-119817919D01*
X131423639Y-119701439D01*
X131356202Y-119596091D01*
X131269508Y-119505923D01*
X131166889Y-119434402D01*
X131052288Y-119384275D01*
X130467152Y-119197383D01*
X130267116Y-119299307D01*
X129881076Y-120487414D01*
X129900097Y-120493594D01*
X129821608Y-120735163D01*
X129802586Y-120728982D01*
X129416547Y-121917090D01*
X129518470Y-122117126D01*
X130101707Y-122309862D01*
X130223885Y-122336669D01*
X130348945Y-122339125D01*
X130472081Y-122317135D01*
X130588561Y-122271545D01*
X130693909Y-122204108D01*
X130784077Y-122117414D01*
X130792613Y-122105167D01*
X130944419Y-122332361D01*
X131077721Y-122465663D01*
X130945092Y-123000028D01*
X130942081Y-123009236D01*
X130936094Y-123036281D01*
X130929435Y-123063110D01*
X130928037Y-123072676D01*
X130880749Y-123286289D01*
X130866353Y-123337204D01*
X130861647Y-123396488D01*
X130854547Y-123455527D01*
X130855734Y-123470982D01*
X130854507Y-123486440D01*
X130861457Y-123545491D01*
X130866012Y-123604794D01*
X130870195Y-123619732D01*
X130872006Y-123635121D01*
X130890341Y-123691680D01*
X130906379Y-123748955D01*
X130930311Y-123796143D01*
X131160536Y-124323429D01*
X131178605Y-124372556D01*
X131209935Y-124423794D01*
X131239237Y-124476199D01*
X131273202Y-124516021D01*
X131279569Y-124524448D01*
X130733672Y-124354340D01*
X128275916Y-123422237D01*
X125878924Y-122343438D01*
X123694286Y-121196851D01*
X127950875Y-121196851D01*
X127972865Y-121319987D01*
X128018455Y-121436467D01*
X128085892Y-121541815D01*
X128172586Y-121631983D01*
X128275205Y-121703504D01*
X128389806Y-121753631D01*
X128974942Y-121940523D01*
X129174978Y-121838599D01*
X129561018Y-120650492D01*
X128372910Y-120264453D01*
X128172874Y-120366376D01*
X127980138Y-120949613D01*
X127953331Y-121071791D01*
X127950875Y-121196851D01*
X123694286Y-121196851D01*
X123551442Y-121121881D01*
X121402578Y-119822848D01*
X128349477Y-119822848D01*
X128451401Y-120022884D01*
X129639508Y-120408924D01*
X130025547Y-119220816D01*
X129923624Y-119020780D01*
X129340387Y-118828044D01*
X129218209Y-118801237D01*
X129093149Y-118798781D01*
X128970013Y-118820771D01*
X128853533Y-118866361D01*
X128748185Y-118933798D01*
X128658017Y-119020492D01*
X128586496Y-119123111D01*
X128536369Y-119237712D01*
X128349477Y-119822848D01*
X121402578Y-119822848D01*
X121301961Y-119762023D01*
X119138691Y-118268825D01*
X117851159Y-117260108D01*
X120934919Y-117260108D01*
X120955294Y-117383521D01*
X120999355Y-117500587D01*
X121065407Y-117606810D01*
X121150914Y-117698104D01*
X121252588Y-117770962D01*
X121786080Y-118075427D01*
X122002937Y-118017320D01*
X122627562Y-116935438D01*
X121545680Y-116310813D01*
X121328823Y-116368920D01*
X121019038Y-116899340D01*
X120967414Y-117013274D01*
X120939010Y-117135091D01*
X120934919Y-117260108D01*
X117851159Y-117260108D01*
X117069524Y-116647737D01*
X116196140Y-115873986D01*
X121614573Y-115873986D01*
X121672680Y-116090843D01*
X122754562Y-116715468D01*
X123379187Y-115633586D01*
X123321080Y-115416729D01*
X122790660Y-115106944D01*
X122676726Y-115055320D01*
X122554909Y-115026916D01*
X122429892Y-115022825D01*
X122306479Y-115043200D01*
X122189413Y-115087261D01*
X122083190Y-115153313D01*
X121991896Y-115238820D01*
X121919038Y-115340494D01*
X121614573Y-115873986D01*
X116196140Y-115873986D01*
X115102012Y-114904673D01*
X113243332Y-113045993D01*
X111860852Y-111485496D01*
X114077454Y-111485496D01*
X114100517Y-111608435D01*
X114147121Y-111724513D01*
X114215475Y-111829268D01*
X114302953Y-111918676D01*
X114775471Y-112311155D01*
X114999123Y-112291588D01*
X115802125Y-111334607D01*
X114845144Y-110531604D01*
X114621492Y-110551171D01*
X114224307Y-111019739D01*
X114153683Y-111122979D01*
X114104558Y-111238012D01*
X114078819Y-111360420D01*
X114077454Y-111485496D01*
X111860852Y-111485496D01*
X111500268Y-111078481D01*
X110744158Y-110113377D01*
X114988845Y-110113377D01*
X115008412Y-110337029D01*
X115965393Y-111140031D01*
X116768396Y-110183050D01*
X116748829Y-109959398D01*
X116280261Y-109562213D01*
X116177021Y-109491589D01*
X116061988Y-109442464D01*
X115939580Y-109416725D01*
X115814504Y-109415360D01*
X115691565Y-109438423D01*
X115575487Y-109485027D01*
X115470732Y-109553381D01*
X115381324Y-109640859D01*
X114988845Y-110113377D01*
X110744158Y-110113377D01*
X109879180Y-109009314D01*
X108385982Y-106846044D01*
X107026124Y-104596563D01*
X105804567Y-102269081D01*
X104725768Y-99872089D01*
X103793665Y-97414333D01*
X103011657Y-94904783D01*
X102382599Y-92352595D01*
X101908786Y-89767082D01*
X101591947Y-87157678D01*
X101433238Y-84533904D01*
X101433238Y-83048736D01*
X102943386Y-83048736D01*
X102943386Y-83390502D01*
X103010061Y-83725700D01*
X103140849Y-84041450D01*
X103330723Y-84325617D01*
X103572388Y-84567282D01*
X103856555Y-84757156D01*
X104172305Y-84887944D01*
X104507503Y-84954619D01*
X104849269Y-84954619D01*
X105184467Y-84887944D01*
X105500217Y-84757156D01*
X105784384Y-84567282D01*
X106026049Y-84325617D01*
X106215923Y-84041450D01*
X106346711Y-83725700D01*
X106413386Y-83390502D01*
X106413386Y-83219619D01*
X107923386Y-83219619D01*
X108004293Y-85665301D01*
X108246659Y-88100289D01*
X108649425Y-90513935D01*
X109210830Y-92895684D01*
X109928419Y-95235123D01*
X110799054Y-97522021D01*
X111818927Y-99746378D01*
X112983580Y-101898468D01*
X114287919Y-103968880D01*
X115726241Y-105948560D01*
X117292257Y-107828853D01*
X118979119Y-109601536D01*
X120779450Y-111258858D01*
X121658168Y-111966430D01*
X120909712Y-111901277D01*
X120875422Y-111894620D01*
X120835339Y-111894803D01*
X120832762Y-111894579D01*
X120797918Y-111894974D01*
X120763230Y-111895133D01*
X120760669Y-111895397D01*
X120720577Y-111895852D01*
X120686391Y-111903056D01*
X119176331Y-112058762D01*
X119119112Y-111973129D01*
X118905305Y-111759322D01*
X118653895Y-111591335D01*
X118374543Y-111475623D01*
X118077984Y-111416634D01*
X117850387Y-111416634D01*
X117857536Y-111399894D01*
X117883275Y-111277486D01*
X117884640Y-111152410D01*
X117861577Y-111029471D01*
X117814973Y-110913393D01*
X117746619Y-110808638D01*
X117659141Y-110719230D01*
X117186623Y-110326751D01*
X116962971Y-110346318D01*
X116159969Y-111303299D01*
X116175290Y-111316155D01*
X116012021Y-111510730D01*
X115996701Y-111497875D01*
X115193698Y-112454856D01*
X115213265Y-112678508D01*
X115681833Y-113075693D01*
X115785073Y-113146317D01*
X115900106Y-113195442D01*
X116022514Y-113221181D01*
X116147590Y-113222546D01*
X116270529Y-113199483D01*
X116386607Y-113152879D01*
X116400017Y-113144129D01*
X116450789Y-113399377D01*
X116566501Y-113678729D01*
X116734488Y-113930139D01*
X116948295Y-114143946D01*
X117199705Y-114311933D01*
X117479057Y-114427645D01*
X117775616Y-114486634D01*
X118077984Y-114486634D01*
X118374543Y-114427645D01*
X118653895Y-114311933D01*
X118905305Y-114143946D01*
X119119112Y-113930139D01*
X119287099Y-113678729D01*
X119331810Y-113570788D01*
X120810122Y-113418356D01*
X121553224Y-113483042D01*
X122834365Y-114053619D01*
X123392044Y-114402056D01*
X123412927Y-114416053D01*
X123423660Y-114421810D01*
X123434003Y-114428272D01*
X123456556Y-114439454D01*
X124370640Y-114929726D01*
X124378995Y-114935017D01*
X124403531Y-114947367D01*
X124427725Y-114960344D01*
X124436852Y-114964140D01*
X126186978Y-115845083D01*
X127610611Y-116622571D01*
X127575133Y-116634225D01*
X126074838Y-117062222D01*
X125979257Y-116966641D01*
X125727847Y-116798654D01*
X125448495Y-116682942D01*
X125151936Y-116623953D01*
X124849568Y-116623953D01*
X124658626Y-116661934D01*
X124663084Y-116642815D01*
X124667175Y-116517798D01*
X124646800Y-116394385D01*
X124602739Y-116277319D01*
X124536687Y-116171096D01*
X124451180Y-116079802D01*
X124349506Y-116006944D01*
X123816014Y-115702479D01*
X123599157Y-115760586D01*
X122974532Y-116842468D01*
X122991853Y-116852468D01*
X122864853Y-117072438D01*
X122847532Y-117062438D01*
X122222907Y-118144320D01*
X122281014Y-118361177D01*
X122811434Y-118670962D01*
X122925368Y-118722586D01*
X123047185Y-118750990D01*
X123172202Y-118755081D01*
X123295615Y-118734706D01*
X123412681Y-118690645D01*
X123518904Y-118624593D01*
X123528451Y-118615652D01*
X123640453Y-118886048D01*
X123808440Y-119137458D01*
X124022247Y-119351265D01*
X124273657Y-119519252D01*
X124553009Y-119634964D01*
X124849568Y-119693953D01*
X125151936Y-119693953D01*
X125448495Y-119634964D01*
X125727847Y-119519252D01*
X125979257Y-119351265D01*
X126193064Y-119137458D01*
X126361051Y-118886048D01*
X126476763Y-118606696D01*
X126493315Y-118523481D01*
X127838735Y-118139667D01*
X131697099Y-118815876D01*
X133124859Y-119242363D01*
X135584747Y-119997487D01*
X135616849Y-120007670D01*
X135620308Y-120008404D01*
X135623707Y-120009447D01*
X135656891Y-120016162D01*
X137320785Y-120369050D01*
X137336508Y-120373306D01*
X137357285Y-120376791D01*
X137377890Y-120381161D01*
X137394075Y-120382962D01*
X140165745Y-120847863D01*
X140180771Y-120851283D01*
X140202499Y-120854027D01*
X140224144Y-120857658D01*
X140239550Y-120858707D01*
X141579139Y-121027909D01*
X141581620Y-121028718D01*
X141653307Y-121037277D01*
X141687848Y-121041640D01*
X141690445Y-121041711D01*
X141693022Y-121042019D01*
X141727810Y-121042738D01*
X141799999Y-121044721D01*
X141802570Y-121044283D01*
X145862727Y-121128179D01*
X145870381Y-121128936D01*
X145900003Y-121128949D01*
X145929670Y-121129562D01*
X145937352Y-121128965D01*
X148123106Y-121129924D01*
X148132213Y-121131512D01*
X148197845Y-121129957D01*
X148226034Y-121129969D01*
X148235185Y-121129072D01*
X148244373Y-121128854D01*
X148272334Y-121125429D01*
X148337692Y-121119021D01*
X148346544Y-121116340D01*
X150667700Y-120832044D01*
X155950187Y-120832044D01*
X155954825Y-120957042D01*
X155983760Y-121078734D01*
X156186645Y-121658518D01*
X156388430Y-121756935D01*
X157569619Y-121350219D01*
X157162903Y-120169030D01*
X156993355Y-120086336D01*
X157403065Y-120086336D01*
X157809781Y-121267525D01*
X157828691Y-121261014D01*
X157911386Y-121501176D01*
X157892475Y-121507687D01*
X158299191Y-122688876D01*
X158500976Y-122787293D01*
X159082761Y-122590217D01*
X159196470Y-122538098D01*
X159297825Y-122464796D01*
X159382932Y-122373129D01*
X159448520Y-122266621D01*
X159492070Y-122149363D01*
X159511907Y-122025862D01*
X159511172Y-122006051D01*
X159684921Y-122078021D01*
X159981480Y-122137010D01*
X160283848Y-122137010D01*
X160580407Y-122078021D01*
X160859759Y-121962309D01*
X161111169Y-121794322D01*
X161324976Y-121580515D01*
X161492963Y-121329105D01*
X161608675Y-121049753D01*
X161667664Y-120753194D01*
X161667664Y-120450826D01*
X161608675Y-120154267D01*
X161492963Y-119874915D01*
X161324976Y-119623505D01*
X161111169Y-119409698D01*
X161086877Y-119393466D01*
X163797548Y-119393466D01*
X164147351Y-119898392D01*
X164228794Y-119993329D01*
X164327193Y-120070554D01*
X164438768Y-120127097D01*
X164559229Y-120160787D01*
X164683948Y-120170329D01*
X164808133Y-120155356D01*
X164927010Y-120116444D01*
X165036012Y-120055087D01*
X165537414Y-119700251D01*
X165576399Y-119479155D01*
X164859859Y-118455830D01*
X163836533Y-119172370D01*
X163797548Y-119393466D01*
X161086877Y-119393466D01*
X160859759Y-119241711D01*
X160580407Y-119125999D01*
X160283848Y-119067010D01*
X159981480Y-119067010D01*
X159684921Y-119125999D01*
X159405569Y-119241711D01*
X159154159Y-119409698D01*
X158940352Y-119623505D01*
X158774160Y-119872228D01*
X158766890Y-119862175D01*
X158675223Y-119777068D01*
X158568715Y-119711480D01*
X158451457Y-119667930D01*
X158327956Y-119648093D01*
X158202958Y-119652731D01*
X158081266Y-119681666D01*
X157501482Y-119884551D01*
X157403065Y-120086336D01*
X156993355Y-120086336D01*
X156961118Y-120070613D01*
X156379333Y-120267689D01*
X156265624Y-120319808D01*
X156164269Y-120393110D01*
X156079162Y-120484777D01*
X156013574Y-120591285D01*
X155970024Y-120708543D01*
X155950187Y-120832044D01*
X150667700Y-120832044D01*
X150789565Y-120817118D01*
X150803791Y-120816246D01*
X150826559Y-120812587D01*
X150849498Y-120809777D01*
X150863434Y-120806660D01*
X152202030Y-120591512D01*
X152225367Y-120588626D01*
X152238854Y-120585593D01*
X152252511Y-120583398D01*
X152275260Y-120577406D01*
X154925439Y-119981437D01*
X154948679Y-119977084D01*
X154961843Y-119973251D01*
X154975214Y-119970244D01*
X154997657Y-119962822D01*
X156623146Y-119489504D01*
X156652716Y-119481454D01*
X156658957Y-119479077D01*
X156665367Y-119477210D01*
X156693805Y-119465801D01*
X158129932Y-118918704D01*
X158158290Y-118908510D01*
X158164774Y-118905432D01*
X158171490Y-118902873D01*
X158198490Y-118889423D01*
X159885311Y-118088531D01*
X159924084Y-118071854D01*
X162999671Y-118071854D01*
X163014644Y-118196039D01*
X163053556Y-118314916D01*
X163114913Y-118423918D01*
X163469749Y-118925320D01*
X163690845Y-118964305D01*
X164714170Y-118247765D01*
X163997630Y-117224439D01*
X163776534Y-117185454D01*
X163271608Y-117535257D01*
X163176671Y-117616700D01*
X163099446Y-117715099D01*
X163042903Y-117826674D01*
X163009213Y-117947135D01*
X162999671Y-118071854D01*
X159924084Y-118071854D01*
X161896239Y-117223606D01*
X161915729Y-117216206D01*
X161930473Y-117208882D01*
X161945629Y-117202363D01*
X161963918Y-117192267D01*
X162192431Y-117078751D01*
X164205695Y-117078751D01*
X164922235Y-118102076D01*
X164938618Y-118090604D01*
X165084307Y-118298670D01*
X165067924Y-118310141D01*
X165784464Y-119333467D01*
X166005560Y-119372452D01*
X166510486Y-119022649D01*
X166605423Y-118941206D01*
X166682648Y-118842807D01*
X166739191Y-118731232D01*
X166772881Y-118610771D01*
X166782423Y-118486052D01*
X166767450Y-118361867D01*
X166762075Y-118345446D01*
X166820509Y-118357069D01*
X167122877Y-118357069D01*
X167419436Y-118298080D01*
X167698788Y-118182368D01*
X167950198Y-118014381D01*
X168164005Y-117800574D01*
X168331992Y-117549164D01*
X168447704Y-117269812D01*
X168506693Y-116973253D01*
X168506693Y-116670885D01*
X168447704Y-116374326D01*
X168331992Y-116094974D01*
X168164005Y-115843564D01*
X167950198Y-115629757D01*
X167698788Y-115461770D01*
X167419436Y-115346058D01*
X167122877Y-115287069D01*
X166820509Y-115287069D01*
X166523950Y-115346058D01*
X166244598Y-115461770D01*
X165993188Y-115629757D01*
X165779381Y-115843564D01*
X165611394Y-116094974D01*
X165495682Y-116374326D01*
X165470729Y-116499774D01*
X165454901Y-116487352D01*
X165343326Y-116430809D01*
X165222865Y-116397119D01*
X165098146Y-116387577D01*
X164973961Y-116402550D01*
X164855084Y-116441462D01*
X164746082Y-116502819D01*
X164244680Y-116857655D01*
X164205695Y-117078751D01*
X162192431Y-117078751D01*
X163779764Y-116290229D01*
X163792106Y-116285038D01*
X163813121Y-116273658D01*
X163834599Y-116262989D01*
X163845986Y-116255862D01*
X165316546Y-115459557D01*
X165346688Y-115443537D01*
X165349141Y-115441906D01*
X165351764Y-115440486D01*
X165380373Y-115421145D01*
X167088537Y-114285645D01*
X167091513Y-114284029D01*
X167119470Y-114265082D01*
X167147869Y-114246204D01*
X167150517Y-114244041D01*
X167360237Y-114101911D01*
X171137694Y-114101911D01*
X171137694Y-114326418D01*
X171569862Y-114762930D01*
X171666553Y-114842283D01*
X171776867Y-114901247D01*
X171896566Y-114937557D01*
X172021047Y-114949817D01*
X172145528Y-114937557D01*
X172265227Y-114901247D01*
X172375541Y-114842283D01*
X172472232Y-114762930D01*
X172904400Y-114326418D01*
X172904400Y-114101911D01*
X172021047Y-113218558D01*
X171137694Y-114101911D01*
X167360237Y-114101911D01*
X168281469Y-113477581D01*
X168296749Y-113470323D01*
X168343302Y-113435677D01*
X168360323Y-113424141D01*
X168373268Y-113413375D01*
X168386752Y-113403339D01*
X168401939Y-113389528D01*
X168446580Y-113352399D01*
X168457231Y-113339246D01*
X168787442Y-113038953D01*
X170110183Y-113038953D01*
X170122443Y-113163434D01*
X170158753Y-113283133D01*
X170217717Y-113393447D01*
X170297070Y-113490138D01*
X170733582Y-113922306D01*
X170958089Y-113922306D01*
X171841442Y-113038953D01*
X170958089Y-112155600D01*
X170733582Y-112155600D01*
X170297070Y-112587768D01*
X170217717Y-112684459D01*
X170158753Y-112794773D01*
X170122443Y-112914472D01*
X170110183Y-113038953D01*
X168787442Y-113038953D01*
X170203178Y-111751488D01*
X171137694Y-111751488D01*
X171137694Y-111975995D01*
X172021047Y-112859348D01*
X172035190Y-112845206D01*
X172214795Y-113024811D01*
X172200652Y-113038953D01*
X173084005Y-113922306D01*
X173308512Y-113922306D01*
X173745024Y-113490138D01*
X173824377Y-113393447D01*
X173883341Y-113283133D01*
X173919651Y-113163434D01*
X173931911Y-113038953D01*
X173919651Y-112914472D01*
X173883341Y-112794773D01*
X173874323Y-112777902D01*
X173968282Y-112777902D01*
X174264841Y-112718913D01*
X174544193Y-112603201D01*
X174795603Y-112435214D01*
X175009410Y-112221407D01*
X175177397Y-111969997D01*
X175293109Y-111690645D01*
X175352098Y-111394086D01*
X175352098Y-111091718D01*
X175293109Y-110795159D01*
X175177397Y-110515807D01*
X175009410Y-110264397D01*
X174795603Y-110050590D01*
X174544193Y-109882603D01*
X174264841Y-109766891D01*
X173968282Y-109707902D01*
X173665914Y-109707902D01*
X173369355Y-109766891D01*
X173090003Y-109882603D01*
X172838593Y-110050590D01*
X172624786Y-110264397D01*
X172456799Y-110515807D01*
X172341087Y-110795159D01*
X172282098Y-111091718D01*
X172282098Y-111185677D01*
X172265227Y-111176659D01*
X172145528Y-111140349D01*
X172021047Y-111128089D01*
X171896566Y-111140349D01*
X171776867Y-111176659D01*
X171666553Y-111235623D01*
X171569862Y-111314976D01*
X171137694Y-111751488D01*
X170203178Y-111751488D01*
X171343390Y-110714585D01*
X171348423Y-110711450D01*
X171398649Y-110664333D01*
X171421992Y-110643105D01*
X171425958Y-110638715D01*
X171430248Y-110634690D01*
X171450930Y-110611069D01*
X171497197Y-110559849D01*
X171500241Y-110554750D01*
X171812963Y-110197591D01*
X173017172Y-109043192D01*
X173039546Y-109022495D01*
X173044031Y-109017445D01*
X173048932Y-109012746D01*
X173068853Y-108989491D01*
X173684542Y-108296131D01*
X174560119Y-107517736D01*
X175175465Y-107007904D01*
X175310395Y-106919953D01*
X175445136Y-106919953D01*
X175625776Y-106884021D01*
X175795936Y-106813539D01*
X175949075Y-106711215D01*
X176079309Y-106580981D01*
X176181633Y-106427842D01*
X176252115Y-106257682D01*
X176288047Y-106077042D01*
X176288047Y-105892864D01*
X176252115Y-105712224D01*
X176181633Y-105542064D01*
X176079309Y-105388925D01*
X175949075Y-105258691D01*
X175795936Y-105156367D01*
X175625776Y-105085885D01*
X175523675Y-105065576D01*
X175966462Y-104471246D01*
X175967874Y-104469678D01*
X175988721Y-104441369D01*
X176009804Y-104413071D01*
X176010897Y-104411257D01*
X176440498Y-103827895D01*
X176452813Y-103812713D01*
X176462595Y-103797890D01*
X176466641Y-103792396D01*
X176574936Y-103747539D01*
X176728075Y-103645215D01*
X176858309Y-103514981D01*
X176960633Y-103361842D01*
X177031115Y-103191682D01*
X177067047Y-103011042D01*
X177067047Y-102826864D01*
X177038519Y-102683448D01*
X177060776Y-102679021D01*
X177230936Y-102608539D01*
X177384075Y-102506215D01*
X177514309Y-102375981D01*
X177616633Y-102222842D01*
X177687115Y-102052682D01*
X177723047Y-101872042D01*
X177723047Y-101687864D01*
X177687115Y-101507224D01*
X177624415Y-101355852D01*
X177638760Y-101330007D01*
X177655301Y-101300891D01*
X177656833Y-101297445D01*
X177658668Y-101294140D01*
X177672002Y-101263337D01*
X177830374Y-100907224D01*
X177922647Y-100749408D01*
X177924231Y-100747189D01*
X177941482Y-100717193D01*
X177958957Y-100687305D01*
X177960096Y-100684827D01*
X177985717Y-100640278D01*
X178144958Y-100671953D01*
X178329136Y-100671953D01*
X178509776Y-100636021D01*
X178679936Y-100565539D01*
X178833075Y-100463215D01*
X178963309Y-100332981D01*
X179065633Y-100179842D01*
X179136115Y-100009682D01*
X179172047Y-99829042D01*
X179172047Y-99644864D01*
X179167569Y-99622354D01*
X179318765Y-99347585D01*
X179336277Y-99315900D01*
X179336554Y-99315257D01*
X179336894Y-99314639D01*
X179351278Y-99281075D01*
X179907529Y-97989708D01*
X179913533Y-97977890D01*
X179922281Y-97955462D01*
X179931815Y-97933327D01*
X179935845Y-97920683D01*
X180263645Y-97080220D01*
X180270590Y-97064911D01*
X180277201Y-97045463D01*
X180284664Y-97026329D01*
X180289208Y-97010144D01*
X181172133Y-94412895D01*
X181183065Y-94381958D01*
X181184157Y-94377525D01*
X181185621Y-94373218D01*
X181193063Y-94341367D01*
X182425249Y-89338570D01*
X182430429Y-89326433D01*
X182443123Y-89266002D01*
X182448921Y-89242460D01*
X182450794Y-89229480D01*
X182453492Y-89216636D01*
X182456128Y-89192516D01*
X182464945Y-89131417D01*
X182464246Y-89118242D01*
X182783660Y-86195699D01*
X182784321Y-86193556D01*
X182791776Y-86121436D01*
X182795604Y-86086412D01*
X182795628Y-86084174D01*
X182795857Y-86081958D01*
X182796027Y-86046876D01*
X182796803Y-85974226D01*
X182796388Y-85972018D01*
X182808930Y-83376899D01*
X182809884Y-83361883D01*
X182809110Y-83339603D01*
X182809218Y-83317294D01*
X182807815Y-83302304D01*
X182799009Y-83048736D01*
X183485065Y-83048736D01*
X183485065Y-83390502D01*
X183551740Y-83725700D01*
X183682528Y-84041450D01*
X183872402Y-84325617D01*
X184114067Y-84567282D01*
X184398234Y-84757156D01*
X184713984Y-84887944D01*
X185049182Y-84954619D01*
X185390948Y-84954619D01*
X185726146Y-84887944D01*
X186041896Y-84757156D01*
X186326063Y-84567282D01*
X186567728Y-84325617D01*
X186757602Y-84041450D01*
X186888390Y-83725700D01*
X186955065Y-83390502D01*
X186955065Y-83048736D01*
X186888390Y-82713538D01*
X186757602Y-82397788D01*
X186567728Y-82113621D01*
X186326063Y-81871956D01*
X186041896Y-81682082D01*
X185726146Y-81551294D01*
X185390948Y-81484619D01*
X185049182Y-81484619D01*
X184713984Y-81551294D01*
X184398234Y-81682082D01*
X184114067Y-81871956D01*
X183872402Y-82113621D01*
X183682528Y-82397788D01*
X183551740Y-82713538D01*
X183485065Y-83048736D01*
X182799009Y-83048736D01*
X182756708Y-81830785D01*
X182756963Y-81825687D01*
X182755412Y-81793469D01*
X182754293Y-81761263D01*
X182753617Y-81756208D01*
X182649675Y-79597718D01*
X182649880Y-79591753D01*
X182647881Y-79560461D01*
X182646371Y-79529108D01*
X182645500Y-79523198D01*
X182556063Y-78123301D01*
X182554910Y-78094862D01*
X182553685Y-78086088D01*
X182553120Y-78077240D01*
X182548527Y-78049136D01*
X182483354Y-77582222D01*
X182308519Y-76214796D01*
X182308056Y-76205947D01*
X182303789Y-76177802D01*
X182300175Y-76149535D01*
X182298193Y-76140889D01*
X181999574Y-74171146D01*
X181999703Y-74157101D01*
X181988373Y-74097266D01*
X181984865Y-74074125D01*
X181981429Y-74060591D01*
X181978830Y-74046866D01*
X181972240Y-74024398D01*
X181957256Y-73965382D01*
X181951211Y-73952706D01*
X181459553Y-72276515D01*
X181458655Y-72272064D01*
X181449040Y-72240675D01*
X181439814Y-72209220D01*
X181438117Y-72205015D01*
X181113771Y-71146119D01*
X180841712Y-70048168D01*
X180836501Y-70023760D01*
X180832737Y-70011950D01*
X180829758Y-69999926D01*
X180821413Y-69976415D01*
X180542017Y-69099691D01*
X180538379Y-69085389D01*
X180530691Y-69064149D01*
X180523830Y-69042620D01*
X180517991Y-69029063D01*
X179957722Y-67481202D01*
X179851743Y-66889485D01*
X179465234Y-64114542D01*
X179359357Y-63161655D01*
X179358933Y-63151117D01*
X179355234Y-63124550D01*
X179352275Y-63097921D01*
X179350091Y-63087614D01*
X179244560Y-62329709D01*
X179240661Y-62298295D01*
X179239417Y-62292774D01*
X179238636Y-62287166D01*
X179231215Y-62256379D01*
X179092785Y-61642092D01*
X179099633Y-61631842D01*
X179170115Y-61461682D01*
X179206047Y-61281042D01*
X179206047Y-61096864D01*
X179170115Y-60916224D01*
X179099633Y-60746064D01*
X178997309Y-60592925D01*
X178867075Y-60462691D01*
X178713936Y-60360367D01*
X178543776Y-60289885D01*
X178363136Y-60253953D01*
X178178958Y-60253953D01*
X177998318Y-60289885D01*
X177828158Y-60360367D01*
X177675019Y-60462691D01*
X177544785Y-60592925D01*
X177442461Y-60746064D01*
X177371979Y-60916224D01*
X177336047Y-61096864D01*
X177336047Y-61281042D01*
X177371979Y-61461682D01*
X177442461Y-61631842D01*
X177544785Y-61784981D01*
X177577355Y-61817551D01*
X177580071Y-61841540D01*
X177580928Y-61845545D01*
X177581433Y-61849611D01*
X177588754Y-61882098D01*
X177603558Y-61951247D01*
X177605189Y-61955028D01*
X177742678Y-62565137D01*
X177846858Y-63313337D01*
X177952739Y-64266269D01*
X177953164Y-64276821D01*
X177956861Y-64303365D01*
X177959819Y-64329985D01*
X177962007Y-64340311D01*
X178016663Y-64732709D01*
X178014873Y-64728761D01*
X177869833Y-64400003D01*
X177858811Y-64373416D01*
X177854769Y-64365860D01*
X177851315Y-64358030D01*
X177837188Y-64332991D01*
X177620401Y-63927693D01*
X177312223Y-63272816D01*
X177127860Y-62858000D01*
X177125533Y-62851390D01*
X177112701Y-62823892D01*
X177100381Y-62796173D01*
X177096922Y-62790082D01*
X176921462Y-62414095D01*
X176926047Y-62391042D01*
X176926047Y-62206864D01*
X176890115Y-62026224D01*
X176819633Y-61856064D01*
X176717309Y-61702925D01*
X176587075Y-61572691D01*
X176433936Y-61470367D01*
X176263776Y-61399885D01*
X176083136Y-61363953D01*
X175898958Y-61363953D01*
X175718318Y-61399885D01*
X175548158Y-61470367D01*
X175395019Y-61572691D01*
X175264785Y-61702925D01*
X175162461Y-61856064D01*
X175149544Y-61887248D01*
X174866060Y-61468626D01*
X173363069Y-59537583D01*
X171735741Y-57710096D01*
X170015174Y-56017746D01*
X170015476Y-56017871D01*
X170268565Y-56068213D01*
X170526613Y-56068213D01*
X170779702Y-56017871D01*
X171018107Y-55919120D01*
X171232666Y-55775757D01*
X171415133Y-55593290D01*
X171558496Y-55378731D01*
X171657247Y-55140326D01*
X171707589Y-54887237D01*
X171707589Y-54629189D01*
X171676112Y-54470942D01*
X171730243Y-54470942D01*
X171983332Y-54420600D01*
X172221737Y-54321849D01*
X172436296Y-54178486D01*
X172618763Y-53996019D01*
X172762126Y-53781460D01*
X172860877Y-53543055D01*
X172911219Y-53289966D01*
X172911219Y-53031918D01*
X172860877Y-52778829D01*
X172762126Y-52540424D01*
X172618763Y-52325865D01*
X172436296Y-52143398D01*
X172221737Y-52000035D01*
X171983332Y-51901284D01*
X171730243Y-51850942D01*
X171472195Y-51850942D01*
X171313948Y-51882419D01*
X171313948Y-51828288D01*
X171263606Y-51575199D01*
X171164855Y-51336794D01*
X171021492Y-51122235D01*
X170839025Y-50939768D01*
X170624466Y-50796405D01*
X170386061Y-50697654D01*
X170132972Y-50647312D01*
X169874924Y-50647312D01*
X169709507Y-50680215D01*
X169691227Y-50496692D01*
X169616409Y-50251027D01*
X169495100Y-50024678D01*
X169432795Y-49939322D01*
X169196715Y-49916295D01*
X168584534Y-50728686D01*
X168600507Y-50740722D01*
X168447646Y-50943576D01*
X168431673Y-50931539D01*
X167997314Y-51507954D01*
X167997313Y-51507954D01*
X167380904Y-52325957D01*
X167396877Y-52337993D01*
X167244016Y-52540847D01*
X167228043Y-52528810D01*
X167216007Y-52544783D01*
X167013153Y-52391922D01*
X167025190Y-52375949D01*
X166207187Y-51759540D01*
X165984866Y-51790785D01*
X165748156Y-52099806D01*
X165683032Y-52206600D01*
X165639994Y-52324046D01*
X165620697Y-52447633D01*
X165625491Y-52563203D01*
X164132855Y-51588015D01*
X163682119Y-51334365D01*
X166328803Y-51334365D01*
X166360048Y-51556687D01*
X167178051Y-52173096D01*
X167616639Y-51591069D01*
X167618941Y-51588015D01*
X167794460Y-51355093D01*
X168228820Y-50778678D01*
X167415741Y-50165979D01*
X167195837Y-50253703D01*
X167121562Y-50499534D01*
X167096673Y-50755131D01*
X167098049Y-50768948D01*
X166981391Y-50773787D01*
X166859827Y-50803252D01*
X166746347Y-50855867D01*
X166645313Y-50929610D01*
X166560606Y-51021648D01*
X166328803Y-51334365D01*
X163682119Y-51334365D01*
X162000316Y-50387939D01*
X161112827Y-49963126D01*
X167568602Y-49963126D01*
X168381681Y-50575825D01*
X168993861Y-49763434D01*
X168906654Y-49542846D01*
X168807430Y-49506482D01*
X168556413Y-49452263D01*
X168299642Y-49448057D01*
X168046983Y-49494026D01*
X167808148Y-49588403D01*
X167592314Y-49727560D01*
X167568602Y-49963126D01*
X161112827Y-49963126D01*
X159793125Y-49331427D01*
X157520935Y-48423100D01*
X155193681Y-47666929D01*
X152821539Y-47066221D01*
X150414882Y-46623603D01*
X147984235Y-46341010D01*
X145540225Y-46219677D01*
X143093539Y-46260136D01*
X140654877Y-46462210D01*
X138234902Y-46825014D01*
X135844196Y-47346962D01*
X133493212Y-48025773D01*
X131192232Y-48858477D01*
X128951316Y-49841434D01*
X126780264Y-50970345D01*
X124688569Y-52240273D01*
X122685378Y-53645667D01*
X120779450Y-55180380D01*
X118979119Y-56837702D01*
X117292257Y-58610385D01*
X115726241Y-60490678D01*
X114287919Y-62470358D01*
X112983580Y-64540770D01*
X111818927Y-66692860D01*
X110799054Y-68917217D01*
X109928419Y-71204115D01*
X109210830Y-73543554D01*
X108649425Y-75925303D01*
X108246659Y-78338949D01*
X108004293Y-80773937D01*
X107923386Y-83219619D01*
X106413386Y-83219619D01*
X106413386Y-83048736D01*
X106346711Y-82713538D01*
X106215923Y-82397788D01*
X106026049Y-82113621D01*
X105784384Y-81871956D01*
X105500217Y-81682082D01*
X105184467Y-81551294D01*
X104849269Y-81484619D01*
X104507503Y-81484619D01*
X104172305Y-81551294D01*
X103856555Y-81682082D01*
X103572388Y-81871956D01*
X103330723Y-82113621D01*
X103140849Y-82397788D01*
X103010061Y-82713538D01*
X102943386Y-83048736D01*
X101433238Y-83048736D01*
X101433238Y-81905334D01*
X101591947Y-79281560D01*
X101908786Y-76672156D01*
X102382599Y-74086643D01*
X103011657Y-71534455D01*
X103793665Y-69024905D01*
X104725768Y-66567149D01*
X105804567Y-64170157D01*
X107026124Y-61842675D01*
X108385982Y-59593194D01*
X109879180Y-57429924D01*
X111500268Y-55360757D01*
X113243332Y-53393245D01*
X115102012Y-51534565D01*
X117069524Y-49791501D01*
X119138691Y-48170413D01*
X121301961Y-46677215D01*
X123551442Y-45317357D01*
X125878924Y-44095800D01*
X128275916Y-43017001D01*
X128851434Y-42798736D01*
X143193386Y-42798736D01*
X143193386Y-43140502D01*
X143260061Y-43475700D01*
X143390849Y-43791450D01*
X143580723Y-44075617D01*
X143822388Y-44317282D01*
X144106555Y-44507156D01*
X144422305Y-44637944D01*
X144757503Y-44704619D01*
X145099269Y-44704619D01*
X145434467Y-44637944D01*
X145750217Y-44507156D01*
X146034384Y-44317282D01*
X146276049Y-44075617D01*
X146465923Y-43791450D01*
X146596711Y-43475700D01*
X146663386Y-43140502D01*
X146663386Y-42798736D01*
X146596711Y-42463538D01*
X146465923Y-42147788D01*
X146276049Y-41863621D01*
X146034384Y-41621956D01*
X145750217Y-41432082D01*
X145434467Y-41301294D01*
X145099269Y-41234619D01*
X144757503Y-41234619D01*
X144422305Y-41301294D01*
X144106555Y-41432082D01*
X143822388Y-41621956D01*
X143580723Y-41863621D01*
X143390849Y-42147788D01*
X143260061Y-42463538D01*
X143193386Y-42798736D01*
X128851434Y-42798736D01*
X130733672Y-42084898D01*
X133243222Y-41302890D01*
X135795410Y-40673832D01*
X138380923Y-40200019D01*
X140990327Y-39883180D01*
X143614101Y-39724471D01*
X146242671Y-39724471D01*
X148866445Y-39883180D01*
M02*
