M48
; DRILL file {KiCad (5.1.5)-3} date 01/15/20 14:36:58
; FORMAT={-:-/ absolute / metric / decimal}
; #@! TF.CreationDate,2020-01-15T14:36:58+01:00
; #@! TF.GenerationSoftware,Kicad,Pcbnew,(5.1.5)-3
FMAT,2
METRIC
T1C0.400
T2C0.800
T3C0.900
T4C2.200
%
G90
G05
T1
X175.353Y-105.985
X175.991Y-62.299
X176.132Y-102.919
X176.788Y-101.78
X177.521Y-109.376
X177.573Y-107.162
X178.237Y-99.737
X178.271Y-61.189
X178.551Y-103.729
X179.161Y-102.079
X179.721Y-103.199
X180.191Y-104.389
X180.801Y-102.699
X182.535Y-103.469
X182.8Y-101.94
X183.581Y-98.919
T2
X167.203Y-52.351
X168.407Y-50.754
X168.8Y-53.555
X170.004Y-51.957
X170.398Y-54.758
X171.601Y-53.161
T3
X157.731Y-121.429
X160.133Y-120.602
X122.801Y-116.889
X125.001Y-118.159
X115.981Y-111.319
X117.927Y-112.952
X150.651Y-122.949
X153.172Y-122.639
X136.681Y-122.589
X139.19Y-122.986
X143.661Y-123.479
X146.201Y-123.479
X164.891Y-118.279
X166.972Y-116.822
X129.721Y-120.569
X132.137Y-121.354
X172.021Y-113.039
X173.817Y-111.243
T4
X104.678Y-83.22
X185.22Y-83.22
X144.928Y-42.97
T0
M30
