G04 #@! TF.GenerationSoftware,KiCad,Pcbnew,(5.1.5)-3*
G04 #@! TF.CreationDate,2020-01-15T14:34:41+01:00*
G04 #@! TF.ProjectId,ring_pcb_5mm_leds,72696e67-5f70-4636-925f-356d6d5f6c65,rev?*
G04 #@! TF.SameCoordinates,Original*
G04 #@! TF.FileFunction,Legend,Bot*
G04 #@! TF.FilePolarity,Positive*
%FSLAX46Y46*%
G04 Gerber Fmt 4.6, Leading zero omitted, Abs format (unit mm)*
G04 Created by KiCad (PCBNEW (5.1.5)-3) date 2020-01-15 14:34:41*
%MOMM*%
%LPD*%
G04 APERTURE LIST*
%ADD10C,0.120000*%
%ADD11C,0.150000*%
G04 APERTURE END LIST*
D10*
X113999743Y-111673296D02*
X115985957Y-109306218D01*
X119453924Y-112135293D02*
G75*
G03X119453924Y-112135293I-2500001J0D01*
G01*
X119244098Y-114057581D02*
G75*
G03X115985847Y-109306349I-2290175J1922288D01*
G01*
X119244693Y-114056874D02*
G75*
G02X113999852Y-111673165I-2290770J1921581D01*
G01*
X172201359Y-115043601D02*
X170016399Y-112858641D01*
X175419073Y-112140927D02*
G75*
G03X175419073Y-112140927I-2500000J0D01*
G01*
X175033649Y-110027003D02*
G75*
G03X170016519Y-112858761I-2114576J-2113924D01*
G01*
X175032997Y-110026351D02*
G75*
G02X172201239Y-115043481I-2113924J-2114576D01*
G01*
X120911374Y-117581962D02*
X122456374Y-114905944D01*
X126400899Y-117523953D02*
G75*
G03X126400899Y-117523953I-2500000J0D01*
G01*
X126490084Y-119019353D02*
G75*
G03X122456289Y-114906091I-2589185J1495400D01*
G01*
X126490546Y-119018553D02*
G75*
G02X120911459Y-117581815I-2589647J1494600D01*
G01*
X164720516Y-120284457D02*
X162948165Y-117753277D01*
X168431370Y-117550511D02*
G75*
G03X168431370Y-117550511I-2500000J0D01*
G01*
X168380899Y-115835896D02*
G75*
G03X162948263Y-117753416I-2449529J-1714615D01*
G01*
X168380370Y-115835139D02*
G75*
G02X164720419Y-120284317I-2449000J-1715372D01*
G01*
X128016753Y-121639703D02*
X128971615Y-118700939D01*
X133428889Y-120961405D02*
G75*
G03X133428889Y-120961405I-2500000J0D01*
G01*
X133772406Y-121885806D02*
G75*
G03X128971563Y-118701100I-2843517J924401D01*
G01*
X133772692Y-121884927D02*
G75*
G02X128016805Y-121639542I-2843803J923522D01*
G01*
X157014331Y-123309762D02*
X156008325Y-120388110D01*
X161431855Y-121015481D02*
G75*
G03X161431855Y-121015481I-2499999J0D01*
G01*
X161759107Y-120042469D02*
G75*
G03X156008381Y-120388270I-2827251J-973012D01*
G01*
X161758807Y-120041596D02*
G75*
G02X157014275Y-123309601I-2826951J-973885D01*
G01*
X135165238Y-123913131D02*
X135648620Y-120861174D01*
X140435411Y-122787625D02*
G75*
G03X140435411Y-122787625I-2500000J0D01*
G01*
X140888527Y-123255821D02*
G75*
G03X135648594Y-120861342I-2953116J468196D01*
G01*
X140888671Y-123254908D02*
G75*
G02X135165264Y-123912963I-2953260J467283D01*
G01*
X149558951Y-124639648D02*
X149182374Y-121572681D01*
X154411581Y-122794179D02*
G75*
G03X154411581Y-122794179I-2500000J0D01*
G01*
X154879351Y-122430248D02*
G75*
G03X149182395Y-121572849I-2967770J-363931D01*
G01*
X154879238Y-122429331D02*
G75*
G02X149558930Y-124639480I-2967657J-364848D01*
G01*
X142371047Y-125023953D02*
X142371047Y-121933953D01*
X147431047Y-123478953D02*
G75*
G03X147431047Y-123478953I-2500000J0D01*
G01*
X147921047Y-123479415D02*
G75*
G03X142371047Y-121934123I-2990000J462D01*
G01*
X147921047Y-123478491D02*
G75*
G02X142371047Y-125023783I-2990000J-462D01*
G01*
D11*
X115124675Y-115449935D02*
X115767463Y-114683890D01*
X115585071Y-114530846D01*
X115445028Y-114475497D01*
X115310853Y-114487236D01*
X115213157Y-114529584D01*
X115054243Y-114644888D01*
X114962416Y-114754323D01*
X114876459Y-114930845D01*
X114851719Y-115034411D01*
X114863458Y-115168585D01*
X114942284Y-115296890D01*
X115124675Y-115449935D01*
X114322153Y-114776538D02*
X114176239Y-114654103D01*
X114133892Y-114556406D01*
X114128022Y-114489319D01*
X114146893Y-114318666D01*
X114232850Y-114142144D01*
X114477721Y-113850318D01*
X114575418Y-113807970D01*
X114642505Y-113802101D01*
X114746070Y-113826840D01*
X114891984Y-113949276D01*
X114934331Y-114046972D01*
X114940201Y-114114059D01*
X114915461Y-114217625D01*
X114762416Y-114400017D01*
X114664720Y-114442364D01*
X114597633Y-114448234D01*
X114494067Y-114423494D01*
X114348154Y-114301058D01*
X114305807Y-114203362D01*
X114299937Y-114136275D01*
X114324677Y-114032709D01*
X176086840Y-114242922D02*
X175379734Y-113535815D01*
X175211375Y-113704174D01*
X175144031Y-113838861D01*
X175144031Y-113973548D01*
X175177703Y-114074563D01*
X175278718Y-114242922D01*
X175379734Y-114343937D01*
X175548092Y-114444953D01*
X175649108Y-114478624D01*
X175783795Y-114478624D01*
X175918482Y-114411281D01*
X176086840Y-114242922D01*
X174874657Y-114646983D02*
X174908329Y-114545968D01*
X174908329Y-114478624D01*
X174874657Y-114377609D01*
X174840985Y-114343937D01*
X174739970Y-114310265D01*
X174672627Y-114310265D01*
X174571611Y-114343937D01*
X174436924Y-114478624D01*
X174403253Y-114579640D01*
X174403253Y-114646983D01*
X174436924Y-114747998D01*
X174470596Y-114781670D01*
X174571611Y-114815342D01*
X174638955Y-114815342D01*
X174739970Y-114781670D01*
X174874657Y-114646983D01*
X174975672Y-114613311D01*
X175043016Y-114613311D01*
X175144031Y-114646983D01*
X175278718Y-114781670D01*
X175312390Y-114882685D01*
X175312390Y-114950029D01*
X175278718Y-115051044D01*
X175144031Y-115185731D01*
X175043016Y-115219403D01*
X174975672Y-115219403D01*
X174874657Y-115185731D01*
X174739970Y-115051044D01*
X174706298Y-114950029D01*
X174706298Y-114882685D01*
X174739970Y-114781670D01*
X122745065Y-121259774D02*
X123245065Y-120393748D01*
X123038869Y-120274700D01*
X122891341Y-120244511D01*
X122761244Y-120279371D01*
X122672385Y-120338040D01*
X122535908Y-120479188D01*
X122464479Y-120602905D01*
X122410481Y-120791672D01*
X122404101Y-120897960D01*
X122438960Y-121028058D01*
X122538869Y-121140726D01*
X122745065Y-121259774D01*
X122461518Y-119941367D02*
X121884168Y-119608034D01*
X121755322Y-120688345D01*
X168698134Y-120202167D02*
X168124557Y-119383015D01*
X167929521Y-119519581D01*
X167839813Y-119640528D01*
X167816424Y-119773169D01*
X167832044Y-119878496D01*
X167902289Y-120061838D01*
X167984228Y-120178860D01*
X168132488Y-120307576D01*
X168226122Y-120358277D01*
X168358763Y-120381665D01*
X168503098Y-120338733D01*
X168698134Y-120202167D01*
X166954340Y-120202410D02*
X167110369Y-120093157D01*
X167215697Y-120077538D01*
X167282017Y-120089232D01*
X167441971Y-120151628D01*
X167590231Y-120280344D01*
X167808736Y-120592402D01*
X167824355Y-120697729D01*
X167812661Y-120764050D01*
X167761960Y-120857683D01*
X167605931Y-120966936D01*
X167500603Y-120982555D01*
X167434283Y-120970861D01*
X167340649Y-120920160D01*
X167204084Y-120725123D01*
X167188465Y-120619796D01*
X167200159Y-120553475D01*
X167250860Y-120459842D01*
X167406889Y-120350589D01*
X167512217Y-120334970D01*
X167578537Y-120346664D01*
X167672171Y-120397365D01*
X130539223Y-124792276D02*
X130848240Y-123841220D01*
X130621798Y-123767644D01*
X130471218Y-123768787D01*
X130351211Y-123829934D01*
X130276492Y-123905796D01*
X130172344Y-124072234D01*
X130128198Y-124208100D01*
X130114626Y-124403968D01*
X130130485Y-124509260D01*
X130191631Y-124629267D01*
X130312781Y-124718701D01*
X130539223Y-124792276D01*
X129444300Y-123385052D02*
X129897184Y-123532203D01*
X129795321Y-123999802D01*
X129764748Y-123939798D01*
X129688886Y-123865080D01*
X129462444Y-123791504D01*
X129357152Y-123807363D01*
X129297149Y-123837936D01*
X129222430Y-123913798D01*
X129148855Y-124140240D01*
X129164713Y-124245532D01*
X129195286Y-124305535D01*
X129271148Y-124380254D01*
X129497590Y-124453829D01*
X129602882Y-124437971D01*
X129662885Y-124407398D01*
X160914210Y-124251387D02*
X160588642Y-123305868D01*
X160363518Y-123383384D01*
X160243948Y-123474919D01*
X160184905Y-123595975D01*
X160170887Y-123701527D01*
X160187875Y-123897129D01*
X160234385Y-124032203D01*
X160341422Y-124196799D01*
X160417453Y-124271345D01*
X160538509Y-124330388D01*
X160689087Y-124328903D01*
X160914210Y-124251387D01*
X159346424Y-124086138D02*
X159563469Y-124716484D01*
X159447521Y-123648425D02*
X159905193Y-124246279D01*
X159319872Y-124447821D01*
X138107286Y-126686227D02*
X138263720Y-125698539D01*
X138028556Y-125661293D01*
X137880009Y-125685978D01*
X137771044Y-125765145D01*
X137709113Y-125851761D01*
X137632283Y-126032443D01*
X137609936Y-126173541D01*
X137627171Y-126369122D01*
X137659306Y-126470636D01*
X137738473Y-126579601D01*
X137872122Y-126648981D01*
X138107286Y-126686227D01*
X137370097Y-125557003D02*
X136758671Y-125460163D01*
X137028307Y-125888570D01*
X136887208Y-125866222D01*
X136785693Y-125898356D01*
X136731211Y-125937940D01*
X136669280Y-126024556D01*
X136632034Y-126259720D01*
X136664168Y-126361235D01*
X136703752Y-126415717D01*
X136790368Y-126477648D01*
X137072564Y-126522344D01*
X137174079Y-126490209D01*
X137228561Y-126450626D01*
X153331771Y-126418010D02*
X153209902Y-125425464D01*
X152973582Y-125454481D01*
X152837593Y-125519155D01*
X152754671Y-125625289D01*
X152719013Y-125725621D01*
X152694963Y-125920481D01*
X152712373Y-126062273D01*
X152782850Y-126245526D01*
X152841721Y-126334251D01*
X152947855Y-126417173D01*
X153095451Y-126447027D01*
X153331771Y-126418010D01*
X152276227Y-125636058D02*
X152223159Y-125594598D01*
X152122828Y-125558940D01*
X151886507Y-125587957D01*
X151797782Y-125646827D01*
X151756322Y-125699895D01*
X151720664Y-125800226D01*
X151732271Y-125894754D01*
X151796945Y-126030743D01*
X152433754Y-126528273D01*
X151819320Y-126603716D01*
X145717142Y-127207333D02*
X145717142Y-126207333D01*
X145479047Y-126207333D01*
X145336189Y-126254953D01*
X145240951Y-126350191D01*
X145193332Y-126445429D01*
X145145713Y-126635905D01*
X145145713Y-126778762D01*
X145193332Y-126969238D01*
X145240951Y-127064476D01*
X145336189Y-127159714D01*
X145479047Y-127207333D01*
X145717142Y-127207333D01*
X144193332Y-127207333D02*
X144764761Y-127207333D01*
X144479047Y-127207333D02*
X144479047Y-126207333D01*
X144574285Y-126350191D01*
X144669523Y-126445429D01*
X144764761Y-126493048D01*
M02*
