G04 #@! TF.GenerationSoftware,KiCad,Pcbnew,(5.1.5)-3*
G04 #@! TF.CreationDate,2020-01-15T14:34:41+01:00*
G04 #@! TF.ProjectId,ring_pcb_5mm_leds,72696e67-5f70-4636-925f-356d6d5f6c65,rev?*
G04 #@! TF.SameCoordinates,Original*
G04 #@! TF.FileFunction,Copper,L1,Top*
G04 #@! TF.FilePolarity,Positive*
%FSLAX46Y46*%
G04 Gerber Fmt 4.6, Leading zero omitted, Abs format (unit mm)*
G04 Created by KiCad (PCBNEW (5.1.5)-3) date 2020-01-15 14:34:41*
%MOMM*%
%LPD*%
G04 APERTURE LIST*
%ADD10C,0.100000*%
%ADD11C,1.350000*%
%ADD12C,1.800000*%
%ADD13R,1.800000X1.800000*%
%ADD14C,0.600000*%
%ADD15C,0.250000*%
G04 APERTURE END LIST*
D10*
G36*
X181329511Y-66451415D02*
G01*
X181118202Y-65998262D01*
X181661987Y-65744691D01*
X181873296Y-66197845D01*
X181329511Y-66451415D01*
G37*
G36*
X180792786Y-65300405D02*
G01*
X180581477Y-64847251D01*
X181125261Y-64593680D01*
X181336571Y-65046834D01*
X180792786Y-65300405D01*
G37*
G04 #@! TA.AperFunction,SMDPad,CuDef*
G36*
X182375233Y-98155007D02*
G01*
X182389630Y-98156505D01*
X182403811Y-98159406D01*
X182417640Y-98163683D01*
X182694849Y-98264579D01*
X182708192Y-98270192D01*
X182720920Y-98277085D01*
X182732912Y-98285192D01*
X182744051Y-98294436D01*
X182754230Y-98304727D01*
X182763352Y-98315966D01*
X182771328Y-98328045D01*
X182778081Y-98340848D01*
X182783548Y-98354251D01*
X182787674Y-98368125D01*
X182790420Y-98382337D01*
X182791761Y-98396750D01*
X182791682Y-98411225D01*
X182790184Y-98425622D01*
X182787283Y-98439803D01*
X182783006Y-98453632D01*
X182665009Y-98777826D01*
X182659396Y-98791169D01*
X182652503Y-98803897D01*
X182644396Y-98815889D01*
X182635152Y-98827028D01*
X182624861Y-98837207D01*
X182613622Y-98846329D01*
X182601543Y-98854305D01*
X182588740Y-98861058D01*
X182575337Y-98866525D01*
X182561463Y-98870651D01*
X182547251Y-98873397D01*
X182532838Y-98874738D01*
X182518363Y-98874659D01*
X182503966Y-98873161D01*
X182489785Y-98870260D01*
X182475956Y-98865983D01*
X182198747Y-98765087D01*
X182185404Y-98759474D01*
X182172676Y-98752581D01*
X182160684Y-98744474D01*
X182149545Y-98735230D01*
X182139366Y-98724939D01*
X182130244Y-98713700D01*
X182122268Y-98701621D01*
X182115515Y-98688818D01*
X182110048Y-98675415D01*
X182105922Y-98661541D01*
X182103176Y-98647329D01*
X182101835Y-98632916D01*
X182101914Y-98618441D01*
X182103412Y-98604044D01*
X182106313Y-98589863D01*
X182110590Y-98576034D01*
X182228587Y-98251840D01*
X182234200Y-98238497D01*
X182241093Y-98225769D01*
X182249200Y-98213777D01*
X182258444Y-98202638D01*
X182268735Y-98192459D01*
X182279974Y-98183337D01*
X182292053Y-98175361D01*
X182304856Y-98168608D01*
X182318259Y-98163141D01*
X182332133Y-98159015D01*
X182346345Y-98156269D01*
X182360758Y-98154928D01*
X182375233Y-98155007D01*
G37*
G04 #@! TD.AperFunction*
G04 #@! TA.AperFunction,SMDPad,CuDef*
G36*
X181463731Y-97823247D02*
G01*
X181478128Y-97824745D01*
X181492309Y-97827646D01*
X181506138Y-97831923D01*
X181783347Y-97932819D01*
X181796690Y-97938432D01*
X181809418Y-97945325D01*
X181821410Y-97953432D01*
X181832549Y-97962676D01*
X181842728Y-97972967D01*
X181851850Y-97984206D01*
X181859826Y-97996285D01*
X181866579Y-98009088D01*
X181872046Y-98022491D01*
X181876172Y-98036365D01*
X181878918Y-98050577D01*
X181880259Y-98064990D01*
X181880180Y-98079465D01*
X181878682Y-98093862D01*
X181875781Y-98108043D01*
X181871504Y-98121872D01*
X181753507Y-98446066D01*
X181747894Y-98459409D01*
X181741001Y-98472137D01*
X181732894Y-98484129D01*
X181723650Y-98495268D01*
X181713359Y-98505447D01*
X181702120Y-98514569D01*
X181690041Y-98522545D01*
X181677238Y-98529298D01*
X181663835Y-98534765D01*
X181649961Y-98538891D01*
X181635749Y-98541637D01*
X181621336Y-98542978D01*
X181606861Y-98542899D01*
X181592464Y-98541401D01*
X181578283Y-98538500D01*
X181564454Y-98534223D01*
X181287245Y-98433327D01*
X181273902Y-98427714D01*
X181261174Y-98420821D01*
X181249182Y-98412714D01*
X181238043Y-98403470D01*
X181227864Y-98393179D01*
X181218742Y-98381940D01*
X181210766Y-98369861D01*
X181204013Y-98357058D01*
X181198546Y-98343655D01*
X181194420Y-98329781D01*
X181191674Y-98315569D01*
X181190333Y-98301156D01*
X181190412Y-98286681D01*
X181191910Y-98272284D01*
X181194811Y-98258103D01*
X181199088Y-98244274D01*
X181317085Y-97920080D01*
X181322698Y-97906737D01*
X181329591Y-97894009D01*
X181337698Y-97882017D01*
X181346942Y-97870878D01*
X181357233Y-97860699D01*
X181368472Y-97851577D01*
X181380551Y-97843601D01*
X181393354Y-97836848D01*
X181406757Y-97831381D01*
X181420631Y-97827255D01*
X181434843Y-97824509D01*
X181449256Y-97823168D01*
X181463731Y-97823247D01*
G37*
G04 #@! TD.AperFunction*
G04 #@! TA.AperFunction,SMDPad,CuDef*
G36*
X182217742Y-65871720D02*
G01*
X182450182Y-66370189D01*
X182449636Y-66370444D01*
X182460005Y-66392679D01*
X182476282Y-66438968D01*
X182487946Y-66486629D01*
X182494880Y-66535205D01*
X182497021Y-66584226D01*
X182494345Y-66633220D01*
X182486882Y-66681717D01*
X182474700Y-66729248D01*
X182457917Y-66775357D01*
X182436697Y-66819598D01*
X182411241Y-66861547D01*
X182381798Y-66900799D01*
X182348648Y-66936975D01*
X182312112Y-66969728D01*
X182272541Y-66998742D01*
X182230318Y-67023738D01*
X182208083Y-67034107D01*
X182208337Y-67034652D01*
X181755183Y-67245961D01*
X181754929Y-67245416D01*
X181732693Y-67255784D01*
X181686405Y-67272062D01*
X181638743Y-67283725D01*
X181590168Y-67290660D01*
X181541147Y-67292801D01*
X181492152Y-67290125D01*
X181443655Y-67282661D01*
X181396125Y-67270479D01*
X181350015Y-67253697D01*
X181305774Y-67232477D01*
X181263826Y-67207021D01*
X181224574Y-67177578D01*
X181188398Y-67144427D01*
X181155644Y-67107892D01*
X181126630Y-67068321D01*
X181101634Y-67026098D01*
X181091266Y-67003862D01*
X181090720Y-67004117D01*
X180858280Y-66505647D01*
X182217742Y-65871720D01*
G37*
G04 #@! TD.AperFunction*
G04 #@! TA.AperFunction,SMDPad,CuDef*
G36*
X182112087Y-65645143D02*
G01*
X180752625Y-66279071D01*
X180330007Y-65372763D01*
X181689469Y-64738835D01*
X182112087Y-65645143D01*
G37*
G04 #@! TD.AperFunction*
G04 #@! TA.AperFunction,SMDPad,CuDef*
G36*
X179992458Y-64647462D02*
G01*
X179982089Y-64625227D01*
X179965812Y-64578938D01*
X179954148Y-64531277D01*
X179947214Y-64482701D01*
X179945073Y-64433680D01*
X179947749Y-64384686D01*
X179955212Y-64336189D01*
X179967394Y-64288658D01*
X179984177Y-64242549D01*
X180005397Y-64198308D01*
X180030853Y-64156359D01*
X180060296Y-64117107D01*
X180093446Y-64080931D01*
X180129982Y-64048178D01*
X180169553Y-64019164D01*
X180211776Y-63994168D01*
X180234011Y-63983799D01*
X180233757Y-63983254D01*
X180686911Y-63771945D01*
X180687165Y-63772490D01*
X180709401Y-63762122D01*
X180755689Y-63745844D01*
X180803351Y-63734181D01*
X180851926Y-63727246D01*
X180900947Y-63725105D01*
X180949942Y-63727781D01*
X180998439Y-63735245D01*
X181045969Y-63747427D01*
X181092079Y-63764209D01*
X181136320Y-63785429D01*
X181178268Y-63810885D01*
X181217520Y-63840328D01*
X181253696Y-63873479D01*
X181286450Y-63910014D01*
X181315464Y-63949585D01*
X181340460Y-63991808D01*
X181350828Y-64014044D01*
X181351374Y-64013789D01*
X181583814Y-64512259D01*
X180224352Y-65146186D01*
X179991912Y-64647717D01*
X179992458Y-64647462D01*
G37*
G04 #@! TD.AperFunction*
G04 #@! TA.AperFunction,SMDPad,CuDef*
G36*
X180869482Y-99229127D02*
G01*
X180883879Y-99230625D01*
X180898060Y-99233526D01*
X180911889Y-99237803D01*
X181189098Y-99338699D01*
X181202441Y-99344312D01*
X181215169Y-99351205D01*
X181227161Y-99359312D01*
X181238300Y-99368556D01*
X181248479Y-99378847D01*
X181257601Y-99390086D01*
X181265577Y-99402165D01*
X181272330Y-99414968D01*
X181277797Y-99428371D01*
X181281923Y-99442245D01*
X181284669Y-99456457D01*
X181286010Y-99470870D01*
X181285931Y-99485345D01*
X181284433Y-99499742D01*
X181281532Y-99513923D01*
X181277255Y-99527752D01*
X181159258Y-99851946D01*
X181153645Y-99865289D01*
X181146752Y-99878017D01*
X181138645Y-99890009D01*
X181129401Y-99901148D01*
X181119110Y-99911327D01*
X181107871Y-99920449D01*
X181095792Y-99928425D01*
X181082989Y-99935178D01*
X181069586Y-99940645D01*
X181055712Y-99944771D01*
X181041500Y-99947517D01*
X181027087Y-99948858D01*
X181012612Y-99948779D01*
X180998215Y-99947281D01*
X180984034Y-99944380D01*
X180970205Y-99940103D01*
X180692996Y-99839207D01*
X180679653Y-99833594D01*
X180666925Y-99826701D01*
X180654933Y-99818594D01*
X180643794Y-99809350D01*
X180633615Y-99799059D01*
X180624493Y-99787820D01*
X180616517Y-99775741D01*
X180609764Y-99762938D01*
X180604297Y-99749535D01*
X180600171Y-99735661D01*
X180597425Y-99721449D01*
X180596084Y-99707036D01*
X180596163Y-99692561D01*
X180597661Y-99678164D01*
X180600562Y-99663983D01*
X180604839Y-99650154D01*
X180722836Y-99325960D01*
X180728449Y-99312617D01*
X180735342Y-99299889D01*
X180743449Y-99287897D01*
X180752693Y-99276758D01*
X180762984Y-99266579D01*
X180774223Y-99257457D01*
X180786302Y-99249481D01*
X180799105Y-99242728D01*
X180812508Y-99237261D01*
X180826382Y-99233135D01*
X180840594Y-99230389D01*
X180855007Y-99229048D01*
X180869482Y-99229127D01*
G37*
G04 #@! TD.AperFunction*
G04 #@! TA.AperFunction,SMDPad,CuDef*
G36*
X179957980Y-98897367D02*
G01*
X179972377Y-98898865D01*
X179986558Y-98901766D01*
X180000387Y-98906043D01*
X180277596Y-99006939D01*
X180290939Y-99012552D01*
X180303667Y-99019445D01*
X180315659Y-99027552D01*
X180326798Y-99036796D01*
X180336977Y-99047087D01*
X180346099Y-99058326D01*
X180354075Y-99070405D01*
X180360828Y-99083208D01*
X180366295Y-99096611D01*
X180370421Y-99110485D01*
X180373167Y-99124697D01*
X180374508Y-99139110D01*
X180374429Y-99153585D01*
X180372931Y-99167982D01*
X180370030Y-99182163D01*
X180365753Y-99195992D01*
X180247756Y-99520186D01*
X180242143Y-99533529D01*
X180235250Y-99546257D01*
X180227143Y-99558249D01*
X180217899Y-99569388D01*
X180207608Y-99579567D01*
X180196369Y-99588689D01*
X180184290Y-99596665D01*
X180171487Y-99603418D01*
X180158084Y-99608885D01*
X180144210Y-99613011D01*
X180129998Y-99615757D01*
X180115585Y-99617098D01*
X180101110Y-99617019D01*
X180086713Y-99615521D01*
X180072532Y-99612620D01*
X180058703Y-99608343D01*
X179781494Y-99507447D01*
X179768151Y-99501834D01*
X179755423Y-99494941D01*
X179743431Y-99486834D01*
X179732292Y-99477590D01*
X179722113Y-99467299D01*
X179712991Y-99456060D01*
X179705015Y-99443981D01*
X179698262Y-99431178D01*
X179692795Y-99417775D01*
X179688669Y-99403901D01*
X179685923Y-99389689D01*
X179684582Y-99375276D01*
X179684661Y-99360801D01*
X179686159Y-99346404D01*
X179689060Y-99332223D01*
X179693337Y-99318394D01*
X179811334Y-98994200D01*
X179816947Y-98980857D01*
X179823840Y-98968129D01*
X179831947Y-98956137D01*
X179841191Y-98944998D01*
X179851482Y-98934819D01*
X179862721Y-98925697D01*
X179874800Y-98917721D01*
X179887603Y-98910968D01*
X179901006Y-98905501D01*
X179914880Y-98901375D01*
X179929092Y-98898629D01*
X179943505Y-98897288D01*
X179957980Y-98897367D01*
G37*
G04 #@! TD.AperFunction*
G04 #@! TA.AperFunction,SMDPad,CuDef*
G36*
X174964880Y-60058836D02*
G01*
X174979198Y-60060960D01*
X174993239Y-60064477D01*
X175006868Y-60069354D01*
X175019953Y-60075543D01*
X175032369Y-60082984D01*
X175043995Y-60091607D01*
X175054720Y-60101328D01*
X175298672Y-60345280D01*
X175308393Y-60356005D01*
X175317016Y-60367631D01*
X175324457Y-60380047D01*
X175330646Y-60393132D01*
X175335523Y-60406761D01*
X175339040Y-60420802D01*
X175341164Y-60435120D01*
X175341874Y-60449578D01*
X175341164Y-60464036D01*
X175339040Y-60478354D01*
X175335523Y-60492395D01*
X175330646Y-60506024D01*
X175324457Y-60519109D01*
X175317016Y-60531525D01*
X175308393Y-60543151D01*
X175298672Y-60553876D01*
X175090076Y-60762472D01*
X175079351Y-60772193D01*
X175067725Y-60780816D01*
X175055309Y-60788257D01*
X175042224Y-60794446D01*
X175028595Y-60799323D01*
X175014554Y-60802840D01*
X175000236Y-60804964D01*
X174985778Y-60805674D01*
X174971320Y-60804964D01*
X174957002Y-60802840D01*
X174942961Y-60799323D01*
X174929332Y-60794446D01*
X174916247Y-60788257D01*
X174903831Y-60780816D01*
X174892205Y-60772193D01*
X174881480Y-60762472D01*
X174637528Y-60518520D01*
X174627807Y-60507795D01*
X174619184Y-60496169D01*
X174611743Y-60483753D01*
X174605554Y-60470668D01*
X174600677Y-60457039D01*
X174597160Y-60442998D01*
X174595036Y-60428680D01*
X174594326Y-60414222D01*
X174595036Y-60399764D01*
X174597160Y-60385446D01*
X174600677Y-60371405D01*
X174605554Y-60357776D01*
X174611743Y-60344691D01*
X174619184Y-60332275D01*
X174627807Y-60320649D01*
X174637528Y-60309924D01*
X174846124Y-60101328D01*
X174856849Y-60091607D01*
X174868475Y-60082984D01*
X174880891Y-60075543D01*
X174893976Y-60069354D01*
X174907605Y-60064477D01*
X174921646Y-60060960D01*
X174935964Y-60058836D01*
X174950422Y-60058126D01*
X174964880Y-60058836D01*
G37*
G04 #@! TD.AperFunction*
G04 #@! TA.AperFunction,SMDPad,CuDef*
G36*
X175650774Y-59372942D02*
G01*
X175665092Y-59375066D01*
X175679133Y-59378583D01*
X175692762Y-59383460D01*
X175705847Y-59389649D01*
X175718263Y-59397090D01*
X175729889Y-59405713D01*
X175740614Y-59415434D01*
X175984566Y-59659386D01*
X175994287Y-59670111D01*
X176002910Y-59681737D01*
X176010351Y-59694153D01*
X176016540Y-59707238D01*
X176021417Y-59720867D01*
X176024934Y-59734908D01*
X176027058Y-59749226D01*
X176027768Y-59763684D01*
X176027058Y-59778142D01*
X176024934Y-59792460D01*
X176021417Y-59806501D01*
X176016540Y-59820130D01*
X176010351Y-59833215D01*
X176002910Y-59845631D01*
X175994287Y-59857257D01*
X175984566Y-59867982D01*
X175775970Y-60076578D01*
X175765245Y-60086299D01*
X175753619Y-60094922D01*
X175741203Y-60102363D01*
X175728118Y-60108552D01*
X175714489Y-60113429D01*
X175700448Y-60116946D01*
X175686130Y-60119070D01*
X175671672Y-60119780D01*
X175657214Y-60119070D01*
X175642896Y-60116946D01*
X175628855Y-60113429D01*
X175615226Y-60108552D01*
X175602141Y-60102363D01*
X175589725Y-60094922D01*
X175578099Y-60086299D01*
X175567374Y-60076578D01*
X175323422Y-59832626D01*
X175313701Y-59821901D01*
X175305078Y-59810275D01*
X175297637Y-59797859D01*
X175291448Y-59784774D01*
X175286571Y-59771145D01*
X175283054Y-59757104D01*
X175280930Y-59742786D01*
X175280220Y-59728328D01*
X175280930Y-59713870D01*
X175283054Y-59699552D01*
X175286571Y-59685511D01*
X175291448Y-59671882D01*
X175297637Y-59658797D01*
X175305078Y-59646381D01*
X175313701Y-59634755D01*
X175323422Y-59624030D01*
X175532018Y-59415434D01*
X175542743Y-59405713D01*
X175554369Y-59397090D01*
X175566785Y-59389649D01*
X175579870Y-59383460D01*
X175593499Y-59378583D01*
X175607540Y-59375066D01*
X175621858Y-59372942D01*
X175636316Y-59372232D01*
X175650774Y-59372942D01*
G37*
G04 #@! TD.AperFunction*
D11*
X171601219Y-53160942D02*
X171601219Y-53160942D01*
X170397589Y-54758213D02*
X170397589Y-54758213D01*
X170003948Y-51957312D02*
X170003948Y-51957312D01*
X168800318Y-53554583D02*
X168800318Y-53554583D01*
X168406677Y-50753682D02*
X168406677Y-50753682D01*
G04 #@! TA.AperFunction,ComponentPad*
D10*
G36*
X167335901Y-53296257D02*
G01*
X166257743Y-52483807D01*
X167070193Y-51405649D01*
X168148351Y-52218099D01*
X167335901Y-53296257D01*
G37*
G04 #@! TD.AperFunction*
G04 #@! TA.AperFunction,SMDPad,CuDef*
G36*
X182977160Y-103958704D02*
G01*
X182991402Y-103961295D01*
X183005320Y-103965270D01*
X183018782Y-103970590D01*
X183031658Y-103977203D01*
X183330436Y-104149703D01*
X183342602Y-104157547D01*
X183353940Y-104166546D01*
X183364341Y-104176612D01*
X183373706Y-104187650D01*
X183381943Y-104199552D01*
X183388975Y-104212205D01*
X183394732Y-104225485D01*
X183399160Y-104239266D01*
X183402216Y-104253415D01*
X183403870Y-104267795D01*
X183404107Y-104282268D01*
X183402924Y-104296695D01*
X183400333Y-104310936D01*
X183396358Y-104324854D01*
X183391038Y-104338316D01*
X183384425Y-104351192D01*
X183236925Y-104606670D01*
X183229081Y-104618835D01*
X183220082Y-104630173D01*
X183210016Y-104640575D01*
X183198978Y-104649940D01*
X183187076Y-104658177D01*
X183174424Y-104665209D01*
X183161143Y-104670966D01*
X183147362Y-104675394D01*
X183133213Y-104678450D01*
X183118833Y-104680104D01*
X183104360Y-104680341D01*
X183089934Y-104679158D01*
X183075692Y-104676567D01*
X183061774Y-104672592D01*
X183048312Y-104667272D01*
X183035436Y-104660659D01*
X182736658Y-104488159D01*
X182724492Y-104480315D01*
X182713154Y-104471316D01*
X182702753Y-104461250D01*
X182693388Y-104450212D01*
X182685151Y-104438310D01*
X182678119Y-104425657D01*
X182672362Y-104412377D01*
X182667934Y-104398596D01*
X182664878Y-104384447D01*
X182663224Y-104370067D01*
X182662987Y-104355594D01*
X182664170Y-104341167D01*
X182666761Y-104326926D01*
X182670736Y-104313008D01*
X182676056Y-104299546D01*
X182682669Y-104286670D01*
X182830169Y-104031192D01*
X182838013Y-104019027D01*
X182847012Y-104007689D01*
X182857078Y-103997287D01*
X182868116Y-103987922D01*
X182880018Y-103979685D01*
X182892670Y-103972653D01*
X182905951Y-103966896D01*
X182919732Y-103962468D01*
X182933881Y-103959412D01*
X182948261Y-103957758D01*
X182962734Y-103957521D01*
X182977160Y-103958704D01*
G37*
G04 #@! TD.AperFunction*
G04 #@! TA.AperFunction,SMDPad,CuDef*
G36*
X182492160Y-104798748D02*
G01*
X182506402Y-104801339D01*
X182520320Y-104805314D01*
X182533782Y-104810634D01*
X182546658Y-104817247D01*
X182845436Y-104989747D01*
X182857602Y-104997591D01*
X182868940Y-105006590D01*
X182879341Y-105016656D01*
X182888706Y-105027694D01*
X182896943Y-105039596D01*
X182903975Y-105052249D01*
X182909732Y-105065529D01*
X182914160Y-105079310D01*
X182917216Y-105093459D01*
X182918870Y-105107839D01*
X182919107Y-105122312D01*
X182917924Y-105136739D01*
X182915333Y-105150980D01*
X182911358Y-105164898D01*
X182906038Y-105178360D01*
X182899425Y-105191236D01*
X182751925Y-105446714D01*
X182744081Y-105458879D01*
X182735082Y-105470217D01*
X182725016Y-105480619D01*
X182713978Y-105489984D01*
X182702076Y-105498221D01*
X182689424Y-105505253D01*
X182676143Y-105511010D01*
X182662362Y-105515438D01*
X182648213Y-105518494D01*
X182633833Y-105520148D01*
X182619360Y-105520385D01*
X182604934Y-105519202D01*
X182590692Y-105516611D01*
X182576774Y-105512636D01*
X182563312Y-105507316D01*
X182550436Y-105500703D01*
X182251658Y-105328203D01*
X182239492Y-105320359D01*
X182228154Y-105311360D01*
X182217753Y-105301294D01*
X182208388Y-105290256D01*
X182200151Y-105278354D01*
X182193119Y-105265701D01*
X182187362Y-105252421D01*
X182182934Y-105238640D01*
X182179878Y-105224491D01*
X182178224Y-105210111D01*
X182177987Y-105195638D01*
X182179170Y-105181211D01*
X182181761Y-105166970D01*
X182185736Y-105153052D01*
X182191056Y-105139590D01*
X182197669Y-105126714D01*
X182345169Y-104871236D01*
X182353013Y-104859071D01*
X182362012Y-104847733D01*
X182372078Y-104837331D01*
X182383116Y-104827966D01*
X182395018Y-104819729D01*
X182407670Y-104812697D01*
X182420951Y-104806940D01*
X182434732Y-104802512D01*
X182448881Y-104799456D01*
X182463261Y-104797802D01*
X182477734Y-104797565D01*
X182492160Y-104798748D01*
G37*
G04 #@! TD.AperFunction*
G04 #@! TA.AperFunction,SMDPad,CuDef*
G36*
X182189731Y-100185247D02*
G01*
X182204128Y-100186745D01*
X182218309Y-100189646D01*
X182232138Y-100193923D01*
X182509347Y-100294819D01*
X182522690Y-100300432D01*
X182535418Y-100307325D01*
X182547410Y-100315432D01*
X182558549Y-100324676D01*
X182568728Y-100334967D01*
X182577850Y-100346206D01*
X182585826Y-100358285D01*
X182592579Y-100371088D01*
X182598046Y-100384491D01*
X182602172Y-100398365D01*
X182604918Y-100412577D01*
X182606259Y-100426990D01*
X182606180Y-100441465D01*
X182604682Y-100455862D01*
X182601781Y-100470043D01*
X182597504Y-100483872D01*
X182479507Y-100808066D01*
X182473894Y-100821409D01*
X182467001Y-100834137D01*
X182458894Y-100846129D01*
X182449650Y-100857268D01*
X182439359Y-100867447D01*
X182428120Y-100876569D01*
X182416041Y-100884545D01*
X182403238Y-100891298D01*
X182389835Y-100896765D01*
X182375961Y-100900891D01*
X182361749Y-100903637D01*
X182347336Y-100904978D01*
X182332861Y-100904899D01*
X182318464Y-100903401D01*
X182304283Y-100900500D01*
X182290454Y-100896223D01*
X182013245Y-100795327D01*
X181999902Y-100789714D01*
X181987174Y-100782821D01*
X181975182Y-100774714D01*
X181964043Y-100765470D01*
X181953864Y-100755179D01*
X181944742Y-100743940D01*
X181936766Y-100731861D01*
X181930013Y-100719058D01*
X181924546Y-100705655D01*
X181920420Y-100691781D01*
X181917674Y-100677569D01*
X181916333Y-100663156D01*
X181916412Y-100648681D01*
X181917910Y-100634284D01*
X181920811Y-100620103D01*
X181925088Y-100606274D01*
X182043085Y-100282080D01*
X182048698Y-100268737D01*
X182055591Y-100256009D01*
X182063698Y-100244017D01*
X182072942Y-100232878D01*
X182083233Y-100222699D01*
X182094472Y-100213577D01*
X182106551Y-100205601D01*
X182119354Y-100198848D01*
X182132757Y-100193381D01*
X182146631Y-100189255D01*
X182160843Y-100186509D01*
X182175256Y-100185168D01*
X182189731Y-100185247D01*
G37*
G04 #@! TD.AperFunction*
G04 #@! TA.AperFunction,SMDPad,CuDef*
G36*
X183101233Y-100517007D02*
G01*
X183115630Y-100518505D01*
X183129811Y-100521406D01*
X183143640Y-100525683D01*
X183420849Y-100626579D01*
X183434192Y-100632192D01*
X183446920Y-100639085D01*
X183458912Y-100647192D01*
X183470051Y-100656436D01*
X183480230Y-100666727D01*
X183489352Y-100677966D01*
X183497328Y-100690045D01*
X183504081Y-100702848D01*
X183509548Y-100716251D01*
X183513674Y-100730125D01*
X183516420Y-100744337D01*
X183517761Y-100758750D01*
X183517682Y-100773225D01*
X183516184Y-100787622D01*
X183513283Y-100801803D01*
X183509006Y-100815632D01*
X183391009Y-101139826D01*
X183385396Y-101153169D01*
X183378503Y-101165897D01*
X183370396Y-101177889D01*
X183361152Y-101189028D01*
X183350861Y-101199207D01*
X183339622Y-101208329D01*
X183327543Y-101216305D01*
X183314740Y-101223058D01*
X183301337Y-101228525D01*
X183287463Y-101232651D01*
X183273251Y-101235397D01*
X183258838Y-101236738D01*
X183244363Y-101236659D01*
X183229966Y-101235161D01*
X183215785Y-101232260D01*
X183201956Y-101227983D01*
X182924747Y-101127087D01*
X182911404Y-101121474D01*
X182898676Y-101114581D01*
X182886684Y-101106474D01*
X182875545Y-101097230D01*
X182865366Y-101086939D01*
X182856244Y-101075700D01*
X182848268Y-101063621D01*
X182841515Y-101050818D01*
X182836048Y-101037415D01*
X182831922Y-101023541D01*
X182829176Y-101009329D01*
X182827835Y-100994916D01*
X182827914Y-100980441D01*
X182829412Y-100966044D01*
X182832313Y-100951863D01*
X182836590Y-100938034D01*
X182954587Y-100613840D01*
X182960200Y-100600497D01*
X182967093Y-100587769D01*
X182975200Y-100575777D01*
X182984444Y-100564638D01*
X182994735Y-100554459D01*
X183005974Y-100545337D01*
X183018053Y-100537361D01*
X183030856Y-100530608D01*
X183044259Y-100525141D01*
X183058133Y-100521015D01*
X183072345Y-100518269D01*
X183086758Y-100516928D01*
X183101233Y-100517007D01*
G37*
G04 #@! TD.AperFunction*
G04 #@! TA.AperFunction,SMDPad,CuDef*
G36*
X184038861Y-101733793D02*
G01*
X184053073Y-101736539D01*
X184066948Y-101740665D01*
X184080351Y-101746132D01*
X184393027Y-101891935D01*
X184405830Y-101898688D01*
X184417909Y-101906664D01*
X184429148Y-101915786D01*
X184439439Y-101925965D01*
X184448683Y-101937104D01*
X184456790Y-101949096D01*
X184463683Y-101961824D01*
X184469296Y-101975167D01*
X184473573Y-101988996D01*
X184476474Y-102003177D01*
X184477972Y-102017574D01*
X184478051Y-102032049D01*
X184476710Y-102046462D01*
X184473964Y-102060674D01*
X184469838Y-102074548D01*
X184464371Y-102087951D01*
X184339699Y-102355312D01*
X184332946Y-102368115D01*
X184324970Y-102380194D01*
X184315848Y-102391433D01*
X184305669Y-102401724D01*
X184294530Y-102410968D01*
X184282538Y-102419075D01*
X184269810Y-102425968D01*
X184256467Y-102431581D01*
X184242639Y-102435858D01*
X184228457Y-102438759D01*
X184214060Y-102440257D01*
X184199585Y-102440336D01*
X184185173Y-102438995D01*
X184170961Y-102436249D01*
X184157086Y-102432123D01*
X184143683Y-102426656D01*
X183831007Y-102280853D01*
X183818204Y-102274100D01*
X183806125Y-102266124D01*
X183794886Y-102257002D01*
X183784595Y-102246823D01*
X183775351Y-102235684D01*
X183767244Y-102223692D01*
X183760351Y-102210964D01*
X183754738Y-102197621D01*
X183750461Y-102183792D01*
X183747560Y-102169611D01*
X183746062Y-102155214D01*
X183745983Y-102140739D01*
X183747324Y-102126326D01*
X183750070Y-102112114D01*
X183754196Y-102098240D01*
X183759663Y-102084837D01*
X183884335Y-101817476D01*
X183891088Y-101804673D01*
X183899064Y-101792594D01*
X183908186Y-101781355D01*
X183918365Y-101771064D01*
X183929504Y-101761820D01*
X183941496Y-101753713D01*
X183954224Y-101746820D01*
X183967567Y-101741207D01*
X183981395Y-101736930D01*
X183995577Y-101734029D01*
X184009974Y-101732531D01*
X184024449Y-101732452D01*
X184038861Y-101733793D01*
G37*
G04 #@! TD.AperFunction*
G04 #@! TA.AperFunction,SMDPad,CuDef*
G36*
X183628921Y-102612911D02*
G01*
X183643133Y-102615657D01*
X183657008Y-102619783D01*
X183670411Y-102625250D01*
X183983087Y-102771053D01*
X183995890Y-102777806D01*
X184007969Y-102785782D01*
X184019208Y-102794904D01*
X184029499Y-102805083D01*
X184038743Y-102816222D01*
X184046850Y-102828214D01*
X184053743Y-102840942D01*
X184059356Y-102854285D01*
X184063633Y-102868114D01*
X184066534Y-102882295D01*
X184068032Y-102896692D01*
X184068111Y-102911167D01*
X184066770Y-102925580D01*
X184064024Y-102939792D01*
X184059898Y-102953666D01*
X184054431Y-102967069D01*
X183929759Y-103234430D01*
X183923006Y-103247233D01*
X183915030Y-103259312D01*
X183905908Y-103270551D01*
X183895729Y-103280842D01*
X183884590Y-103290086D01*
X183872598Y-103298193D01*
X183859870Y-103305086D01*
X183846527Y-103310699D01*
X183832699Y-103314976D01*
X183818517Y-103317877D01*
X183804120Y-103319375D01*
X183789645Y-103319454D01*
X183775233Y-103318113D01*
X183761021Y-103315367D01*
X183747146Y-103311241D01*
X183733743Y-103305774D01*
X183421067Y-103159971D01*
X183408264Y-103153218D01*
X183396185Y-103145242D01*
X183384946Y-103136120D01*
X183374655Y-103125941D01*
X183365411Y-103114802D01*
X183357304Y-103102810D01*
X183350411Y-103090082D01*
X183344798Y-103076739D01*
X183340521Y-103062910D01*
X183337620Y-103048729D01*
X183336122Y-103034332D01*
X183336043Y-103019857D01*
X183337384Y-103005444D01*
X183340130Y-102991232D01*
X183344256Y-102977358D01*
X183349723Y-102963955D01*
X183474395Y-102696594D01*
X183481148Y-102683791D01*
X183489124Y-102671712D01*
X183498246Y-102660473D01*
X183508425Y-102650182D01*
X183519564Y-102640938D01*
X183531556Y-102632831D01*
X183544284Y-102625938D01*
X183557627Y-102620325D01*
X183571455Y-102616048D01*
X183585637Y-102613147D01*
X183600034Y-102611649D01*
X183614509Y-102611570D01*
X183628921Y-102612911D01*
G37*
G04 #@! TD.AperFunction*
G04 #@! TA.AperFunction,SMDPad,CuDef*
G36*
X178809283Y-101485625D02*
G01*
X181346453Y-102409079D01*
X180422999Y-104946249D01*
X177885829Y-104022795D01*
X178809283Y-101485625D01*
G37*
G04 #@! TD.AperFunction*
G04 #@! TA.AperFunction,SMDPad,CuDef*
G36*
X181528001Y-102421949D02*
G01*
X182326739Y-102712666D01*
X182224133Y-102994573D01*
X181425395Y-102703856D01*
X181528001Y-102421949D01*
G37*
G04 #@! TD.AperFunction*
G04 #@! TA.AperFunction,SMDPad,CuDef*
G36*
X181356991Y-102891795D02*
G01*
X182155729Y-103182512D01*
X182053123Y-103464419D01*
X181254385Y-103173702D01*
X181356991Y-102891795D01*
G37*
G04 #@! TD.AperFunction*
G04 #@! TA.AperFunction,SMDPad,CuDef*
G36*
X181185981Y-103361641D02*
G01*
X181984719Y-103652358D01*
X181882113Y-103934265D01*
X181083375Y-103643548D01*
X181185981Y-103361641D01*
G37*
G04 #@! TD.AperFunction*
G04 #@! TA.AperFunction,SMDPad,CuDef*
G36*
X181014971Y-103831487D02*
G01*
X181813709Y-104122204D01*
X181711103Y-104404111D01*
X180912365Y-104113394D01*
X181014971Y-103831487D01*
G37*
G04 #@! TD.AperFunction*
G04 #@! TA.AperFunction,SMDPad,CuDef*
G36*
X180843961Y-104301334D02*
G01*
X181642699Y-104592051D01*
X181540093Y-104873958D01*
X180741355Y-104583241D01*
X180843961Y-104301334D01*
G37*
G04 #@! TD.AperFunction*
G04 #@! TA.AperFunction,SMDPad,CuDef*
G36*
X180672950Y-104771180D02*
G01*
X181471688Y-105061897D01*
X181369082Y-105343804D01*
X180570344Y-105053087D01*
X180672950Y-104771180D01*
G37*
G04 #@! TD.AperFunction*
G04 #@! TA.AperFunction,SMDPad,CuDef*
G36*
X179837505Y-105823929D02*
G01*
X180128222Y-105025191D01*
X180410129Y-105127797D01*
X180119412Y-105926535D01*
X179837505Y-105823929D01*
G37*
G04 #@! TD.AperFunction*
G04 #@! TA.AperFunction,SMDPad,CuDef*
G36*
X179367659Y-105652919D02*
G01*
X179658376Y-104854181D01*
X179940283Y-104956787D01*
X179649566Y-105755525D01*
X179367659Y-105652919D01*
G37*
G04 #@! TD.AperFunction*
G04 #@! TA.AperFunction,SMDPad,CuDef*
G36*
X178897813Y-105481909D02*
G01*
X179188530Y-104683171D01*
X179470437Y-104785777D01*
X179179720Y-105584515D01*
X178897813Y-105481909D01*
G37*
G04 #@! TD.AperFunction*
G04 #@! TA.AperFunction,SMDPad,CuDef*
G36*
X178427967Y-105310899D02*
G01*
X178718684Y-104512161D01*
X179000591Y-104614767D01*
X178709874Y-105413505D01*
X178427967Y-105310899D01*
G37*
G04 #@! TD.AperFunction*
G04 #@! TA.AperFunction,SMDPad,CuDef*
G36*
X177958120Y-105139889D02*
G01*
X178248837Y-104341151D01*
X178530744Y-104443757D01*
X178240027Y-105242495D01*
X177958120Y-105139889D01*
G37*
G04 #@! TD.AperFunction*
G04 #@! TA.AperFunction,SMDPad,CuDef*
G36*
X177488274Y-104968878D02*
G01*
X177778991Y-104170140D01*
X178060898Y-104272746D01*
X177770181Y-105071484D01*
X177488274Y-104968878D01*
G37*
G04 #@! TD.AperFunction*
G04 #@! TA.AperFunction,SMDPad,CuDef*
G36*
X177008149Y-103437301D02*
G01*
X177806887Y-103728018D01*
X177704281Y-104009925D01*
X176905543Y-103719208D01*
X177008149Y-103437301D01*
G37*
G04 #@! TD.AperFunction*
G04 #@! TA.AperFunction,SMDPad,CuDef*
G36*
X177179159Y-102967455D02*
G01*
X177977897Y-103258172D01*
X177875291Y-103540079D01*
X177076553Y-103249362D01*
X177179159Y-102967455D01*
G37*
G04 #@! TD.AperFunction*
G04 #@! TA.AperFunction,SMDPad,CuDef*
G36*
X177350169Y-102497609D02*
G01*
X178148907Y-102788326D01*
X178046301Y-103070233D01*
X177247563Y-102779516D01*
X177350169Y-102497609D01*
G37*
G04 #@! TD.AperFunction*
G04 #@! TA.AperFunction,SMDPad,CuDef*
G36*
X177521179Y-102027763D02*
G01*
X178319917Y-102318480D01*
X178217311Y-102600387D01*
X177418573Y-102309670D01*
X177521179Y-102027763D01*
G37*
G04 #@! TD.AperFunction*
G04 #@! TA.AperFunction,SMDPad,CuDef*
G36*
X177692189Y-101557916D02*
G01*
X178490927Y-101848633D01*
X178388321Y-102130540D01*
X177589583Y-101839823D01*
X177692189Y-101557916D01*
G37*
G04 #@! TD.AperFunction*
G04 #@! TA.AperFunction,SMDPad,CuDef*
G36*
X177863200Y-101088070D02*
G01*
X178661938Y-101378787D01*
X178559332Y-101660694D01*
X177760594Y-101369977D01*
X177863200Y-101088070D01*
G37*
G04 #@! TD.AperFunction*
G04 #@! TA.AperFunction,SMDPad,CuDef*
G36*
X178822153Y-101304077D02*
G01*
X179112870Y-100505339D01*
X179394777Y-100607945D01*
X179104060Y-101406683D01*
X178822153Y-101304077D01*
G37*
G04 #@! TD.AperFunction*
G04 #@! TA.AperFunction,SMDPad,CuDef*
G36*
X179291999Y-101475087D02*
G01*
X179582716Y-100676349D01*
X179864623Y-100778955D01*
X179573906Y-101577693D01*
X179291999Y-101475087D01*
G37*
G04 #@! TD.AperFunction*
G04 #@! TA.AperFunction,SMDPad,CuDef*
G36*
X179761845Y-101646097D02*
G01*
X180052562Y-100847359D01*
X180334469Y-100949965D01*
X180043752Y-101748703D01*
X179761845Y-101646097D01*
G37*
G04 #@! TD.AperFunction*
G04 #@! TA.AperFunction,SMDPad,CuDef*
G36*
X180231691Y-101817107D02*
G01*
X180522408Y-101018369D01*
X180804315Y-101120975D01*
X180513598Y-101919713D01*
X180231691Y-101817107D01*
G37*
G04 #@! TD.AperFunction*
G04 #@! TA.AperFunction,SMDPad,CuDef*
G36*
X180701538Y-101988117D02*
G01*
X180992255Y-101189379D01*
X181274162Y-101291985D01*
X180983445Y-102090723D01*
X180701538Y-101988117D01*
G37*
G04 #@! TD.AperFunction*
G04 #@! TA.AperFunction,SMDPad,CuDef*
G36*
X181171384Y-102159128D02*
G01*
X181462101Y-101360390D01*
X181744008Y-101462996D01*
X181453291Y-102261734D01*
X181171384Y-102159128D01*
G37*
G04 #@! TD.AperFunction*
D12*
X117926800Y-112951634D03*
G04 #@! TA.AperFunction,ComponentPad*
D10*
G36*
X114713098Y-111429884D02*
G01*
X115870116Y-110051004D01*
X117248996Y-111208022D01*
X116091978Y-112586902D01*
X114713098Y-111429884D01*
G37*
G04 #@! TD.AperFunction*
D12*
X173817098Y-111242902D03*
G04 #@! TA.AperFunction,ComponentPad*
D10*
G36*
X172021047Y-114311745D02*
G01*
X170748255Y-113038953D01*
X172021047Y-111766161D01*
X173293839Y-113038953D01*
X172021047Y-114311745D01*
G37*
G04 #@! TD.AperFunction*
D12*
X125000752Y-118158953D03*
G04 #@! TA.AperFunction,ComponentPad*
D10*
G36*
X121571624Y-117218376D02*
G01*
X122471624Y-115659530D01*
X124030470Y-116559530D01*
X123130470Y-118118376D01*
X121571624Y-117218376D01*
G37*
G04 #@! TD.AperFunction*
D12*
X166971693Y-116822069D03*
G04 #@! TA.AperFunction,ComponentPad*
D10*
G36*
X164670029Y-119532409D02*
G01*
X163637591Y-118057935D01*
X165112065Y-117025497D01*
X166144503Y-118499971D01*
X164670029Y-119532409D01*
G37*
G04 #@! TD.AperFunction*
D12*
X132136731Y-121353856D03*
G04 #@! TA.AperFunction,ComponentPad*
D10*
G36*
X128586981Y-121146789D02*
G01*
X129143211Y-119434887D01*
X130855113Y-119991117D01*
X130298883Y-121703019D01*
X128586981Y-121146789D01*
G37*
G04 #@! TD.AperFunction*
D12*
X160132664Y-120602010D03*
G04 #@! TA.AperFunction,ComponentPad*
D10*
G36*
X157173092Y-122572931D02*
G01*
X156587069Y-120870998D01*
X158289002Y-120284975D01*
X158875025Y-121986908D01*
X157173092Y-122572931D01*
G37*
G04 #@! TD.AperFunction*
D12*
X139189775Y-122986297D03*
G04 #@! TA.AperFunction,ComponentPad*
D10*
G36*
X135651336Y-123337081D02*
G01*
X135932919Y-121559242D01*
X137710758Y-121840825D01*
X137429175Y-123618664D01*
X135651336Y-123337081D01*
G37*
G04 #@! TD.AperFunction*
D12*
X153172114Y-122639405D03*
G04 #@! TA.AperFunction,ComponentPad*
D10*
G36*
X149867438Y-123951927D02*
G01*
X149648073Y-122165344D01*
X151434656Y-121945979D01*
X151654021Y-123732562D01*
X149867438Y-123951927D01*
G37*
G04 #@! TD.AperFunction*
D12*
X146201047Y-123478953D03*
D13*
X143661047Y-123478953D03*
G04 #@! TA.AperFunction,SMDPad,CuDef*
D10*
G36*
X177680774Y-57532942D02*
G01*
X177695092Y-57535066D01*
X177709133Y-57538583D01*
X177722762Y-57543460D01*
X177735847Y-57549649D01*
X177748263Y-57557090D01*
X177759889Y-57565713D01*
X177770614Y-57575434D01*
X178014566Y-57819386D01*
X178024287Y-57830111D01*
X178032910Y-57841737D01*
X178040351Y-57854153D01*
X178046540Y-57867238D01*
X178051417Y-57880867D01*
X178054934Y-57894908D01*
X178057058Y-57909226D01*
X178057768Y-57923684D01*
X178057058Y-57938142D01*
X178054934Y-57952460D01*
X178051417Y-57966501D01*
X178046540Y-57980130D01*
X178040351Y-57993215D01*
X178032910Y-58005631D01*
X178024287Y-58017257D01*
X178014566Y-58027982D01*
X177805970Y-58236578D01*
X177795245Y-58246299D01*
X177783619Y-58254922D01*
X177771203Y-58262363D01*
X177758118Y-58268552D01*
X177744489Y-58273429D01*
X177730448Y-58276946D01*
X177716130Y-58279070D01*
X177701672Y-58279780D01*
X177687214Y-58279070D01*
X177672896Y-58276946D01*
X177658855Y-58273429D01*
X177645226Y-58268552D01*
X177632141Y-58262363D01*
X177619725Y-58254922D01*
X177608099Y-58246299D01*
X177597374Y-58236578D01*
X177353422Y-57992626D01*
X177343701Y-57981901D01*
X177335078Y-57970275D01*
X177327637Y-57957859D01*
X177321448Y-57944774D01*
X177316571Y-57931145D01*
X177313054Y-57917104D01*
X177310930Y-57902786D01*
X177310220Y-57888328D01*
X177310930Y-57873870D01*
X177313054Y-57859552D01*
X177316571Y-57845511D01*
X177321448Y-57831882D01*
X177327637Y-57818797D01*
X177335078Y-57806381D01*
X177343701Y-57794755D01*
X177353422Y-57784030D01*
X177562018Y-57575434D01*
X177572743Y-57565713D01*
X177584369Y-57557090D01*
X177596785Y-57549649D01*
X177609870Y-57543460D01*
X177623499Y-57538583D01*
X177637540Y-57535066D01*
X177651858Y-57532942D01*
X177666316Y-57532232D01*
X177680774Y-57532942D01*
G37*
G04 #@! TD.AperFunction*
G04 #@! TA.AperFunction,SMDPad,CuDef*
G36*
X176994880Y-58218836D02*
G01*
X177009198Y-58220960D01*
X177023239Y-58224477D01*
X177036868Y-58229354D01*
X177049953Y-58235543D01*
X177062369Y-58242984D01*
X177073995Y-58251607D01*
X177084720Y-58261328D01*
X177328672Y-58505280D01*
X177338393Y-58516005D01*
X177347016Y-58527631D01*
X177354457Y-58540047D01*
X177360646Y-58553132D01*
X177365523Y-58566761D01*
X177369040Y-58580802D01*
X177371164Y-58595120D01*
X177371874Y-58609578D01*
X177371164Y-58624036D01*
X177369040Y-58638354D01*
X177365523Y-58652395D01*
X177360646Y-58666024D01*
X177354457Y-58679109D01*
X177347016Y-58691525D01*
X177338393Y-58703151D01*
X177328672Y-58713876D01*
X177120076Y-58922472D01*
X177109351Y-58932193D01*
X177097725Y-58940816D01*
X177085309Y-58948257D01*
X177072224Y-58954446D01*
X177058595Y-58959323D01*
X177044554Y-58962840D01*
X177030236Y-58964964D01*
X177015778Y-58965674D01*
X177001320Y-58964964D01*
X176987002Y-58962840D01*
X176972961Y-58959323D01*
X176959332Y-58954446D01*
X176946247Y-58948257D01*
X176933831Y-58940816D01*
X176922205Y-58932193D01*
X176911480Y-58922472D01*
X176667528Y-58678520D01*
X176657807Y-58667795D01*
X176649184Y-58656169D01*
X176641743Y-58643753D01*
X176635554Y-58630668D01*
X176630677Y-58617039D01*
X176627160Y-58602998D01*
X176625036Y-58588680D01*
X176624326Y-58574222D01*
X176625036Y-58559764D01*
X176627160Y-58545446D01*
X176630677Y-58531405D01*
X176635554Y-58517776D01*
X176641743Y-58504691D01*
X176649184Y-58492275D01*
X176657807Y-58480649D01*
X176667528Y-58469924D01*
X176876124Y-58261328D01*
X176886849Y-58251607D01*
X176898475Y-58242984D01*
X176910891Y-58235543D01*
X176923976Y-58229354D01*
X176937605Y-58224477D01*
X176951646Y-58220960D01*
X176965964Y-58218836D01*
X176980422Y-58218126D01*
X176994880Y-58218836D01*
G37*
G04 #@! TD.AperFunction*
D14*
X182535047Y-103468953D03*
X182800047Y-101939953D03*
X180191047Y-104388953D03*
X179721047Y-103198953D03*
X179161047Y-102078953D03*
X178551047Y-103728953D03*
X183581047Y-98918953D03*
X180801047Y-102698953D03*
X177521047Y-109375953D03*
X177573047Y-107161953D03*
X175353047Y-105984953D03*
X176132047Y-102918953D03*
X178237047Y-99736953D03*
X178271047Y-61188953D03*
X176788047Y-101779953D03*
X175991047Y-62298953D03*
D15*
X184289047Y-100217953D02*
X184509047Y-100770953D01*
X183984047Y-100037953D02*
X184289047Y-100217953D01*
X182471047Y-99478953D02*
X183984047Y-100037953D01*
X184435047Y-101334953D02*
X184112017Y-102086394D01*
X181204047Y-101046953D02*
X181306047Y-100815953D01*
X181627047Y-100003953D02*
X181825047Y-99710953D01*
X180987850Y-101640051D02*
X181204047Y-101046953D01*
X181306047Y-100815953D02*
X181627047Y-100003953D01*
X184509047Y-100770953D02*
X184435047Y-101334953D01*
X181825047Y-99710953D02*
X182471047Y-99478953D01*
X182975047Y-102917953D02*
X182557047Y-102912953D01*
X182557047Y-102912953D02*
X181876067Y-102708261D01*
X183702077Y-102965512D02*
X183208047Y-102909953D01*
X183208047Y-102909953D02*
X182975047Y-102917953D01*
X181884201Y-103178107D02*
X181705057Y-103178107D01*
X182193047Y-103330953D02*
X181884201Y-103178107D01*
X182535047Y-103468953D02*
X182193047Y-103330953D01*
X183004047Y-101300953D02*
X183172798Y-100876833D01*
X182800047Y-101939953D02*
X183004047Y-101300953D01*
X181763047Y-101102953D02*
X181457696Y-101811062D01*
X182261296Y-100545073D02*
X181905047Y-100937953D01*
X181905047Y-100937953D02*
X181763047Y-101102953D01*
X177698235Y-102783921D02*
X177787015Y-102783921D01*
X180048157Y-101298031D02*
X179805662Y-102374568D01*
X178886948Y-102486744D02*
X179616141Y-103215937D01*
X178964047Y-101357953D02*
X178910342Y-102144248D01*
X179108465Y-100956011D02*
X179108465Y-101068535D01*
X179108465Y-101068535D02*
X178964047Y-101357953D01*
X180815047Y-103911953D02*
X179616141Y-103215937D01*
X181363037Y-104117799D02*
X180815047Y-103911953D01*
X179805662Y-102374568D02*
X179616141Y-103215937D01*
X178910342Y-102144248D02*
X178886948Y-102486744D01*
X178676063Y-103215937D02*
X179616141Y-103215937D01*
X178148047Y-102945953D02*
X178676063Y-103215937D01*
X177698235Y-102783921D02*
X178148047Y-102945953D01*
X167203047Y-51957312D02*
X168406677Y-50753682D01*
X167203047Y-52350953D02*
X167203047Y-51957312D01*
X183091047Y-98738953D02*
X183581047Y-98918953D01*
X182446798Y-98514833D02*
X183091047Y-98738953D01*
X180191047Y-103790843D02*
X179616141Y-103215937D01*
X180191047Y-104388953D02*
X180191047Y-103790843D01*
X180221047Y-102698953D02*
X179721047Y-103198953D01*
X180801047Y-102698953D02*
X180221047Y-102698953D01*
X179721047Y-102638953D02*
X179161047Y-102078953D01*
X179721047Y-103198953D02*
X179721047Y-102638953D01*
X179191047Y-103728953D02*
X179721047Y-103198953D01*
X178551047Y-103728953D02*
X179191047Y-103728953D01*
X181192027Y-104587646D02*
X179616141Y-103215937D01*
X182091047Y-104878953D02*
X182548547Y-105158975D01*
X181192027Y-104587646D02*
X181771047Y-104788953D01*
X181771047Y-104788953D02*
X182091047Y-104878953D01*
X182591047Y-104088953D02*
X183033547Y-104318931D01*
X182321047Y-103958953D02*
X182591047Y-104088953D01*
X181534047Y-103647953D02*
X182041047Y-103828953D01*
X182041047Y-103828953D02*
X182321047Y-103958953D01*
X148108047Y-124422953D02*
X146201047Y-123478953D01*
X151971047Y-125228953D02*
X148108047Y-124422953D01*
X158699047Y-124615953D02*
X156541047Y-125058953D01*
X166030047Y-121544953D02*
X165226035Y-121868953D01*
X166926035Y-121128953D02*
X166030047Y-121544953D01*
X168019047Y-120409953D02*
X166926035Y-121128953D01*
X169654047Y-119304953D02*
X168511047Y-120068953D01*
X165226035Y-121868953D02*
X162951047Y-122914953D01*
X170291047Y-118838953D02*
X169654047Y-119304953D01*
X180761047Y-108428953D02*
X180121047Y-109118953D01*
X181781047Y-105408953D02*
X181851047Y-105928953D01*
X178971047Y-110568953D02*
X178311047Y-111408953D01*
X181281047Y-107328953D02*
X180761047Y-108428953D01*
X179521047Y-109778953D02*
X178971047Y-110568953D01*
X176159153Y-114107099D02*
X175836523Y-114429729D01*
X180121047Y-109118953D02*
X179521047Y-109778953D01*
X156541047Y-125058953D02*
X153739047Y-125266953D01*
X181551047Y-106758953D02*
X181281047Y-107328953D01*
X162951047Y-122914953D02*
X160991047Y-123738953D01*
X181531047Y-105248953D02*
X181781047Y-105408953D01*
X181021016Y-105057492D02*
X181531047Y-105248953D01*
X181851047Y-105928953D02*
X181781047Y-106248953D01*
X177651047Y-112308953D02*
X177111047Y-112958953D01*
X181781047Y-106248953D02*
X181551047Y-106758953D01*
X168511047Y-120068953D02*
X168019047Y-120409953D01*
X175177112Y-115068953D02*
X174815047Y-115296953D01*
X178311047Y-111408953D02*
X177651047Y-112308953D01*
X177111047Y-112958953D02*
X176159153Y-114040847D01*
X176159153Y-114040847D02*
X176159153Y-114107099D01*
X175836523Y-114429729D02*
X175579447Y-114682563D01*
X160991047Y-123738953D02*
X158699047Y-124615953D01*
X175579447Y-114682563D02*
X175278975Y-114972511D01*
X172274047Y-117394953D02*
X170291047Y-118838953D01*
X175278975Y-114972511D02*
X175177112Y-115068953D01*
X174815047Y-115296953D02*
X173311047Y-116558953D01*
X153739047Y-125266953D02*
X151971047Y-125228953D01*
X173311047Y-116558953D02*
X172274047Y-117394953D01*
X155003047Y-123813953D02*
X153181382Y-122727577D01*
X157962047Y-124255953D02*
X156219047Y-124329953D01*
X168659047Y-119354953D02*
X166894047Y-120403953D01*
X156219047Y-124329953D02*
X155003047Y-123813953D01*
X177120047Y-111948953D02*
X176261047Y-113067953D01*
X179781047Y-107108953D02*
X179651047Y-107768953D01*
X176261047Y-113067953D02*
X175614047Y-113750953D01*
X162763047Y-122426953D02*
X160835047Y-123249953D01*
X177981047Y-110703953D02*
X177120047Y-111948953D01*
X175021047Y-114425953D02*
X174427047Y-114897953D01*
X178600047Y-109553953D02*
X177981047Y-110703953D01*
X175614047Y-113750953D02*
X175021047Y-114425953D01*
X166894047Y-120403953D02*
X165511047Y-121088953D01*
X180123817Y-105475863D02*
X179794047Y-106404953D01*
X179261047Y-108568953D02*
X178976047Y-109063953D01*
X179794047Y-106404953D02*
X179781047Y-107108953D01*
X178976047Y-109063953D02*
X178600047Y-109553953D01*
X174427047Y-114897953D02*
X173780047Y-115422953D01*
X179651047Y-107768953D02*
X179261047Y-108568953D01*
X173780047Y-115422953D02*
X173099047Y-115981953D01*
X171701047Y-117152953D02*
X170267047Y-118235953D01*
X173099047Y-115981953D02*
X171701047Y-117152953D01*
X170267047Y-118235953D02*
X169708047Y-118602953D01*
X160835047Y-123249953D02*
X157962047Y-124255953D01*
X169708047Y-118602953D02*
X168659047Y-119354953D01*
X165511047Y-121088953D02*
X162763047Y-122426953D01*
X179407047Y-106030953D02*
X179653971Y-105304853D01*
X178424047Y-108250953D02*
X178760047Y-107663953D01*
X177606047Y-109265953D02*
X178424047Y-108250953D01*
X177521047Y-109375953D02*
X177606047Y-109265953D01*
X179025047Y-106968953D02*
X179407047Y-106030953D01*
X178760047Y-107663953D02*
X179025047Y-106968953D01*
X162892047Y-121193953D02*
X160086094Y-120477452D01*
X163707047Y-121135953D02*
X162892047Y-121193953D01*
X164377047Y-120931953D02*
X163707047Y-121135953D01*
X164654047Y-120815953D02*
X164377047Y-120931953D01*
X165877047Y-120218953D02*
X165178047Y-120553953D01*
X167902047Y-119242953D02*
X167130047Y-119679953D01*
X169096047Y-118368953D02*
X167902047Y-119242953D01*
X169854047Y-117785953D02*
X169096047Y-118368953D01*
X175981047Y-110508953D02*
X175872047Y-111059953D01*
X176142047Y-110093953D02*
X175981047Y-110508953D01*
X177171047Y-108788953D02*
X176701047Y-109358953D01*
X177741047Y-108028953D02*
X177171047Y-108788953D01*
X166489047Y-119941953D02*
X165877047Y-120218953D01*
X172964047Y-115392953D02*
X172527047Y-115768953D01*
X178101047Y-107558953D02*
X177741047Y-108028953D01*
X171514047Y-116693953D02*
X170859047Y-117072953D01*
X165178047Y-120553953D02*
X164654047Y-120815953D01*
X178881047Y-105938953D02*
X178741047Y-106288953D01*
X175872047Y-111059953D02*
X175792047Y-111896953D01*
X167130047Y-119679953D02*
X166489047Y-119941953D01*
X175610047Y-112442953D02*
X175258047Y-113073953D01*
X178741047Y-106288953D02*
X178601047Y-106628953D01*
X176701047Y-109358953D02*
X176142047Y-110093953D01*
X178401047Y-107108953D02*
X178101047Y-107558953D01*
X178601047Y-106628953D02*
X178401047Y-107108953D01*
X175258047Y-113073953D02*
X174869047Y-113705953D01*
X175792047Y-111896953D02*
X175610047Y-112442953D01*
X174869047Y-113705953D02*
X174238047Y-114275953D01*
X172527047Y-115768953D02*
X172111047Y-116198953D01*
X174238047Y-114275953D02*
X173534047Y-114906953D01*
X173534047Y-114906953D02*
X172964047Y-115392953D01*
X179184125Y-105133843D02*
X178881047Y-105938953D01*
X172111047Y-116198953D02*
X171514047Y-116693953D01*
X170859047Y-117072953D02*
X169854047Y-117785953D01*
X178492047Y-105562953D02*
X178714279Y-104962833D01*
X178287047Y-106021953D02*
X178492047Y-105562953D01*
X177573047Y-107161953D02*
X177918047Y-106662953D01*
X177918047Y-106662953D02*
X178287047Y-106021953D01*
X169291047Y-115458953D02*
X168161047Y-115808953D01*
X170021047Y-115438953D02*
X169291047Y-115458953D01*
X170701047Y-115378953D02*
X170021047Y-115438953D01*
X168161047Y-115808953D02*
X166971693Y-116822069D01*
X173161047Y-114108953D02*
X172551047Y-114558953D01*
X174411047Y-112858953D02*
X173161047Y-114108953D01*
X174961047Y-112028953D02*
X174411047Y-112858953D01*
X172551047Y-114558953D02*
X171401047Y-115138953D01*
X175161047Y-111398953D02*
X174961047Y-112028953D01*
X175131047Y-110598953D02*
X175161047Y-111398953D01*
X177511047Y-105888953D02*
X177131047Y-106258953D01*
X177131047Y-106258953D02*
X176801047Y-106598953D01*
X177761047Y-105668953D02*
X177511047Y-105888953D01*
X175681047Y-108068953D02*
X175251047Y-108738953D01*
X171401047Y-115138953D02*
X170701047Y-115378953D01*
X178244432Y-104791823D02*
X177981047Y-105448953D01*
X177981047Y-105448953D02*
X177761047Y-105668953D01*
X174991047Y-109578953D02*
X175131047Y-110598953D01*
X176381047Y-107148953D02*
X176051047Y-107518953D01*
X176801047Y-106598953D02*
X176381047Y-107148953D01*
X176051047Y-107518953D02*
X175681047Y-108068953D01*
X175251047Y-108738953D02*
X174991047Y-109578953D01*
X177496047Y-105267953D02*
X177774586Y-104620812D01*
X176338047Y-105730953D02*
X177496047Y-105267953D01*
X175353047Y-105984953D02*
X175904047Y-105799953D01*
X175904047Y-105799953D02*
X176338047Y-105730953D01*
X172917099Y-110342903D02*
X173817098Y-111242902D01*
X175487047Y-103812953D02*
X174871047Y-104388953D01*
X172541047Y-109288953D02*
X172621047Y-109968953D01*
X174871047Y-104388953D02*
X174321047Y-105048953D01*
X172621047Y-109968953D02*
X172917099Y-110342903D01*
X173901047Y-105748953D02*
X173261047Y-106838953D01*
X175861047Y-103628953D02*
X175487047Y-103812953D01*
X172671047Y-108708953D02*
X172541047Y-109288953D01*
X172981047Y-107588953D02*
X172671047Y-108708953D01*
X176551047Y-103438953D02*
X175861047Y-103628953D01*
X177356215Y-103723613D02*
X176551047Y-103438953D01*
X173261047Y-106838953D02*
X172981047Y-107588953D01*
X174321047Y-105048953D02*
X173901047Y-105748953D01*
X176863047Y-103011953D02*
X177527225Y-103253767D01*
X176132047Y-102918953D02*
X176537047Y-102928953D01*
X176537047Y-102928953D02*
X176863047Y-103011953D01*
X179841047Y-100268953D02*
X179871047Y-100018953D01*
X179871047Y-100018953D02*
X180029545Y-99257193D01*
X179578311Y-101127021D02*
X179771047Y-100638953D01*
X179771047Y-100638953D02*
X179841047Y-100268953D01*
X177484047Y-101631953D02*
X178040255Y-101844228D01*
X177905047Y-100148953D02*
X177720047Y-100391953D01*
X178237047Y-99736953D02*
X177905047Y-100148953D01*
X177221047Y-101262953D02*
X177275047Y-101432953D01*
X177720047Y-100391953D02*
X177556047Y-100612953D01*
X177275047Y-101432953D02*
X177484047Y-101631953D01*
X177556047Y-100612953D02*
X177452047Y-100800953D01*
X177313047Y-101075953D02*
X177221047Y-101262953D01*
X177452047Y-100800953D02*
X177313047Y-101075953D01*
X173319230Y-54878953D02*
X171601219Y-53160942D01*
X176771826Y-58365626D02*
X176201047Y-57808953D01*
X173571047Y-55118953D02*
X173319230Y-54878953D01*
X176201047Y-57808953D02*
X174711047Y-56248953D01*
X176998100Y-58591900D02*
X176771826Y-58365626D01*
X174711047Y-56248953D02*
X174261047Y-55798953D01*
X174261047Y-55798953D02*
X173571047Y-55118953D01*
X178181047Y-60734689D02*
X178011047Y-59918953D01*
X178011047Y-59918953D02*
X177761047Y-59438953D01*
X177761047Y-59438953D02*
X176998100Y-58591900D01*
X178271047Y-61188953D02*
X178181047Y-60734689D01*
X177287047Y-102087953D02*
X177869245Y-102314075D01*
X176788047Y-101779953D02*
X177106047Y-102017953D01*
X177106047Y-102017953D02*
X177287047Y-102087953D01*
X171291047Y-55728953D02*
X171111047Y-55508953D01*
X174741826Y-60205626D02*
X174361047Y-59758953D01*
X173041047Y-58008953D02*
X171291047Y-55728953D01*
X174968100Y-60431900D02*
X174741826Y-60205626D01*
X174361047Y-59758953D02*
X173481047Y-58568953D01*
X171111047Y-55508953D02*
X170397589Y-54758213D01*
X173481047Y-58568953D02*
X173041047Y-58008953D01*
X175671047Y-61288953D02*
X175431047Y-60938953D01*
X175831047Y-61608953D02*
X175671047Y-61288953D01*
X175431047Y-60938953D02*
X174968100Y-60431900D01*
X175991047Y-62298953D02*
X175871047Y-61808953D01*
X175871047Y-61808953D02*
X175831047Y-61608953D01*
X168800318Y-53160942D02*
X170003948Y-51957312D01*
X168800318Y-53554583D02*
X168800318Y-53160942D01*
X180771047Y-100338953D02*
X180791047Y-100108953D01*
X180518003Y-101469041D02*
X180721047Y-100938953D01*
X180791047Y-100108953D02*
X180941047Y-99588953D01*
X180771047Y-100538953D02*
X180771047Y-100338953D01*
X180721047Y-100938953D02*
X180771047Y-100538953D01*
X181261047Y-98948953D02*
X180941047Y-99588953D01*
X181535296Y-98183073D02*
X181261047Y-98948953D01*
X182041047Y-65128953D02*
X181221047Y-65508953D01*
X182801047Y-64798953D02*
X182041047Y-65128953D01*
X170791047Y-51218953D02*
X170003948Y-51957312D01*
X171501047Y-51028953D02*
X170791047Y-51218953D01*
X180701047Y-59898953D02*
X179491047Y-58058953D01*
X179491047Y-58058953D02*
X178751047Y-57088953D01*
X182801047Y-64798953D02*
X182261047Y-63608953D01*
X174111047Y-52438953D02*
X173331047Y-51668953D01*
X172371047Y-51128953D02*
X171911047Y-50988953D01*
X181701047Y-62448953D02*
X180701047Y-59898953D01*
X182261047Y-63608953D02*
X181701047Y-62448953D01*
X171911047Y-50988953D02*
X171501047Y-51028953D01*
X177261047Y-55588953D02*
X176811047Y-55098953D01*
X178751047Y-57088953D02*
X177261047Y-55588953D01*
X176811047Y-55098953D02*
X174111047Y-52438953D01*
X173331047Y-51668953D02*
X172371047Y-51128953D01*
X183511047Y-66488953D02*
X182801047Y-64798953D01*
X184848047Y-68480953D02*
X184364047Y-67736953D01*
X186208047Y-71080953D02*
X185337047Y-69277953D01*
X186712047Y-73141953D02*
X186208047Y-71080953D01*
X187465047Y-78195953D02*
X186712047Y-73141953D01*
X184265047Y-93777953D02*
X186149047Y-91253953D01*
X182964047Y-95229953D02*
X184265047Y-93777953D01*
X185337047Y-69277953D02*
X184848047Y-68480953D01*
X182031047Y-96698953D02*
X182964047Y-95229953D01*
X181535296Y-98183073D02*
X181671047Y-97818953D01*
X181671047Y-97818953D02*
X182031047Y-96698953D01*
X186149047Y-91253953D02*
X187141047Y-88996953D01*
X187850047Y-82838953D02*
X187564047Y-79544953D01*
X184364047Y-67736953D02*
X183511047Y-66488953D01*
X187141047Y-88996953D02*
X187587047Y-87091953D01*
X187587047Y-87091953D02*
X187841047Y-83481953D01*
X187841047Y-83481953D02*
X187850047Y-82838953D01*
X187564047Y-79544953D02*
X187465047Y-78195953D01*
X176301047Y-60438953D02*
X175653994Y-59746006D01*
X177601047Y-63078953D02*
X177031047Y-61498953D01*
X181770451Y-66687153D02*
X180701047Y-67068953D01*
X180701047Y-67068953D02*
X180031047Y-66978953D01*
X179241047Y-66168953D02*
X178341047Y-64818953D01*
X180031047Y-66978953D02*
X179551047Y-66538953D01*
X177031047Y-61498953D02*
X176301047Y-60438953D01*
X178341047Y-64818953D02*
X177601047Y-63078953D01*
X179551047Y-66538953D02*
X179241047Y-66168953D01*
X178531047Y-58758953D02*
X177683994Y-57906006D01*
X180361047Y-63698953D02*
X179941047Y-62418953D01*
X180671643Y-64330753D02*
X180361047Y-63698953D01*
X179941047Y-62418953D02*
X179691047Y-61518953D01*
X179691047Y-61518953D02*
X179241047Y-60248953D01*
X179241047Y-60248953D02*
X178531047Y-58758953D01*
M02*
