G04 #@! TF.GenerationSoftware,KiCad,Pcbnew,(5.1.5)-3*
G04 #@! TF.CreationDate,2020-01-15T14:34:41+01:00*
G04 #@! TF.ProjectId,ring_pcb_5mm_leds,72696e67-5f70-4636-925f-356d6d5f6c65,rev?*
G04 #@! TF.SameCoordinates,Original*
G04 #@! TF.FileFunction,Soldermask,Bot*
G04 #@! TF.FilePolarity,Negative*
%FSLAX46Y46*%
G04 Gerber Fmt 4.6, Leading zero omitted, Abs format (unit mm)*
G04 Created by KiCad (PCBNEW (5.1.5)-3) date 2020-01-15 14:34:41*
%MOMM*%
%LPD*%
G04 APERTURE LIST*
%ADD10C,0.100000*%
G04 APERTURE END LIST*
D10*
G36*
X146478442Y-122564499D02*
G01*
X146651513Y-122636187D01*
X146651514Y-122636188D01*
X146807274Y-122740263D01*
X146939737Y-122872726D01*
X146969186Y-122916800D01*
X147043813Y-123028487D01*
X147115501Y-123201558D01*
X147152047Y-123385286D01*
X147152047Y-123572620D01*
X147115501Y-123756348D01*
X147043813Y-123929419D01*
X147043812Y-123929420D01*
X146939737Y-124085180D01*
X146807274Y-124217643D01*
X146728865Y-124270034D01*
X146651513Y-124321719D01*
X146478442Y-124393407D01*
X146294714Y-124429953D01*
X146107380Y-124429953D01*
X145923652Y-124393407D01*
X145750581Y-124321719D01*
X145673229Y-124270034D01*
X145594820Y-124217643D01*
X145462357Y-124085180D01*
X145358282Y-123929420D01*
X145358281Y-123929419D01*
X145286593Y-123756348D01*
X145250047Y-123572620D01*
X145250047Y-123385286D01*
X145286593Y-123201558D01*
X145358281Y-123028487D01*
X145432908Y-122916800D01*
X145462357Y-122872726D01*
X145594820Y-122740263D01*
X145750580Y-122636188D01*
X145750581Y-122636187D01*
X145923652Y-122564499D01*
X146107380Y-122527953D01*
X146294714Y-122527953D01*
X146478442Y-122564499D01*
G37*
G36*
X144612047Y-124429953D02*
G01*
X142710047Y-124429953D01*
X142710047Y-122527953D01*
X144612047Y-122527953D01*
X144612047Y-124429953D01*
G37*
G36*
X151640205Y-123201558D02*
G01*
X151708325Y-123756349D01*
X151710856Y-123776967D01*
X150029480Y-123983413D01*
X149823034Y-124008762D01*
X149823033Y-124008762D01*
X149600531Y-122196622D01*
X149591238Y-122120940D01*
X149591238Y-122120939D01*
X151272614Y-121914493D01*
X151479060Y-121889144D01*
X151479061Y-121889144D01*
X151640205Y-123201558D01*
G37*
G36*
X139467170Y-122071843D02*
G01*
X139640241Y-122143531D01*
X139640242Y-122143532D01*
X139796002Y-122247607D01*
X139928465Y-122380070D01*
X139928466Y-122380072D01*
X140032541Y-122535831D01*
X140104229Y-122708902D01*
X140140775Y-122892630D01*
X140140775Y-123079964D01*
X140104229Y-123263692D01*
X140032541Y-123436763D01*
X140032540Y-123436764D01*
X139928465Y-123592524D01*
X139796002Y-123724987D01*
X139749067Y-123756348D01*
X139640241Y-123829063D01*
X139467170Y-123900751D01*
X139283442Y-123937297D01*
X139096108Y-123937297D01*
X138912380Y-123900751D01*
X138739309Y-123829063D01*
X138630483Y-123756348D01*
X138583548Y-123724987D01*
X138451085Y-123592524D01*
X138347010Y-123436764D01*
X138347009Y-123436763D01*
X138275321Y-123263692D01*
X138238775Y-123079964D01*
X138238775Y-122892630D01*
X138275321Y-122708902D01*
X138347009Y-122535831D01*
X138451084Y-122380072D01*
X138451085Y-122380070D01*
X138583548Y-122247607D01*
X138739308Y-122143532D01*
X138739309Y-122143531D01*
X138912380Y-122071843D01*
X139096108Y-122035297D01*
X139283442Y-122035297D01*
X139467170Y-122071843D01*
G37*
G36*
X137769108Y-121798431D02*
G01*
X137471569Y-123677014D01*
X135592986Y-123379475D01*
X135890525Y-121500892D01*
X137769108Y-121798431D01*
G37*
G36*
X153449509Y-121724951D02*
G01*
X153622580Y-121796639D01*
X153699932Y-121848324D01*
X153778341Y-121900715D01*
X153910804Y-122033178D01*
X153950472Y-122092546D01*
X154014880Y-122188939D01*
X154086568Y-122362010D01*
X154123114Y-122545738D01*
X154123114Y-122733072D01*
X154086568Y-122916800D01*
X154014880Y-123089871D01*
X154014879Y-123089872D01*
X153910804Y-123245632D01*
X153778341Y-123378095D01*
X153699932Y-123430486D01*
X153622580Y-123482171D01*
X153449509Y-123553859D01*
X153265781Y-123590405D01*
X153078447Y-123590405D01*
X152894719Y-123553859D01*
X152721648Y-123482171D01*
X152644296Y-123430486D01*
X152565887Y-123378095D01*
X152433424Y-123245632D01*
X152329349Y-123089872D01*
X152329348Y-123089871D01*
X152257660Y-122916800D01*
X152221114Y-122733072D01*
X152221114Y-122545738D01*
X152257660Y-122362010D01*
X152329348Y-122188939D01*
X152393756Y-122092546D01*
X152433424Y-122033178D01*
X152565887Y-121900715D01*
X152644296Y-121848324D01*
X152721648Y-121796639D01*
X152894719Y-121724951D01*
X153078447Y-121688405D01*
X153265781Y-121688405D01*
X153449509Y-121724951D01*
G37*
G36*
X158939850Y-122018526D02*
G01*
X157141474Y-122637756D01*
X156522244Y-120839380D01*
X158320620Y-120220150D01*
X158939850Y-122018526D01*
G37*
G36*
X132414126Y-120439402D02*
G01*
X132587197Y-120511090D01*
X132587198Y-120511091D01*
X132742958Y-120615166D01*
X132875421Y-120747629D01*
X132875422Y-120747631D01*
X132979497Y-120903390D01*
X133051185Y-121076461D01*
X133087731Y-121260189D01*
X133087731Y-121447523D01*
X133051185Y-121631251D01*
X132979497Y-121804322D01*
X132979496Y-121804323D01*
X132875421Y-121960083D01*
X132742958Y-122092546D01*
X132700463Y-122120940D01*
X132587197Y-122196622D01*
X132414126Y-122268310D01*
X132230398Y-122304856D01*
X132043064Y-122304856D01*
X131859336Y-122268310D01*
X131686265Y-122196622D01*
X131572999Y-122120940D01*
X131530504Y-122092546D01*
X131398041Y-121960083D01*
X131293966Y-121804323D01*
X131293965Y-121804322D01*
X131222277Y-121631251D01*
X131185731Y-121447523D01*
X131185731Y-121260189D01*
X131222277Y-121076461D01*
X131293965Y-120903390D01*
X131398040Y-120747631D01*
X131398041Y-120747629D01*
X131530504Y-120615166D01*
X131686264Y-120511091D01*
X131686265Y-120511090D01*
X131859336Y-120439402D01*
X132043064Y-120402856D01*
X132230398Y-120402856D01*
X132414126Y-120439402D01*
G37*
G36*
X130919377Y-119958373D02*
G01*
X130331627Y-121767283D01*
X128522717Y-121179533D01*
X129110467Y-119370623D01*
X130919377Y-119958373D01*
G37*
G36*
X160410059Y-119687556D02*
G01*
X160583130Y-119759244D01*
X160583131Y-119759245D01*
X160738891Y-119863320D01*
X160871354Y-119995783D01*
X160871355Y-119995785D01*
X160975430Y-120151544D01*
X161047118Y-120324615D01*
X161083664Y-120508343D01*
X161083664Y-120695677D01*
X161047118Y-120879405D01*
X160975430Y-121052476D01*
X160923745Y-121129828D01*
X160871354Y-121208237D01*
X160738891Y-121340700D01*
X160660482Y-121393091D01*
X160583130Y-121444776D01*
X160410059Y-121516464D01*
X160226331Y-121553010D01*
X160038997Y-121553010D01*
X159855269Y-121516464D01*
X159682198Y-121444776D01*
X159604846Y-121393091D01*
X159526437Y-121340700D01*
X159393974Y-121208237D01*
X159341583Y-121129828D01*
X159289898Y-121052476D01*
X159218210Y-120879405D01*
X159181664Y-120695677D01*
X159181664Y-120508343D01*
X159218210Y-120324615D01*
X159289898Y-120151544D01*
X159393973Y-119995785D01*
X159393974Y-119995783D01*
X159526437Y-119863320D01*
X159682197Y-119759245D01*
X159682198Y-119759244D01*
X159855269Y-119687556D01*
X160038997Y-119651010D01*
X160226331Y-119651010D01*
X160410059Y-119687556D01*
G37*
G36*
X166215532Y-118512495D02*
G01*
X164657505Y-119603438D01*
X163566562Y-118045411D01*
X165124589Y-116954468D01*
X166215532Y-118512495D01*
G37*
G36*
X125278147Y-117244499D02*
G01*
X125451218Y-117316187D01*
X125451219Y-117316188D01*
X125606979Y-117420263D01*
X125739442Y-117552726D01*
X125739443Y-117552728D01*
X125843518Y-117708487D01*
X125915206Y-117881558D01*
X125951752Y-118065286D01*
X125951752Y-118252620D01*
X125915206Y-118436348D01*
X125843518Y-118609419D01*
X125843517Y-118609420D01*
X125739442Y-118765180D01*
X125606979Y-118897643D01*
X125528570Y-118950034D01*
X125451218Y-119001719D01*
X125278147Y-119073407D01*
X125094419Y-119109953D01*
X124907085Y-119109953D01*
X124723357Y-119073407D01*
X124550286Y-119001719D01*
X124472934Y-118950034D01*
X124394525Y-118897643D01*
X124262062Y-118765180D01*
X124157987Y-118609420D01*
X124157986Y-118609419D01*
X124086298Y-118436348D01*
X124049752Y-118252620D01*
X124049752Y-118065286D01*
X124086298Y-117881558D01*
X124157986Y-117708487D01*
X124262061Y-117552728D01*
X124262062Y-117552726D01*
X124394525Y-117420263D01*
X124550285Y-117316188D01*
X124550286Y-117316187D01*
X124723357Y-117244499D01*
X124907085Y-117207953D01*
X125094419Y-117207953D01*
X125278147Y-117244499D01*
G37*
G36*
X124100138Y-116540863D02*
G01*
X123149137Y-118188044D01*
X121501956Y-117237043D01*
X122452957Y-115589862D01*
X124100138Y-116540863D01*
G37*
G36*
X167249088Y-115907615D02*
G01*
X167422159Y-115979303D01*
X167422160Y-115979304D01*
X167577920Y-116083379D01*
X167710383Y-116215842D01*
X167710384Y-116215844D01*
X167814459Y-116371603D01*
X167886147Y-116544674D01*
X167922693Y-116728402D01*
X167922693Y-116915736D01*
X167886147Y-117099464D01*
X167814459Y-117272535D01*
X167785291Y-117316188D01*
X167710383Y-117428296D01*
X167577920Y-117560759D01*
X167499511Y-117613150D01*
X167422159Y-117664835D01*
X167249088Y-117736523D01*
X167065360Y-117773069D01*
X166878026Y-117773069D01*
X166694298Y-117736523D01*
X166521227Y-117664835D01*
X166443875Y-117613150D01*
X166365466Y-117560759D01*
X166233003Y-117428296D01*
X166158095Y-117316188D01*
X166128927Y-117272535D01*
X166057239Y-117099464D01*
X166020693Y-116915736D01*
X166020693Y-116728402D01*
X166057239Y-116544674D01*
X166128927Y-116371603D01*
X166233002Y-116215844D01*
X166233003Y-116215842D01*
X166365466Y-116083379D01*
X166521226Y-115979304D01*
X166521227Y-115979303D01*
X166694298Y-115907615D01*
X166878026Y-115871069D01*
X167065360Y-115871069D01*
X167249088Y-115907615D01*
G37*
G36*
X173365964Y-113038953D02*
G01*
X172021047Y-114383870D01*
X170676130Y-113038953D01*
X172021047Y-111694036D01*
X173365964Y-113038953D01*
G37*
G36*
X118204195Y-112037180D02*
G01*
X118377266Y-112108868D01*
X118377267Y-112108869D01*
X118533027Y-112212944D01*
X118665490Y-112345407D01*
X118665491Y-112345409D01*
X118769566Y-112501168D01*
X118841254Y-112674239D01*
X118877800Y-112857967D01*
X118877800Y-113045301D01*
X118841254Y-113229029D01*
X118769566Y-113402100D01*
X118769565Y-113402101D01*
X118665490Y-113557861D01*
X118533027Y-113690324D01*
X118454618Y-113742715D01*
X118377266Y-113794400D01*
X118204195Y-113866088D01*
X118020467Y-113902634D01*
X117833133Y-113902634D01*
X117649405Y-113866088D01*
X117476334Y-113794400D01*
X117398982Y-113742715D01*
X117320573Y-113690324D01*
X117188110Y-113557861D01*
X117084035Y-113402101D01*
X117084034Y-113402100D01*
X117012346Y-113229029D01*
X116975800Y-113045301D01*
X116975800Y-112857967D01*
X117012346Y-112674239D01*
X117084034Y-112501168D01*
X117188109Y-112345409D01*
X117188110Y-112345407D01*
X117320573Y-112212944D01*
X117476333Y-112108869D01*
X117476334Y-112108868D01*
X117649405Y-112037180D01*
X117833133Y-112000634D01*
X118020467Y-112000634D01*
X118204195Y-112037180D01*
G37*
G36*
X117320846Y-111201736D02*
G01*
X116098264Y-112658752D01*
X114641248Y-111436170D01*
X115863830Y-109979154D01*
X117320846Y-111201736D01*
G37*
G36*
X174094493Y-110328448D02*
G01*
X174267564Y-110400136D01*
X174267565Y-110400137D01*
X174423325Y-110504212D01*
X174555788Y-110636675D01*
X174555789Y-110636677D01*
X174659864Y-110792436D01*
X174731552Y-110965507D01*
X174768098Y-111149235D01*
X174768098Y-111336569D01*
X174731552Y-111520297D01*
X174659864Y-111693368D01*
X174659417Y-111694037D01*
X174555788Y-111849129D01*
X174423325Y-111981592D01*
X174394826Y-112000634D01*
X174267564Y-112085668D01*
X174094493Y-112157356D01*
X173910765Y-112193902D01*
X173723431Y-112193902D01*
X173539703Y-112157356D01*
X173366632Y-112085668D01*
X173239370Y-112000634D01*
X173210871Y-111981592D01*
X173078408Y-111849129D01*
X172974779Y-111694037D01*
X172974332Y-111693368D01*
X172902644Y-111520297D01*
X172866098Y-111336569D01*
X172866098Y-111149235D01*
X172902644Y-110965507D01*
X172974332Y-110792436D01*
X173078407Y-110636677D01*
X173078408Y-110636675D01*
X173210871Y-110504212D01*
X173366631Y-110400137D01*
X173366632Y-110400136D01*
X173539703Y-110328448D01*
X173723431Y-110291902D01*
X173910765Y-110291902D01*
X174094493Y-110328448D01*
G37*
G36*
X185444614Y-82090735D02*
G01*
X185555799Y-82112851D01*
X185765268Y-82199616D01*
X185953785Y-82325579D01*
X186114105Y-82485899D01*
X186240068Y-82674416D01*
X186326833Y-82883885D01*
X186371065Y-83106255D01*
X186371065Y-83332983D01*
X186326833Y-83555353D01*
X186240068Y-83764822D01*
X186114105Y-83953339D01*
X185953785Y-84113659D01*
X185765268Y-84239622D01*
X185555799Y-84326387D01*
X185444614Y-84348503D01*
X185333430Y-84370619D01*
X185106700Y-84370619D01*
X184995516Y-84348503D01*
X184884331Y-84326387D01*
X184674862Y-84239622D01*
X184486345Y-84113659D01*
X184326025Y-83953339D01*
X184200062Y-83764822D01*
X184113297Y-83555353D01*
X184069065Y-83332983D01*
X184069065Y-83106255D01*
X184113297Y-82883885D01*
X184200062Y-82674416D01*
X184326025Y-82485899D01*
X184486345Y-82325579D01*
X184674862Y-82199616D01*
X184884331Y-82112851D01*
X184995516Y-82090735D01*
X185106700Y-82068619D01*
X185333430Y-82068619D01*
X185444614Y-82090735D01*
G37*
G36*
X104902935Y-82090735D02*
G01*
X105014120Y-82112851D01*
X105223589Y-82199616D01*
X105412106Y-82325579D01*
X105572426Y-82485899D01*
X105698389Y-82674416D01*
X105785154Y-82883885D01*
X105829386Y-83106255D01*
X105829386Y-83332983D01*
X105785154Y-83555353D01*
X105698389Y-83764822D01*
X105572426Y-83953339D01*
X105412106Y-84113659D01*
X105223589Y-84239622D01*
X105014120Y-84326387D01*
X104902935Y-84348503D01*
X104791751Y-84370619D01*
X104565021Y-84370619D01*
X104453837Y-84348503D01*
X104342652Y-84326387D01*
X104133183Y-84239622D01*
X103944666Y-84113659D01*
X103784346Y-83953339D01*
X103658383Y-83764822D01*
X103571618Y-83555353D01*
X103527386Y-83332983D01*
X103527386Y-83106255D01*
X103571618Y-82883885D01*
X103658383Y-82674416D01*
X103784346Y-82485899D01*
X103944666Y-82325579D01*
X104133183Y-82199616D01*
X104342652Y-82112851D01*
X104453837Y-82090735D01*
X104565021Y-82068619D01*
X104791751Y-82068619D01*
X104902935Y-82090735D01*
G37*
G36*
X170609355Y-54060112D02*
G01*
X170741477Y-54114839D01*
X170741479Y-54114840D01*
X170860387Y-54194292D01*
X170961510Y-54295415D01*
X170961511Y-54295417D01*
X171040963Y-54414325D01*
X171095690Y-54546447D01*
X171123589Y-54686707D01*
X171123589Y-54829719D01*
X171095690Y-54969979D01*
X171040963Y-55102101D01*
X171040962Y-55102103D01*
X170961510Y-55221011D01*
X170860387Y-55322134D01*
X170741479Y-55401586D01*
X170741478Y-55401587D01*
X170741477Y-55401587D01*
X170609355Y-55456314D01*
X170469095Y-55484213D01*
X170326083Y-55484213D01*
X170185823Y-55456314D01*
X170053701Y-55401587D01*
X170053700Y-55401587D01*
X170053699Y-55401586D01*
X169934791Y-55322134D01*
X169833668Y-55221011D01*
X169754216Y-55102103D01*
X169754215Y-55102101D01*
X169699488Y-54969979D01*
X169671589Y-54829719D01*
X169671589Y-54686707D01*
X169699488Y-54546447D01*
X169754215Y-54414325D01*
X169833667Y-54295417D01*
X169833668Y-54295415D01*
X169934791Y-54194292D01*
X170053699Y-54114840D01*
X170053701Y-54114839D01*
X170185823Y-54060112D01*
X170326083Y-54032213D01*
X170469095Y-54032213D01*
X170609355Y-54060112D01*
G37*
G36*
X169012084Y-52856482D02*
G01*
X169144206Y-52911209D01*
X169144208Y-52911210D01*
X169263116Y-52990662D01*
X169364239Y-53091785D01*
X169364240Y-53091787D01*
X169443692Y-53210695D01*
X169498419Y-53342817D01*
X169526318Y-53483077D01*
X169526318Y-53626089D01*
X169498419Y-53766349D01*
X169448467Y-53886942D01*
X169443691Y-53898473D01*
X169364239Y-54017381D01*
X169263116Y-54118504D01*
X169144208Y-54197956D01*
X169144207Y-54197957D01*
X169144206Y-54197957D01*
X169012084Y-54252684D01*
X168871824Y-54280583D01*
X168728812Y-54280583D01*
X168588552Y-54252684D01*
X168456430Y-54197957D01*
X168456429Y-54197957D01*
X168456428Y-54197956D01*
X168337520Y-54118504D01*
X168236397Y-54017381D01*
X168156945Y-53898473D01*
X168152169Y-53886942D01*
X168102217Y-53766349D01*
X168074318Y-53626089D01*
X168074318Y-53483077D01*
X168102217Y-53342817D01*
X168156944Y-53210695D01*
X168236396Y-53091787D01*
X168236397Y-53091785D01*
X168337520Y-52990662D01*
X168456428Y-52911210D01*
X168456430Y-52911209D01*
X168588552Y-52856482D01*
X168728812Y-52828583D01*
X168871824Y-52828583D01*
X169012084Y-52856482D01*
G37*
G36*
X171812985Y-52462841D02*
G01*
X171945107Y-52517568D01*
X171945109Y-52517569D01*
X172064017Y-52597021D01*
X172165140Y-52698144D01*
X172165141Y-52698146D01*
X172244593Y-52817054D01*
X172299320Y-52949176D01*
X172327219Y-53089436D01*
X172327219Y-53232448D01*
X172299320Y-53372708D01*
X172253603Y-53483077D01*
X172244592Y-53504832D01*
X172165140Y-53623740D01*
X172064017Y-53724863D01*
X171945109Y-53804315D01*
X171945108Y-53804316D01*
X171945107Y-53804316D01*
X171812985Y-53859043D01*
X171672725Y-53886942D01*
X171529713Y-53886942D01*
X171389453Y-53859043D01*
X171257331Y-53804316D01*
X171257330Y-53804316D01*
X171257329Y-53804315D01*
X171138421Y-53724863D01*
X171037298Y-53623740D01*
X170957846Y-53504832D01*
X170948835Y-53483077D01*
X170903118Y-53372708D01*
X170875219Y-53232448D01*
X170875219Y-53089436D01*
X170903118Y-52949176D01*
X170957845Y-52817054D01*
X171037297Y-52698146D01*
X171037298Y-52698144D01*
X171138421Y-52597021D01*
X171257329Y-52517569D01*
X171257331Y-52517568D01*
X171389453Y-52462841D01*
X171529713Y-52434942D01*
X171672725Y-52434942D01*
X171812985Y-52462841D01*
G37*
G36*
X168219774Y-52208061D02*
G01*
X167345939Y-53367680D01*
X166186320Y-52493845D01*
X167060155Y-51334226D01*
X168219774Y-52208061D01*
G37*
G36*
X170215714Y-51259211D02*
G01*
X170347836Y-51313938D01*
X170347838Y-51313939D01*
X170466746Y-51393391D01*
X170567869Y-51494514D01*
X170567870Y-51494516D01*
X170647322Y-51613424D01*
X170702049Y-51745546D01*
X170729948Y-51885806D01*
X170729948Y-52028818D01*
X170702049Y-52169078D01*
X170647322Y-52301200D01*
X170647321Y-52301202D01*
X170567869Y-52420110D01*
X170466746Y-52521233D01*
X170347838Y-52600685D01*
X170347837Y-52600686D01*
X170347836Y-52600686D01*
X170215714Y-52655413D01*
X170075454Y-52683312D01*
X169932442Y-52683312D01*
X169792182Y-52655413D01*
X169660060Y-52600686D01*
X169660059Y-52600686D01*
X169660058Y-52600685D01*
X169541150Y-52521233D01*
X169440027Y-52420110D01*
X169360575Y-52301202D01*
X169360574Y-52301200D01*
X169305847Y-52169078D01*
X169277948Y-52028818D01*
X169277948Y-51885806D01*
X169305847Y-51745546D01*
X169360574Y-51613424D01*
X169440026Y-51494516D01*
X169440027Y-51494514D01*
X169541150Y-51393391D01*
X169660058Y-51313939D01*
X169660060Y-51313938D01*
X169792182Y-51259211D01*
X169932442Y-51231312D01*
X170075454Y-51231312D01*
X170215714Y-51259211D01*
G37*
G36*
X168618443Y-50055581D02*
G01*
X168750565Y-50110308D01*
X168750567Y-50110309D01*
X168869475Y-50189761D01*
X168970598Y-50290884D01*
X168970599Y-50290886D01*
X169050051Y-50409794D01*
X169104778Y-50541916D01*
X169132677Y-50682176D01*
X169132677Y-50825188D01*
X169104778Y-50965448D01*
X169050051Y-51097570D01*
X169050050Y-51097572D01*
X168970598Y-51216480D01*
X168869475Y-51317603D01*
X168750567Y-51397055D01*
X168750566Y-51397056D01*
X168750565Y-51397056D01*
X168618443Y-51451783D01*
X168478183Y-51479682D01*
X168335171Y-51479682D01*
X168194911Y-51451783D01*
X168062789Y-51397056D01*
X168062788Y-51397056D01*
X168062787Y-51397055D01*
X167943879Y-51317603D01*
X167842756Y-51216480D01*
X167763304Y-51097572D01*
X167763303Y-51097570D01*
X167708576Y-50965448D01*
X167680677Y-50825188D01*
X167680677Y-50682176D01*
X167708576Y-50541916D01*
X167763303Y-50409794D01*
X167842755Y-50290886D01*
X167842756Y-50290884D01*
X167943879Y-50189761D01*
X168062787Y-50110309D01*
X168062789Y-50110308D01*
X168194911Y-50055581D01*
X168335171Y-50027682D01*
X168478183Y-50027682D01*
X168618443Y-50055581D01*
G37*
G36*
X145152935Y-41840735D02*
G01*
X145264120Y-41862851D01*
X145473589Y-41949616D01*
X145662106Y-42075579D01*
X145822426Y-42235899D01*
X145948389Y-42424416D01*
X146035154Y-42633885D01*
X146079386Y-42856255D01*
X146079386Y-43082983D01*
X146035154Y-43305353D01*
X145948389Y-43514822D01*
X145822426Y-43703339D01*
X145662106Y-43863659D01*
X145473589Y-43989622D01*
X145264120Y-44076387D01*
X145152935Y-44098503D01*
X145041751Y-44120619D01*
X144815021Y-44120619D01*
X144703837Y-44098503D01*
X144592652Y-44076387D01*
X144383183Y-43989622D01*
X144194666Y-43863659D01*
X144034346Y-43703339D01*
X143908383Y-43514822D01*
X143821618Y-43305353D01*
X143777386Y-43082983D01*
X143777386Y-42856255D01*
X143821618Y-42633885D01*
X143908383Y-42424416D01*
X144034346Y-42235899D01*
X144194666Y-42075579D01*
X144383183Y-41949616D01*
X144592652Y-41862851D01*
X144703837Y-41840735D01*
X144815021Y-41818619D01*
X145041751Y-41818619D01*
X145152935Y-41840735D01*
G37*
M02*
